<?xml version="1.0" encoding="UTF-8" standalone="no"?>
<!DOCTYPE svg PUBLIC "-//W3C//DTD SVG 1.1//EN"
 "http://www.w3.org/Graphics/SVG/1.1/DTD/svg11.dtd">
<!-- Generated by graphviz version 2.42.4 (0)
 -->
<!-- Title: Kubernetes Deployment Pages: 1 -->
<svg width="1119pt" height="648pt"
 viewBox="0.00 0.00 1119.00 648.00" xmlns="http://www.w3.org/2000/svg" xmlns:xlink="http://www.w3.org/1999/xlink">
<g id="graph0" class="graph" transform="scale(1 1) rotate(0) translate(36 612)">
<title>Kubernetes Deployment</title>
<polygon fill="white" stroke="transparent" points="-36,36 -36,-612 1083,-612 1083,36 -36,36"/>
<text text-anchor="middle" x="523.5" y="-9" font-family="Sans-Serif" font-size="15.00" fill="#2d3436">Kubernetes Deployment</text>
<g id="clust1" class="cluster">
<title>cluster_Ingress Layer</title>
<path fill="#e5f5fd" stroke="#aeb6be" d="M159,-213C159,-213 407,-213 407,-213 413,-213 419,-219 419,-225 419,-225 419,-376 419,-376 419,-382 413,-388 407,-388 407,-388 159,-388 159,-388 153,-388 147,-382 147,-376 147,-376 147,-225 147,-225 147,-219 153,-213 159,-213"/>
<text text-anchor="middle" x="195.5" y="-374.4" font-family="Sans-Serif" font-size="12.00" fill="#2d3436">Ingress Layer</text>
</g>
<g id="clust2" class="cluster">
<title>cluster_Application</title>
<path fill="#e5f5fd" stroke="#aeb6be" d="M469,-33C469,-33 717,-33 717,-33 723,-33 729,-39 729,-45 729,-45 729,-556 729,-556 729,-562 723,-568 717,-568 717,-568 469,-568 469,-568 463,-568 457,-562 457,-556 457,-556 457,-45 457,-45 457,-39 463,-33 469,-33"/>
<text text-anchor="middle" x="498.5" y="-554.4" font-family="Sans-Serif" font-size="12.00" fill="#2d3436">Application</text>
</g>
<g id="clust3" class="cluster">
<title>cluster_Storage</title>
<path fill="#e5f5fd" stroke="#aeb6be" d="M779,-33C779,-33 1027,-33 1027,-33 1033,-33 1039,-39 1039,-45 1039,-45 1039,-556 1039,-556 1039,-562 1033,-568 1027,-568 1027,-568 779,-568 779,-568 773,-568 767,-562 767,-556 767,-556 767,-45 767,-45 767,-39 773,-33 779,-33"/>
<text text-anchor="middle" x="799" y="-554.4" font-family="Sans-Serif" font-size="12.00" fill="#2d3436">Storage</text>
</g>
<!-- c834763e3d994f33ab5ef9c6948334a8 -->
<g id="node1" class="node">
<title>c834763e3d994f33ab5ef9c6948334a8</title>
<image xlink:href="/usr/local/lib/python3.12/site-packages/resources/k8s/others/crd.png" width="101px" height="101px" preserveAspectRatio="xMinYMin meet" x="0" y="-340.5"/>
<text text-anchor="middle" x="50.5" y="-225.1" font-family="Sans-Serif" font-size="13.00" fill="#2d3436">External Traffic</text>
</g>
<!-- 25d5ba5f17884fd7987bedf3a28c641f -->
<g id="node2" class="node">
<title>25d5ba5f17884fd7987bedf3a28c641f</title>
<image xlink:href="/usr/local/lib/python3.12/site-packages/resources/k8s/network/ing.png" width="101px" height="101px" preserveAspectRatio="xMinYMin meet" x="155" y="-340.5"/>
<text text-anchor="middle" x="205.5" y="-225.1" font-family="Sans-Serif" font-size="13.00" fill="#2d3436">Ingress</text>
</g>
<!-- c834763e3d994f33ab5ef9c6948334a8&#45;&gt;25d5ba5f17884fd7987bedf3a28c641f -->
<g id="edge1" class="edge">
<title>c834763e3d994f33ab5ef9c6948334a8&#45;&gt;25d5ba5f17884fd7987bedf3a28c641f</title>
<path fill="none" stroke="#7b8894" d="M101.25,-290C101.25,-290 144.9,-290 144.9,-290"/>
<polygon fill="#7b8894" stroke="#7b8894" points="144.9,-293.5 154.9,-290 144.9,-286.5 144.9,-293.5"/>
</g>
<!-- 5946091c52a14635a5b9c5663613828d -->
<g id="node3" class="node">
<title>5946091c52a14635a5b9c5663613828d</title>
<image xlink:href="/usr/local/lib/python3.12/site-packages/resources/k8s/network/svc.png" width="101px" height="101px" preserveAspectRatio="xMinYMin meet" x="310" y="-340.5"/>
<text text-anchor="middle" x="360.5" y="-225.1" font-family="Sans-Serif" font-size="13.00" fill="#2d3436">Service</text>
</g>
<!-- 25d5ba5f17884fd7987bedf3a28c641f&#45;&gt;5946091c52a14635a5b9c5663613828d -->
<g id="edge2" class="edge">
<title>25d5ba5f17884fd7987bedf3a28c641f&#45;&gt;5946091c52a14635a5b9c5663613828d</title>
<path fill="none" stroke="#7b8894" d="M256.25,-290C256.25,-290 299.9,-290 299.9,-290"/>
<polygon fill="#7b8894" stroke="#7b8894" points="299.9,-293.5 309.9,-290 299.9,-286.5 299.9,-293.5"/>
</g>
<!-- 4001821b203749c0a6cad593a5dbec06 -->
<g id="node4" class="node">
<title>4001821b203749c0a6cad593a5dbec06</title>
<image xlink:href="/usr/local/lib/python3.12/site-packages/resources/k8s/compute/deploy.png" width="101px" height="101px" preserveAspectRatio="xMinYMin meet" x="465" y="-340.5"/>
<text text-anchor="middle" x="515.5" y="-225.1" font-family="Sans-Serif" font-size="13.00" fill="#2d3436">Deployment</text>
</g>
<!-- 5946091c52a14635a5b9c5663613828d&#45;&gt;4001821b203749c0a6cad593a5dbec06 -->
<g id="edge3" class="edge">
<title>5946091c52a14635a5b9c5663613828d&#45;&gt;4001821b203749c0a6cad593a5dbec06</title>
<path fill="none" stroke="#7b8894" d="M411.25,-290C411.25,-290 454.9,-290 454.9,-290"/>
<polygon fill="#7b8894" stroke="#7b8894" points="454.9,-293.5 464.9,-290 454.9,-286.5 454.9,-293.5"/>
</g>
<!-- e5072362639e4252a24fffaf0a1a1354 -->
<g id="node5" class="node">
<title>e5072362639e4252a24fffaf0a1a1354</title>
<image xlink:href="/usr/local/lib/python3.12/site-packages/resources/k8s/compute/pod.png" width="101px" height="101px" preserveAspectRatio="xMinYMin meet" x="620" y="-520.5"/>
<text text-anchor="middle" x="670.5" y="-405.1" font-family="Sans-Serif" font-size="13.00" fill="#2d3436">Pod 1</text>
</g>
<!-- 4001821b203749c0a6cad593a5dbec06&#45;&gt;e5072362639e4252a24fffaf0a1a1354 -->
<g id="edge4" class="edge">
<title>4001821b203749c0a6cad593a5dbec06&#45;&gt;e5072362639e4252a24fffaf0a1a1354</title>
<path fill="none" stroke="#7b8894" d="M516,-358.56C516,-409.43 516,-470 516,-470 516,-470 609.91,-470 609.91,-470"/>
<polygon fill="#7b8894" stroke="#7b8894" points="609.91,-473.5 619.91,-470 609.91,-466.5 609.91,-473.5"/>
</g>
<!-- 2cb0bcc47e9b41fc93e80ffd923f0370 -->
<g id="node6" class="node">
<title>2cb0bcc47e9b41fc93e80ffd923f0370</title>
<image xlink:href="/usr/local/lib/python3.12/site-packages/resources/k8s/compute/pod.png" width="101px" height="101px" preserveAspectRatio="xMinYMin meet" x="620" y="-160.5"/>
<text text-anchor="middle" x="670.5" y="-45.1" font-family="Sans-Serif" font-size="13.00" fill="#2d3436">Pod 2</text>
</g>
<!-- 4001821b203749c0a6cad593a5dbec06&#45;&gt;2cb0bcc47e9b41fc93e80ffd923f0370 -->
<g id="edge5" class="edge">
<title>4001821b203749c0a6cad593a5dbec06&#45;&gt;2cb0bcc47e9b41fc93e80ffd923f0370</title>
<path fill="none" stroke="#7b8894" d="M516,-221.44C516,-170.57 516,-110 516,-110 516,-110 609.91,-110 609.91,-110"/>
<polygon fill="#7b8894" stroke="#7b8894" points="609.91,-113.5 619.91,-110 609.91,-106.5 609.91,-113.5"/>
</g>
<!-- af49de60c26d44edb8577a7c47b663d3 -->
<g id="node7" class="node">
<title>af49de60c26d44edb8577a7c47b663d3</title>
<image xlink:href="/usr/local/lib/python3.12/site-packages/resources/k8s/compute/pod.png" width="101px" height="101px" preserveAspectRatio="xMinYMin meet" x="620" y="-340.5"/>
<text text-anchor="middle" x="670.5" y="-225.1" font-family="Sans-Serif" font-size="13.00" fill="#2d3436">Pod 3</text>
</g>
<!-- 4001821b203749c0a6cad593a5dbec06&#45;&gt;af49de60c26d44edb8577a7c47b663d3 -->
<g id="edge6" class="edge">
<title>4001821b203749c0a6cad593a5dbec06&#45;&gt;af49de60c26d44edb8577a7c47b663d3</title>
<path fill="none" stroke="#7b8894" d="M566.25,-290C566.25,-290 609.9,-290 609.9,-290"/>
<polygon fill="#7b8894" stroke="#7b8894" points="609.9,-293.5 619.9,-290 609.9,-286.5 609.9,-293.5"/>
</g>
<!-- 49742c4583c74f65baebddfc38e7e290 -->
<g id="node8" class="node">
<title>49742c4583c74f65baebddfc38e7e290</title>
<image xlink:href="/usr/local/lib/python3.12/site-packages/resources/k8s/storage/pvc.png" width="101px" height="101px" preserveAspectRatio="xMinYMin meet" x="775" y="-160.5"/>
<text text-anchor="middle" x="825.5" y="-45.1" font-family="Sans-Serif" font-size="13.00" fill="#2d3436">PersistentVolumeClaim</text>
</g>
<!-- e5072362639e4252a24fffaf0a1a1354&#45;&gt;49742c4583c74f65baebddfc38e7e290 -->
<g id="edge7" class="edge">
<title>e5072362639e4252a24fffaf0a1a1354&#45;&gt;49742c4583c74f65baebddfc38e7e290</title>
<path fill="none" stroke="#7b8894" d="M721.07,-470C740,-470 757,-470 757,-470 757,-470 757,-144.25 757,-144.25 757,-144.25 765,-144.25 765,-144.25"/>
<polygon fill="#7b8894" stroke="#7b8894" points="765,-147.75 775,-144.25 765,-140.75 765,-147.75"/>
</g>
<!-- f92a53b405b04a17acddc452ff0652ad -->
<g id="node10" class="node">
<title>f92a53b405b04a17acddc452ff0652ad</title>
<image xlink:href="/usr/local/lib/python3.12/site-packages/resources/k8s/podconfig/cm.png" width="101px" height="101px" preserveAspectRatio="xMinYMin meet" x="775" y="-520.5"/>
<text text-anchor="middle" x="825.5" y="-405.1" font-family="Sans-Serif" font-size="13.00" fill="#2d3436">ConfigMap</text>
</g>
<!-- e5072362639e4252a24fffaf0a1a1354&#45;&gt;f92a53b405b04a17acddc452ff0652ad -->
<g id="edge11" class="edge">
<title>e5072362639e4252a24fffaf0a1a1354&#45;&gt;f92a53b405b04a17acddc452ff0652ad</title>
<path fill="none" stroke="#7b8894" stroke-dasharray="5,2" d="M721.25,-504.25C721.25,-504.25 764.9,-504.25 764.9,-504.25"/>
<polygon fill="#7b8894" stroke="#7b8894" points="764.9,-507.75 774.9,-504.25 764.9,-500.75 764.9,-507.75"/>
</g>
<!-- a6c5b95f80c748dba14cc34eb33b55ad -->
<g id="node11" class="node">
<title>a6c5b95f80c748dba14cc34eb33b55ad</title>
<image xlink:href="/usr/local/lib/python3.12/site-packages/resources/k8s/podconfig/secret.png" width="101px" height="101px" preserveAspectRatio="xMinYMin meet" x="775" y="-340.5"/>
<text text-anchor="middle" x="825.5" y="-225.1" font-family="Sans-Serif" font-size="13.00" fill="#2d3436">Secret</text>
</g>
<!-- e5072362639e4252a24fffaf0a1a1354&#45;&gt;a6c5b95f80c748dba14cc34eb33b55ad -->
<g id="edge14" class="edge">
<title>e5072362639e4252a24fffaf0a1a1354&#45;&gt;a6c5b95f80c748dba14cc34eb33b55ad</title>
<path fill="none" stroke="#7b8894" stroke-dasharray="5,2" d="M654,-401.22C654,-392.84 654,-387.17 654,-387.17 654,-387.17 809,-387.17 809,-387.17 809,-387.17 809,-368.54 809,-368.54"/>
<polygon fill="#7b8894" stroke="#7b8894" points="812.5,-368.54 809,-358.54 805.5,-368.54 812.5,-368.54"/>
</g>
<!-- 2cb0bcc47e9b41fc93e80ffd923f0370&#45;&gt;49742c4583c74f65baebddfc38e7e290 -->
<g id="edge8" class="edge">
<title>2cb0bcc47e9b41fc93e80ffd923f0370&#45;&gt;49742c4583c74f65baebddfc38e7e290</title>
<path fill="none" stroke="#7b8894" d="M721.25,-75.75C721.25,-75.75 764.9,-75.75 764.9,-75.75"/>
<polygon fill="#7b8894" stroke="#7b8894" points="764.9,-79.25 774.9,-75.75 764.9,-72.25 764.9,-79.25"/>
</g>
<!-- 2cb0bcc47e9b41fc93e80ffd923f0370&#45;&gt;f92a53b405b04a17acddc452ff0652ad -->
<g id="edge12" class="edge">
<title>2cb0bcc47e9b41fc93e80ffd923f0370&#45;&gt;f92a53b405b04a17acddc452ff0652ad</title>
<path fill="none" stroke="#7b8894" stroke-dasharray="5,2" d="M721,-110C731.27,-110 739,-110 739,-110 739,-110 739,-435.75 739,-435.75 739,-435.75 764.93,-435.75 764.93,-435.75"/>
<polygon fill="#7b8894" stroke="#7b8894" points="764.93,-439.25 774.93,-435.75 764.93,-432.25 764.93,-439.25"/>
</g>
<!-- 2cb0bcc47e9b41fc93e80ffd923f0370&#45;&gt;a6c5b95f80c748dba14cc34eb33b55ad -->
<g id="edge15" class="edge">
<title>2cb0bcc47e9b41fc93e80ffd923f0370&#45;&gt;a6c5b95f80c748dba14cc34eb33b55ad</title>
<path fill="none" stroke="#7b8894" stroke-dasharray="5,2" d="M654,-178.54C654,-194.62 654,-207.17 654,-207.17 654,-207.17 809,-207.17 809,-207.17 809,-207.17 809,-211.22 809,-211.22"/>
<polygon fill="#7b8894" stroke="#7b8894" points="805.5,-211.22 809,-221.22 812.5,-211.22 805.5,-211.22"/>
</g>
<!-- af49de60c26d44edb8577a7c47b663d3&#45;&gt;49742c4583c74f65baebddfc38e7e290 -->
<g id="edge9" class="edge">
<title>af49de60c26d44edb8577a7c47b663d3&#45;&gt;49742c4583c74f65baebddfc38e7e290</title>
<path fill="none" stroke="#7b8894" d="M688,-221.46C688,-205.38 688,-192.83 688,-192.83 688,-192.83 843,-192.83 843,-192.83 843,-192.83 843,-188.78 843,-188.78"/>
<polygon fill="#7b8894" stroke="#7b8894" points="846.5,-188.78 843,-178.78 839.5,-188.78 846.5,-188.78"/>
</g>
<!-- af49de60c26d44edb8577a7c47b663d3&#45;&gt;f92a53b405b04a17acddc452ff0652ad -->
<g id="edge13" class="edge">
<title>af49de60c26d44edb8577a7c47b663d3&#45;&gt;f92a53b405b04a17acddc452ff0652ad</title>
<path fill="none" stroke="#7b8894" stroke-dasharray="5,2" d="M688,-358.78C688,-367.16 688,-372.83 688,-372.83 688,-372.83 843,-372.83 843,-372.83 843,-372.83 843,-391.46 843,-391.46"/>
<polygon fill="#7b8894" stroke="#7b8894" points="839.5,-391.46 843,-401.46 846.5,-391.46 839.5,-391.46"/>
</g>
<!-- af49de60c26d44edb8577a7c47b663d3&#45;&gt;a6c5b95f80c748dba14cc34eb33b55ad -->
<g id="edge16" class="edge">
<title>af49de60c26d44edb8577a7c47b663d3&#45;&gt;a6c5b95f80c748dba14cc34eb33b55ad</title>
<path fill="none" stroke="#7b8894" stroke-dasharray="5,2" d="M721.25,-290C721.25,-290 764.9,-290 764.9,-290"/>
<polygon fill="#7b8894" stroke="#7b8894" points="764.9,-293.5 774.9,-290 764.9,-286.5 764.9,-293.5"/>
</g>
<!-- 8773c9ac0d954d1fb14d71aa4d0d72fe -->
<g id="node9" class="node">
<title>8773c9ac0d954d1fb14d71aa4d0d72fe</title>
<image xlink:href="/usr/local/lib/python3.12/site-packages/resources/k8s/storage/pv.png" width="101px" height="101px" preserveAspectRatio="xMinYMin meet" x="930" y="-160.5"/>
<text text-anchor="middle" x="980.5" y="-45.1" font-family="Sans-Serif" font-size="13.00" fill="#2d3436">PersistentVolume</text>
</g>
<!-- 49742c4583c74f65baebddfc38e7e290&#45;&gt;8773c9ac0d954d1fb14d71aa4d0d72fe -->
<g id="edge10" class="edge">
<title>49742c4583c74f65baebddfc38e7e290&#45;&gt;8773c9ac0d954d1fb14d71aa4d0d72fe</title>
<path fill="none" stroke="#7b8894" d="M876.25,-110C876.25,-110 919.9,-110 919.9,-110"/>
<polygon fill="#7b8894" stroke="#7b8894" points="919.9,-113.5 929.9,-110 919.9,-106.5 919.9,-113.5"/>
</g>
</g>
</svg>
