<?xml version="1.0" encoding="UTF-8" standalone="no"?>
<svg xmlns="http://www.w3.org/2000/svg" width="2704.11" height="743.7" viewBox="-44 -43.85 2704.11 743.7" preserveAspectRatio="xMidYMid meet" class="usv-svg usv-attackgraph" data-usv-engine="svg" data-usv-module="attackgraph" data-usv-theme="sv_default"><defs><filter id="usv-shadow-0" x="-20%" y="-20%" width="140%" height="140%"><feDropShadow dx="0" dy="1.2" stdDeviation="2.2" flood-color="#0f172a" flood-opacity="0.28" /></filter><marker id="usv-arrow-1" viewBox="0 0 10 10" refX="9" refY="5" markerWidth="7" markerHeight="7" orient="auto-start-reverse"><path d="M 0 1 L 9 5 L 0 9 z" fill="#3b82c4" /></marker><marker id="usv-arrow-2" viewBox="0 0 10 10" refX="9" refY="5" markerWidth="7" markerHeight="7" orient="auto-start-reverse"><path d="M 0 1 L 9 5 L 0 9 z" fill="#c0392b" /></marker><marker id="usv-arrow-3" viewBox="0 0 10 10" refX="9" refY="5" markerWidth="7" markerHeight="7" orient="auto-start-reverse"><path d="M 0 1 L 9 5 L 0 9 z" fill="#94a3b8" /></marker></defs><style type="text/css">
.usv-attackgraph text { font-family: Helvetica Neue, Helvetica, Arial, sans-serif; }
.usv-attackgraph .usv-node:hover rect, .usv-attackgraph .usv-node:hover polygon { stroke-width: 2.2; }
</style><rect x="-44" y="-43.85" width="2704.11" height="743.7" rx="0" fill="#f8fafc" stroke="none" stroke-width="0" /><g class="usv-edge usv-edge--network" data-from="attacker" data-to="waf"><path d="M 116.34 485.38 C 164.46 477.3 233.24 465.76 283.91 457.26 L 293.79 455.6" fill="none" stroke="#3b82c4" stroke-width="1.6" stroke-linecap="round" marker-end="url(#usv-arrow-1)" /></g><g class="usv-edge usv-edge--network" data-from="waf" data-to="loadbalancer"><path d="M 405.42 425.47 C 459.21 404.41 542.89 371.64 599.96 349.29 L 609.58 345.53" fill="none" stroke="#3b82c4" stroke-width="1.6" stroke-linecap="round" marker-end="url(#usv-arrow-1)" /></g><g class="usv-edge usv-edge--network" data-from="loadbalancer" data-to="webserver"><path d="M 724.51 325 C 771.19 325 835.71 325 883.95 325 L 893.99 325" fill="none" stroke="#3b82c4" stroke-width="1.6" stroke-linecap="round" marker-end="url(#usv-arrow-1)" /></g><g class="usv-edge usv-edge--network" data-from="webserver" data-to="appserver"><path d="M 1010.3 306.75 C 1045.8 295.44 1091.7 280.8 1129.9 268.61 L 1139.5 265.57" fill="none" stroke="#3b82c4" stroke-width="1.6" stroke-linecap="round" marker-end="url(#usv-arrow-1)" /></g><g class="usv-edge usv-edge--network" data-from="appserver" data-to="database"><path d="M 1243.8 224.46 C 1262.6 214.66 1285.7 203.12 1307 194 C 1353.1 174.28 1406.3 155.44 1447.8 141.57 L 1457.5 138.33" fill="none" stroke="#3b82c4" stroke-width="1.6" stroke-linecap="round" marker-end="url(#usv-arrow-1)" /></g><g class="usv-edge usv-edge--network" data-from="appserver" data-to="secrets"><path d="M 1280.9 233.74 C 1328.5 226.58 1390.1 217.31 1438.7 210.01 L 1448.8 208.48" fill="none" stroke="#3b82c4" stroke-width="1.6" stroke-linecap="round" marker-end="url(#usv-arrow-1)" /></g><g class="usv-edge usv-edge--exploit" data-from="attacker" data-to="exploit_waf_bypass"><path d="M 116.34 501.68 C 155.8 506.27 209.16 512.48 255.03 517.83 L 265 518.99" fill="none" stroke="#c0392b" stroke-width="2.4" stroke-linecap="round" marker-end="url(#usv-arrow-2)" /></g><g class="usv-edge usv-edge--exploit" data-from="exploit_waf_bypass" data-to="priv_waf_access"><path d="M 439.07 544.04 C 488.22 552.63 548.93 563.24 594.58 571.22 L 604.67 572.98" fill="none" stroke="#c0392b" stroke-width="2.4" stroke-linecap="round" marker-end="url(#usv-arrow-2)" /></g><g class="usv-edge usv-edge--exploit" data-from="priv_waf_access" data-to="exploit_ssrf"><path d="M 721.05 583 C 765.08 583 826.42 583 874.67 583 L 884.76 583" fill="none" stroke="#c0392b" stroke-width="2.4" stroke-linecap="round" marker-end="url(#usv-arrow-2)" /></g><g class="usv-edge usv-edge--exploit" data-from="exploit_ssrf" data-to="priv_web_user"><path d="M 1019.3 583 C 1053.5 583 1095.4 583 1130.6 583 L 1140.8 583" fill="none" stroke="#c0392b" stroke-width="2.4" stroke-linecap="round" marker-end="url(#usv-arrow-2)" /></g><g class="usv-edge usv-edge--exploit" data-from="priv_web_user" data-to="exploit_rce"><path d="M 1269.2 583 C 1322.1 583 1397.3 583 1451.2 583 L 1461.4 583" fill="none" stroke="#c0392b" stroke-width="2.4" stroke-linecap="round" marker-end="url(#usv-arrow-2)" /></g><g class="usv-edge usv-edge--exploit" data-from="exploit_rce" data-to="priv_app_exec"><path d="M 1577.7 583 C 1603 583 1633.1 583 1660.8 583 L 1670.9 583" fill="none" stroke="#c0392b" stroke-width="2.4" stroke-linecap="round" marker-end="url(#usv-arrow-2)" /></g><g class="usv-edge usv-edge--exploit" data-from="priv_app_exec" data-to="exploit_sqli"><path d="M 1821.2 568.72 C 1836.9 565.69 1853.7 562.47 1869.9 559.35 L 1879.9 557.42" fill="none" stroke="#c0392b" stroke-width="2.4" stroke-linecap="round" marker-end="url(#usv-arrow-2)" /></g><g class="usv-edge usv-edge--exploit" data-from="exploit_sqli" data-to="priv_db_read"><path d="M 2042 539.94 C 2055.5 539.59 2069.4 539.23 2082.7 538.89 L 2092.7 538.63" fill="none" stroke="#c0392b" stroke-width="2.4" stroke-linecap="round" marker-end="url(#usv-arrow-2)" /></g><g class="usv-edge usv-edge--exploit" data-from="priv_app_exec" data-to="exploit_secrets"><path d="M 1821.2 594.84 C 1842.1 598.19 1864.9 601.82 1885.9 605.17 L 1896 606.78" fill="none" stroke="#c0392b" stroke-width="2.4" stroke-linecap="round" marker-end="url(#usv-arrow-2)" /></g><g class="usv-edge usv-edge--exploit" data-from="exploit_secrets" data-to="priv_secrets_read"><path d="M 2026.1 619.97 C 2044.4 620.82 2064.5 621.76 2083.3 622.63 L 2093.3 623.09" fill="none" stroke="#c0392b" stroke-width="2.4" stroke-linecap="round" marker-end="url(#usv-arrow-2)" /></g><g class="usv-edge usv-edge--exploit" data-from="priv_db_read" data-to="exploit_db_admin"><path d="M 2221.1 537 C 2234 537 2247.8 537 2261.4 537 L 2271.7 537" fill="none" stroke="#c0392b" stroke-width="2.4" stroke-linecap="round" marker-end="url(#usv-arrow-2)" /></g><g class="usv-edge usv-edge--exploit" data-from="exploit_db_admin" data-to="priv_db_admin"><path d="M 2428.3 537 C 2441.6 537 2455.5 537 2468.9 537 L 2479 537" fill="none" stroke="#c0392b" stroke-width="2.4" stroke-linecap="round" marker-end="url(#usv-arrow-2)" /></g><g class="usv-edge usv-edge--structural" data-from="waf" data-to="vuln_waf_bypass"><path d="M 410.04 438.43 C 455.66 432.38 520.45 423.78 572.91 416.82 L 582.89 415.5" fill="none" stroke="#94a3b8" stroke-width="1.6" stroke-linecap="round" stroke-dasharray="4.8 4" marker-end="url(#usv-arrow-3)" /></g><g class="usv-edge usv-edge--structural" data-from="webserver" data-to="vuln_web_ssrf"><path d="M 1010.3 325 C 1042 325 1082.1 325 1117.6 325 L 1127.9 325" fill="none" stroke="#94a3b8" stroke-width="1.6" stroke-linecap="round" stroke-dasharray="4.8 4" marker-end="url(#usv-arrow-3)" /></g><g class="usv-edge usv-edge--structural" data-from="appserver" data-to="vuln_app_rce"><path d="M 1280.9 252.9 C 1321.6 257.2 1372.5 262.58 1416.8 267.26 L 1427 268.33" fill="none" stroke="#94a3b8" stroke-width="1.6" stroke-linecap="round" stroke-dasharray="4.8 4" marker-end="url(#usv-arrow-3)" /></g><g class="usv-edge usv-edge--structural" data-from="database" data-to="vuln_db_sqli"><path d="M 1572.3 98.47 C 1600.5 87.3 1635.9 73.27 1667.3 60.82 L 1676.9 57.01" fill="none" stroke="#94a3b8" stroke-width="1.6" stroke-linecap="round" stroke-dasharray="4.8 4" marker-end="url(#usv-arrow-3)" /></g><g class="usv-edge usv-edge--structural" data-from="secrets" data-to="vuln_secrets_iam"><path d="M 1590.3 201.11 C 1610 201.99 1631.7 202.95 1652.5 203.88 L 1662.6 204.33" fill="none" stroke="#94a3b8" stroke-width="1.6" stroke-linecap="round" stroke-dasharray="4.8 4" marker-end="url(#usv-arrow-3)" /></g><g class="usv-edge usv-edge--structural" data-from="waf" data-to="svc_https"><path d="M 410.04 454.86 C 462.24 462.97 539.54 474.98 594.74 483.55 L 604.77 485.11" fill="none" stroke="#94a3b8" stroke-width="1.6" stroke-linecap="round" stroke-dasharray="4.8 4" marker-end="url(#usv-arrow-3)" /></g><g class="usv-edge usv-edge--structural" data-from="webserver" data-to="svc_http"><path d="M 1010.3 345.31 C 1048.1 358.72 1097.8 376.35 1137.4 390.39 L 1147 393.78" fill="none" stroke="#94a3b8" stroke-width="1.6" stroke-linecap="round" stroke-dasharray="4.8 4" marker-end="url(#usv-arrow-3)" /></g><g class="usv-edge usv-edge--structural" data-from="appserver" data-to="svc_api"><path d="M 1258.7 265.56 C 1311.9 286.34 1394.3 318.51 1452 341.03 L 1461.4 344.7" fill="none" stroke="#94a3b8" stroke-width="1.6" stroke-linecap="round" stroke-dasharray="4.8 4" marker-end="url(#usv-arrow-3)" /></g><g class="usv-edge usv-edge--structural" data-from="database" data-to="svc_postgres"><path d="M 1581.3 119 C 1611 119 1646.9 119 1677.5 119 L 1687.7 119" fill="none" stroke="#94a3b8" stroke-width="1.6" stroke-linecap="round" stroke-dasharray="4.8 4" marker-end="url(#usv-arrow-3)" /></g><g class="usv-node usv-node--host" data-kind="host" data-label="Attacker" data-node-id="attacker"><rect x="0" y="474.57" width="116" height="40.85" rx="10" fill="#3d5a80" stroke="#1e293b" stroke-width="1" filter="url(#usv-shadow-0)" /><text x="58" y="498.57" text-anchor="middle" font-size="13" fill="#ffffff">Attacker</text></g><g class="usv-node usv-node--host" data-kind="host" data-label="WAF/CDN" data-node-id="waf"><rect x="294" y="425.57" width="116" height="40.85" rx="10" fill="#3d5a80" stroke="#1e293b" stroke-width="1" filter="url(#usv-shadow-0)" /><text x="352" y="449.57" text-anchor="middle" font-size="13" fill="#ffffff">WAF/CDN</text></g><g class="usv-node usv-node--host" data-kind="host" data-label="Load Balancer" data-node-id="loadbalancer"><rect x="601.38" y="304.57" width="123.24" height="40.85" rx="10" fill="#3d5a80" stroke="#1e293b" stroke-width="1" filter="url(#usv-shadow-0)" /><text x="663" y="328.57" text-anchor="middle" font-size="13" fill="#ffffff">Load Balancer</text></g><g class="usv-node usv-node--host" data-kind="host" data-label="Web Server" data-node-id="webserver"><rect x="894" y="304.57" width="116" height="40.85" rx="10" fill="#3d5a80" stroke="#1e293b" stroke-width="1" filter="url(#usv-shadow-0)" /><text x="952" y="328.57" text-anchor="middle" font-size="13" fill="#ffffff">Web Server</text></g><g class="usv-node usv-node--host" data-kind="host" data-label="Application Server" data-node-id="appserver"><rect x="1129.35" y="224.57" width="151.3" height="40.85" rx="10" fill="#3d5a80" stroke="#1e293b" stroke-width="1" filter="url(#usv-shadow-0)" /><text x="1205" y="248.57" text-anchor="middle" font-size="13" fill="#ffffff">Application Server</text></g><g class="usv-node usv-node--host" data-kind="host" data-label="RDS Database" data-node-id="database"><rect x="1457.76" y="98.58" width="123.49" height="40.85" rx="10" fill="#3d5a80" stroke="#1e293b" stroke-width="1" filter="url(#usv-shadow-0)" /><text x="1519.5" y="122.58" text-anchor="middle" font-size="13" fill="#ffffff">RDS Database</text></g><g class="usv-node usv-node--host" data-kind="host" data-label="Secrets Manager" data-node-id="secrets"><rect x="1449.21" y="177.57" width="140.58" height="40.85" rx="10" fill="#3d5a80" stroke="#1e293b" stroke-width="1" filter="url(#usv-shadow-0)" /><text x="1519.5" y="201.57" text-anchor="middle" font-size="13" fill="#ffffff">Secrets Manager</text></g><g class="usv-node usv-node--vulnerability usv-sev--medium" data-cvss="4.8" data-kind="vulnerability" data-label="WAF Bypass" data-node-id="vuln_waf_bypass" data-severity="medium"><rect x="582.84" y="375.15" width="160.33" height="59.7" rx="10" fill="#f39c12" stroke="#1e293b" stroke-width="1" filter="url(#usv-shadow-0)" /><text x="663" y="399.15" text-anchor="middle" font-size="13" fill="#1f2937">WAF Bypass</text><text x="663" y="418" text-anchor="middle" font-size="13" fill="#1f2937">CVSS 4.8* · Medium</text></g><g class="usv-node usv-node--vulnerability usv-sev--critical" data-cvss="9.3" data-kind="vulnerability" data-label="SSRF Vulnerability" data-node-id="vuln_web_ssrf" data-severity="critical"><rect x="1128.15" y="295.15" width="153.7" height="59.7" rx="10" fill="#8b0000" stroke="#1e293b" stroke-width="1" filter="url(#usv-shadow-0)" /><text x="1205" y="319.15" text-anchor="middle" font-size="13" fill="#ffffff">SSRF Vulnerability</text><text x="1205" y="338" text-anchor="middle" font-size="13" fill="#ffffff">CVSS 9.3* · Critical</text></g><g class="usv-node usv-node--vulnerability usv-sev--high" data-cvss="8.8" data-kind="vulnerability" data-label="Remote Code Execution" data-node-id="vuln_app_rce" data-severity="high"><rect x="1426.94" y="248.15" width="185.11" height="59.7" rx="10" fill="#e74c3c" stroke="#1e293b" stroke-width="1" filter="url(#usv-shadow-0)" /><text x="1519.5" y="272.15" text-anchor="middle" font-size="13" fill="#ffffff">Remote Code Execution</text><text x="1519.5" y="291" text-anchor="middle" font-size="13" fill="#ffffff">CVSS 8.8* · High</text></g><g class="usv-node usv-node--vulnerability usv-sev--high" data-cvss="8.1" data-kind="vulnerability" data-label="SQL Injection" data-node-id="vuln_db_sqli" data-severity="high"><rect x="1676.89" y="0.15" width="138.22" height="59.7" rx="10" fill="#e74c3c" stroke="#1e293b" stroke-width="1" filter="url(#usv-shadow-0)" /><text x="1746" y="24.15" text-anchor="middle" font-size="13" fill="#ffffff">SQL Injection</text><text x="1746" y="43" text-anchor="middle" font-size="13" fill="#ffffff">CVSS 8.1* · High</text></g><g class="usv-node usv-node--vulnerability usv-sev--high" data-cvss="7.7" data-kind="vulnerability" data-label="IAM Misconfiguration" data-node-id="vuln_secrets_iam" data-severity="high"><rect x="1663.23" y="178.15" width="165.53" height="59.7" rx="10" fill="#e74c3c" stroke="#1e293b" stroke-width="1" filter="url(#usv-shadow-0)" /><text x="1746" y="202.15" text-anchor="middle" font-size="13" fill="#ffffff">IAM Misconfiguration</text><text x="1746" y="221" text-anchor="middle" font-size="13" fill="#ffffff">CVSS 7.7* · High</text></g><g class="usv-node usv-node--privilege" data-kind="privilege" data-label="WAF Bypass" data-node-id="priv_waf_access"><rect x="605" y="553.15" width="116" height="59.7" rx="29.85" fill="#e08e0b" stroke="#1e293b" stroke-width="1" filter="url(#usv-shadow-0)" /><text x="663" y="577.15" text-anchor="middle" font-size="13" fill="#1f2937">WAF Bypass</text><text x="663" y="596" text-anchor="middle" font-size="13" fill="#1f2937">[bypass]</text></g><g class="usv-node usv-node--privilege" data-kind="privilege" data-label="Web User Shell" data-node-id="priv_web_user"><rect x="1140.85" y="553.15" width="128.3" height="59.7" rx="29.85" fill="#e08e0b" stroke="#1e293b" stroke-width="1" filter="url(#usv-shadow-0)" /><text x="1205" y="577.15" text-anchor="middle" font-size="13" fill="#1f2937">Web User Shell</text><text x="1205" y="596" text-anchor="middle" font-size="13" fill="#1f2937">[user]</text></g><g class="usv-node usv-node--privilege" data-kind="privilege" data-label="Lambda Execution" data-node-id="priv_app_exec"><rect x="1671.06" y="553.15" width="149.88" height="59.7" rx="29.85" fill="#e08e0b" stroke="#1e293b" stroke-width="1" filter="url(#usv-shadow-0)" /><text x="1746" y="577.15" text-anchor="middle" font-size="13" fill="#1f2937">Lambda Execution</text><text x="1746" y="596" text-anchor="middle" font-size="13" fill="#1f2937">[function]</text></g><g class="usv-node usv-node--privilege" data-kind="privilege" data-label="Database Read" data-node-id="priv_db_read"><rect x="2092.82" y="507.15" width="128.37" height="59.7" rx="29.85" fill="#e08e0b" stroke="#1e293b" stroke-width="1" filter="url(#usv-shadow-0)" /><text x="2157" y="531.15" text-anchor="middle" font-size="13" fill="#1f2937">Database Read</text><text x="2157" y="550" text-anchor="middle" font-size="13" fill="#1f2937">[read]</text></g><g class="usv-node usv-node--privilege" data-kind="privilege" data-label="Database Admin" data-node-id="priv_db_admin"><rect x="2478.89" y="507.15" width="137.21" height="59.7" rx="29.85" fill="#e08e0b" stroke="#1e293b" stroke-width="1" filter="url(#usv-shadow-0)" /><text x="2547.5" y="531.15" text-anchor="middle" font-size="13" fill="#1f2937">Database Admin</text><text x="2547.5" y="550" text-anchor="middle" font-size="13" fill="#1f2937">[admin]</text></g><g class="usv-node usv-node--privilege" data-kind="privilege" data-label="Secrets Access" data-node-id="priv_secrets_read"><rect x="2093.27" y="596.15" width="127.46" height="59.7" rx="29.85" fill="#e08e0b" stroke="#1e293b" stroke-width="1" filter="url(#usv-shadow-0)" /><text x="2157" y="620.15" text-anchor="middle" font-size="13" fill="#1f2937">Secrets Access</text><text x="2157" y="639" text-anchor="middle" font-size="13" fill="#1f2937">[read]</text></g><g class="usv-node usv-node--service" data-kind="service" data-label="HTTPS" data-node-id="svc_https"><rect x="605" y="464.15" width="116" height="59.7" rx="10" fill="#2f8f4e" stroke="#1e293b" stroke-width="1" filter="url(#usv-shadow-0)" /><text x="663" y="488.15" text-anchor="middle" font-size="13" fill="#ffffff">HTTPS</text><text x="663" y="507" text-anchor="middle" font-size="13" fill="#ffffff">:443</text></g><g class="usv-node usv-node--service" data-kind="service" data-label="HTTP" data-node-id="svc_http"><rect x="1147" y="384.15" width="116" height="59.7" rx="10" fill="#2f8f4e" stroke="#1e293b" stroke-width="1" filter="url(#usv-shadow-0)" /><text x="1205" y="408.15" text-anchor="middle" font-size="13" fill="#ffffff">HTTP</text><text x="1205" y="427" text-anchor="middle" font-size="13" fill="#ffffff">:80</text></g><g class="usv-node usv-node--service" data-kind="service" data-label="REST API" data-node-id="svc_api"><rect x="1461.5" y="337.15" width="116" height="59.7" rx="10" fill="#2f8f4e" stroke="#1e293b" stroke-width="1" filter="url(#usv-shadow-0)" /><text x="1519.5" y="361.15" text-anchor="middle" font-size="13" fill="#ffffff">REST API</text><text x="1519.5" y="380" text-anchor="middle" font-size="13" fill="#ffffff">:443</text></g><g class="usv-node usv-node--service" data-kind="service" data-label="PostgreSQL" data-node-id="svc_postgres"><rect x="1688" y="89.15" width="116" height="59.7" rx="10" fill="#2f8f4e" stroke="#1e293b" stroke-width="1" filter="url(#usv-shadow-0)" /><text x="1746" y="113.15" text-anchor="middle" font-size="13" fill="#ffffff">PostgreSQL</text><text x="1746" y="132" text-anchor="middle" font-size="13" fill="#ffffff">:5432</text></g><g class="usv-node usv-node--exploit" data-kind="exploit" data-label="WAF Encoding Bypass" data-node-id="exploit_waf_bypass"><polygon points="277,508.57 427,508.57 439,520.58 439,537.42 427,549.42 277,549.42 265,537.42 265,520.58" fill="#8e44ad" stroke="#1e293b" stroke-width="1" stroke-linejoin="round" filter="url(#usv-shadow-0)" /><text x="352" y="532.58" text-anchor="middle" font-size="13" fill="#ffffff">WAF Encoding Bypass</text></g><g class="usv-node usv-node--exploit" data-kind="exploit" data-label="SSRF to Internal" data-node-id="exploit_ssrf"><polygon points="896.82,562.58 1007.18,562.58 1019.18,574.58 1019.18,591.43 1007.18,603.43 896.82,603.43 884.82,591.43 884.82,574.58" fill="#8e44ad" stroke="#1e293b" stroke-width="1" stroke-linejoin="round" filter="url(#usv-shadow-0)" /><text x="952" y="586.58" text-anchor="middle" font-size="13" fill="#ffffff">SSRF to Internal</text></g><g class="usv-node usv-node--exploit" data-kind="exploit" data-label="Lambda RCE" data-node-id="exploit_rce"><polygon points="1473.5,562.58 1565.5,562.58 1577.5,574.58 1577.5,591.43 1565.5,603.43 1473.5,603.43 1461.5,591.43 1461.5,574.58" fill="#8e44ad" stroke="#1e293b" stroke-width="1" stroke-linejoin="round" filter="url(#usv-shadow-0)" /><text x="1519.5" y="586.58" text-anchor="middle" font-size="13" fill="#ffffff">Lambda RCE</text></g><g class="usv-node usv-node--exploit" data-kind="exploit" data-label="SQL Injection Attack" data-node-id="exploit_sqli"><polygon points="1891.83,521.58 2030.17,521.58 2042.17,533.58 2042.17,550.43 2030.17,562.43 1891.83,562.43 1879.83,550.43 1879.83,533.58" fill="#8e44ad" stroke="#1e293b" stroke-width="1" stroke-linejoin="round" filter="url(#usv-shadow-0)" /><text x="1961" y="545.58" text-anchor="middle" font-size="13" fill="#ffffff">SQL Injection Attack</text></g><g class="usv-node usv-node--exploit" data-kind="exploit" data-label="IAM Role Abuse" data-node-id="exploit_secrets"><polygon points="1907.8,596.58 2014.2,596.58 2026.2,608.58 2026.2,625.43 2014.2,637.43 1907.8,637.43 1895.8,625.43 1895.8,608.58" fill="#8e44ad" stroke="#1e293b" stroke-width="1" stroke-linejoin="round" filter="url(#usv-shadow-0)" /><text x="1961" y="620.58" text-anchor="middle" font-size="13" fill="#ffffff">IAM Role Abuse</text></g><g class="usv-node usv-node--exploit" data-kind="exploit" data-label="Privilege Escalation" data-node-id="exploit_db_admin"><polygon points="2283.97,516.58 2416.03,516.58 2428.03,528.58 2428.03,545.43 2416.03,557.43 2283.97,557.43 2271.97,545.43 2271.97,528.58" fill="#8e44ad" stroke="#1e293b" stroke-width="1" stroke-linejoin="round" filter="url(#usv-shadow-0)" /><text x="2350" y="540.58" text-anchor="middle" font-size="13" fill="#ffffff">Privilege Escalation</text></g><g class="usv-badge usv-badge--cvss" data-value="4.8"><rect x="725.15" y="367.04" width="28.03" height="16.22" rx="8.11" fill="#0f172a" stroke="#f8fafc" stroke-width="1.62" /><text x="739.16" y="378.8" text-anchor="middle" font-size="10.14" font-weight="bold" fill="#ffffff">4.8</text></g><g class="usv-badge usv-badge--cvss" data-value="9.3"><rect x="1263.96" y="287.04" width="27.79" height="16.22" rx="8.11" fill="#0f172a" stroke="#f8fafc" stroke-width="1.62" /><text x="1277.85" y="298.8" text-anchor="middle" font-size="10.14" font-weight="bold" fill="#ffffff">9.3</text></g><g class="usv-badge usv-badge--cvss" data-value="8.8"><rect x="1594.12" y="240.04" width="27.87" height="16.22" rx="8.11" fill="#0f172a" stroke="#f8fafc" stroke-width="1.62" /><text x="1608.06" y="251.8" text-anchor="middle" font-size="10.14" font-weight="bold" fill="#ffffff">8.8</text></g><g class="usv-badge usv-badge--cvss" data-value="8.1"><rect x="1797.21" y="-7.96" width="27.8" height="16.22" rx="8.11" fill="#0f172a" stroke="#f8fafc" stroke-width="1.62" /><text x="1811.11" y="3.8" text-anchor="middle" font-size="10.14" font-weight="bold" fill="#ffffff">8.1</text></g><g class="usv-badge usv-badge--cvss" data-value="7.7"><rect x="1810.95" y="170.04" width="27.63" height="16.22" rx="8.11" fill="#0f172a" stroke="#f8fafc" stroke-width="1.62" /><text x="1824.77" y="181.8" text-anchor="middle" font-size="10.14" font-weight="bold" fill="#ffffff">7.7</text></g><text x="-22" y="-19.65" text-anchor="start" font-size="15" font-weight="600" fill="#111827" opacity="0.65" letter-spacing="0.4">Cloud Infrastructure Attack Graph</text><g class="usv-edge-label"><text x="190.5" y="461.1" text-anchor="middle" font-size="10" font-weight="600" letter-spacing="0.3" fill="#f8fafc" stroke="#f8fafc" stroke-width="3.2" stroke-linejoin="round">Internet Access</text><text x="190.5" y="461.1" text-anchor="middle" font-size="10" font-weight="600" letter-spacing="0.3" fill="#64748b">Internet Access</text></g><g class="usv-edge-label"><text x="511" y="364.1" text-anchor="middle" font-size="10" font-weight="600" letter-spacing="0.3" fill="#f8fafc" stroke="#f8fafc" stroke-width="3.2" stroke-linejoin="round">Filtered Traffic</text><text x="511" y="364.1" text-anchor="middle" font-size="10" font-weight="600" letter-spacing="0.3" fill="#64748b">Filtered Traffic</text></g><g class="usv-edge-label"><text x="814" y="321.1" text-anchor="middle" font-size="10" font-weight="600" letter-spacing="0.3" fill="#f8fafc" stroke="#f8fafc" stroke-width="3.2" stroke-linejoin="round">Load Balanced</text><text x="814" y="321.1" text-anchor="middle" font-size="10" font-weight="600" letter-spacing="0.3" fill="#64748b">Load Balanced</text></g><g class="usv-edge-label"><text x="1073.5" y="274.1" text-anchor="middle" font-size="10" font-weight="600" letter-spacing="0.3" fill="#f8fafc" stroke="#f8fafc" stroke-width="3.2" stroke-linejoin="round">API Calls</text><text x="1073.5" y="274.1" text-anchor="middle" font-size="10" font-weight="600" letter-spacing="0.3" fill="#64748b">API Calls</text></g><g class="usv-edge-label"><text x="1354.5" y="155.1" text-anchor="middle" font-size="10" font-weight="600" letter-spacing="0.3" fill="#f8fafc" stroke="#f8fafc" stroke-width="3.2" stroke-linejoin="round">DB Connection</text><text x="1354.5" y="155.1" text-anchor="middle" font-size="10" font-weight="600" letter-spacing="0.3" fill="#64748b">DB Connection</text></g><g class="usv-edge-label"><text x="1354.5" y="212.1" text-anchor="middle" font-size="10" font-weight="600" letter-spacing="0.3" fill="#f8fafc" stroke="#f8fafc" stroke-width="3.2" stroke-linejoin="round">Secrets Access</text><text x="1354.5" y="212.1" text-anchor="middle" font-size="10" font-weight="600" letter-spacing="0.3" fill="#64748b">Secrets Access</text></g></svg>