<?xml version="1.0" encoding="UTF-8" standalone="no"?>
<!DOCTYPE svg PUBLIC "-//W3C//DTD SVG 1.1//EN"
 "http://www.w3.org/Graphics/SVG/1.1/DTD/svg11.dtd">
<!-- Generated by graphviz version 2.42.4 (0)
 -->
<!-- Title: Infrastructure_Diagram Pages: 1 -->
<svg width="782pt" height="835pt"
 viewBox="0.00 0.00 782.00 835.38" xmlns="http://www.w3.org/2000/svg" xmlns:xlink="http://www.w3.org/1999/xlink">
<g id="graph0" class="graph" transform="scale(1 1) rotate(0) translate(4 831.38)">
<title>Infrastructure_Diagram</title>
<polygon fill="#1e3a5f" stroke="transparent" points="-4,4 -4,-831.38 778,-831.38 778,4 -4,4"/>
<text text-anchor="middle" x="387" y="-812.18" font-family="Courier New" font-size="14.00" fill="#ffffff">Infrastructure Diagram</text>
<g id="clust1" class="cluster">
<title>cluster_aws</title>
<polygon fill="#2a4a6f" stroke="#4a90d9" stroke-dasharray="5,2" points="8,-8 8,-796.38 766,-796.38 766,-8 8,-8"/>
<text text-anchor="middle" x="387" y="-781.18" font-family="Courier New" font-size="14.00" fill="#90caf9">AWS Cloud</text>
</g>
<g id="clust2" class="cluster">
<title>cluster_edge</title>
<polygon fill="#2a4a6f" stroke="#4a90d9" stroke-dasharray="5,2" points="246,-574.95 246,-765.38 388,-765.38 388,-574.95 246,-574.95"/>
<text text-anchor="middle" x="317" y="-750.18" font-family="Courier New" font-size="14.00" fill="#90caf9">Edge Services</text>
</g>
<g id="clust3" class="cluster">
<title>cluster_us_east</title>
<polygon fill="#2a4a6f" stroke="#4a90d9" stroke-dasharray="5,2" points="130,-16 130,-537.95 758,-537.95 758,-16 130,-16"/>
<text text-anchor="middle" x="444" y="-522.75" font-family="Courier New" font-size="14.00" fill="#90caf9">us&#45;east&#45;1 (N. Virginia)</text>
</g>
<g id="clust4" class="cluster">
<title>cluster_storage</title>
<polygon fill="#2a4a6f" stroke="#4a90d9" stroke-dasharray="5,2" points="138,-397.74 138,-479.16 288,-479.16 288,-397.74 138,-397.74"/>
<text text-anchor="middle" x="213" y="-463.96" font-family="Courier New" font-size="14.00" fill="#90caf9">Storage</text>
</g>
<g id="clust5" class="cluster">
<title>cluster_vpc</title>
<polygon fill="#2a4a6f" stroke="#4a90d9" stroke-dasharray="5,2" points="296,-24 296,-506.95 750,-506.95 750,-24 296,-24"/>
<text text-anchor="middle" x="523" y="-491.75" font-family="Courier New" font-size="14.00" fill="#90caf9">Production VPC 10.0.0.0/16</text>
</g>
<g id="clust6" class="cluster">
<title>cluster_public</title>
<polygon fill="#2a4a6f" stroke="#4a90d9" stroke-dasharray="5,2" points="317,-400.95 317,-475.95 540,-475.95 540,-400.95 317,-400.95"/>
<text text-anchor="middle" x="428.5" y="-460.75" font-family="Courier New" font-size="14.00" fill="#90caf9">Public Subnet 10.0.1.0/24</text>
</g>
<g id="clust7" class="cluster">
<title>cluster_app</title>
<polygon fill="#2a4a6f" stroke="#4a90d9" stroke-dasharray="5,2" points="304,-165.99 304,-349.99 692,-349.99 692,-165.99 304,-165.99"/>
<text text-anchor="middle" x="498" y="-334.79" font-family="Courier New" font-size="14.00" fill="#90caf9">Private Subnet 10.0.2.0/24 &#45; Application Tier</text>
</g>
<g id="clust8" class="cluster">
<title>cluster_data</title>
<polygon fill="#2a4a6f" stroke="#4a90d9" stroke-dasharray="5,2" points="308,-32 308,-119.99 646,-119.99 646,-32 308,-32"/>
<text text-anchor="middle" x="477" y="-104.79" font-family="Courier New" font-size="14.00" fill="#90caf9">Database Subnet 10.0.3.0/24 &#45; Data Tier</text>
</g>
<!-- iam -->
<g id="node1" class="node">
<title>iam</title>
<polygon fill="#0d2a4a" stroke="#ffffff" points="87.94,-417.46 87.94,-436.45 66.89,-449.87 37.11,-449.87 16.06,-436.45 16.06,-417.46 37.11,-404.03 66.89,-404.03 87.94,-417.46"/>
<text text-anchor="middle" x="52" y="-429.95" font-family="Courier New" font-size="10.00" fill="#ffffff">IAM</text>
<text text-anchor="middle" x="52" y="-418.95" font-family="Courier New" font-size="10.00" fill="#ffffff">Roles</text>
</g>
<!-- web1 -->
<g id="node6" class="node">
<title>web1</title>
<polygon fill="#0d2a4a" stroke="#ffffff" points="406.5,-318.99 323.5,-318.99 323.5,-282.99 412.5,-282.99 412.5,-312.99 406.5,-318.99"/>
<polyline fill="none" stroke="#ffffff" points="406.5,-318.99 406.5,-312.99 "/>
<polyline fill="none" stroke="#ffffff" points="412.5,-312.99 406.5,-312.99 "/>
<text text-anchor="middle" x="368" y="-303.99" font-family="Courier New" font-size="10.00" fill="#ffffff">Web Server 1</text>
<text text-anchor="middle" x="368" y="-292.99" font-family="Courier New" font-size="10.00" fill="#ffffff">ec2</text>
</g>
<!-- iam&#45;&gt;web1 -->
<g id="edge12" class="edge">
<title>iam&#45;&gt;web1</title>
<path fill="none" stroke="#4a90d9" stroke-width="1.2" stroke-dasharray="5,2" d="M82.53,-413.99C102.16,-406.3 124,-397.74 124,-397.74 124,-397.74 320,-349.99 320,-349.99 320,-349.99 331.76,-338.23 343.64,-326.35"/>
<polygon fill="#4a90d9" stroke="#4a90d9" stroke-width="1.2" points="350.94,-319.05 347.05,-329.3 347.48,-322.65 343.94,-326.19 343.87,-326.12 343.8,-326.05 347.34,-322.51 340.69,-322.94 350.94,-319.05 350.94,-319.05"/>
<text text-anchor="middle" x="329.5" y="-360.79" font-family="Courier New" font-size="9.00" fill="#90caf9">Instance Profile</text>
</g>
<!-- api_lambda -->
<g id="node8" class="node">
<title>api_lambda</title>
<polygon fill="#0d2a4a" stroke="#ffffff" points="424.34,-191.99 396.17,-209.99 339.83,-209.99 311.66,-191.99 339.83,-173.99 396.17,-173.99 424.34,-191.99"/>
<text text-anchor="middle" x="368" y="-189.49" font-family="Courier New" font-size="10.00" fill="#ffffff">API Handler</text>
</g>
<!-- iam&#45;&gt;api_lambda -->
<g id="edge11" class="edge">
<title>iam&#45;&gt;api_lambda</title>
<path fill="none" stroke="#4a90d9" stroke-width="1.2" stroke-dasharray="5,2" d="M73.4,-407.84C118.88,-369.38 221,-282.99 221,-282.99 221,-282.99 287.83,-242.07 331.37,-215.42"/>
<polygon fill="#4a90d9" stroke="#4a90d9" stroke-width="1.2" points="340,-210.13 333.83,-219.19 335.79,-212.83 331.53,-215.44 331.48,-215.35 331.42,-215.27 335.69,-212.66 329.13,-211.51 340,-210.13 340,-210.13"/>
<text text-anchor="middle" x="258" y="-298.79" font-family="Courier New" font-size="9.00" fill="#90caf9">Execution Role</text>
</g>
<!-- route53 -->
<g id="node2" class="node">
<title>route53</title>
<polygon fill="#0d2a4a" stroke="#ffffff" points="358.5,-734.38 275.5,-734.38 275.5,-698.38 358.5,-698.38 358.5,-734.38"/>
<text text-anchor="middle" x="317" y="-719.38" font-family="Courier New" font-size="10.00" fill="#ffffff">DNS</text>
<text text-anchor="middle" x="317" y="-708.38" font-family="Courier New" font-size="10.00" fill="#ffffff">example.com</text>
</g>
<!-- cloudfront -->
<g id="node3" class="node">
<title>cloudfront</title>
<ellipse fill="#0d2a4a" stroke="#ffffff" cx="317" cy="-604.16" rx="62.87" ry="21.43"/>
<text text-anchor="middle" x="317" y="-607.16" font-family="Courier New" font-size="10.00" fill="#ffffff">CDN</text>
<text text-anchor="middle" x="317" y="-596.16" font-family="Courier New" font-size="10.00" fill="#ffffff">Distribution</text>
</g>
<!-- route53&#45;&gt;cloudfront -->
<g id="edge1" class="edge">
<title>route53&#45;&gt;cloudfront</title>
<path fill="none" stroke="#4a90d9" stroke-width="1.2" d="M317,-698.16C317,-681.53 317,-655.98 317,-635.87"/>
<polygon fill="#4a90d9" stroke="#4a90d9" stroke-width="1.2" points="317,-625.64 321.5,-635.64 317.1,-630.64 317.1,-635.64 317,-635.64 316.9,-635.64 316.9,-630.64 312.5,-635.64 317,-625.64 317,-625.64"/>
</g>
<!-- assets -->
<g id="node4" class="node">
<title>assets</title>
<ellipse fill="#0d2a4a" stroke="#ffffff" cx="213" cy="-426.95" rx="67.35" ry="21.43"/>
<text text-anchor="middle" x="213" y="-429.95" font-family="Courier New" font-size="10.00" fill="#ffffff">S3</text>
<text text-anchor="middle" x="213" y="-418.95" font-family="Courier New" font-size="10.00" fill="#ffffff">assets&#45;bucket</text>
</g>
<!-- cloudfront&#45;&gt;assets -->
<g id="edge3" class="edge">
<title>cloudfront&#45;&gt;assets</title>
<path fill="none" stroke="#4a90d9" stroke-width="1.2" d="M305.07,-583.06C286.7,-552.12 251.41,-492.67 230.26,-457.03"/>
<polygon fill="#4a90d9" stroke="#4a90d9" stroke-width="1.2" points="224.95,-448.08 233.92,-454.39 227.59,-452.33 230.14,-456.63 230.05,-456.68 229.97,-456.74 227.42,-452.44 226.19,-458.98 224.95,-448.08 224.95,-448.08"/>
</g>
<!-- alb -->
<g id="node5" class="node">
<title>alb</title>
<polygon fill="#0d2a4a" stroke="#ffffff" points="471.15,-444.95 372.85,-444.95 337.84,-408.95 506.16,-408.95 471.15,-444.95"/>
<text text-anchor="middle" x="422" y="-424.45" font-family="Courier New" font-size="10.00" fill="#ffffff">Application LB</text>
</g>
<!-- cloudfront&#45;&gt;alb -->
<g id="edge2" class="edge">
<title>cloudfront&#45;&gt;alb</title>
<path fill="none" stroke="#4a90d9" stroke-width="1.2" d="M329.04,-583.06C348.18,-551.13 385.51,-488.84 406.58,-453.68"/>
<polygon fill="#4a90d9" stroke="#4a90d9" stroke-width="1.2" points="411.81,-444.95 410.53,-455.84 409.33,-449.29 406.76,-453.58 406.67,-453.53 406.59,-453.48 409.16,-449.19 402.81,-451.22 411.81,-444.95 411.81,-444.95"/>
</g>
<!-- alb&#45;&gt;web1 -->
<g id="edge4" class="edge">
<title>alb&#45;&gt;web1</title>
<path fill="none" stroke="#4a90d9" stroke-width="1.2" d="M414.49,-408.71C405.42,-387.9 390.08,-352.67 379.51,-328.41"/>
<polygon fill="#4a90d9" stroke="#4a90d9" stroke-width="1.2" points="375.44,-319.08 383.56,-326.45 377.53,-323.62 379.53,-328.21 379.44,-328.25 379.35,-328.29 377.35,-323.7 375.31,-330.04 375.44,-319.08 375.44,-319.08"/>
</g>
<!-- web2 -->
<g id="node7" class="node">
<title>web2</title>
<polygon fill="#0d2a4a" stroke="#ffffff" points="553.5,-318.99 470.5,-318.99 470.5,-282.99 559.5,-282.99 559.5,-312.99 553.5,-318.99"/>
<polyline fill="none" stroke="#ffffff" points="553.5,-318.99 553.5,-312.99 "/>
<polyline fill="none" stroke="#ffffff" points="559.5,-312.99 553.5,-312.99 "/>
<text text-anchor="middle" x="515" y="-303.99" font-family="Courier New" font-size="10.00" fill="#ffffff">Web Server 2</text>
<text text-anchor="middle" x="515" y="-292.99" font-family="Courier New" font-size="10.00" fill="#ffffff">ec2</text>
</g>
<!-- alb&#45;&gt;web2 -->
<g id="edge5" class="edge">
<title>alb&#45;&gt;web2</title>
<path fill="none" stroke="#4a90d9" stroke-width="1.2" d="M434.93,-408.71C450.83,-387.53 477.92,-351.41 496.14,-327.13"/>
<polygon fill="#4a90d9" stroke="#4a90d9" stroke-width="1.2" points="502.18,-319.08 499.78,-329.78 499.26,-323.14 496.26,-327.14 496.18,-327.08 496.1,-327.02 499.1,-323.02 492.58,-324.38 502.18,-319.08 502.18,-319.08"/>
</g>
<!-- web1&#45;&gt;api_lambda -->
<g id="edge6" class="edge">
<title>web1&#45;&gt;api_lambda</title>
<path fill="none" stroke="#4a90d9" stroke-width="1.2" d="M368,-282.8C368,-265.95 368,-240.01 368,-220.33"/>
<polygon fill="#4a90d9" stroke="#4a90d9" stroke-width="1.2" points="368,-210.14 372.5,-220.14 368.1,-215.14 368.1,-220.14 368,-220.14 367.9,-220.14 367.9,-215.14 363.5,-220.14 368,-210.14 368,-210.14"/>
</g>
<!-- redis -->
<g id="node10" class="node">
<title>redis</title>
<polygon fill="#0d2a4a" stroke="#ffffff" points="633.63,-64.49 594.82,-88.98 517.18,-88.98 478.37,-64.49 517.18,-40.01 594.82,-40.01 633.63,-64.49"/>
<text text-anchor="middle" x="556" y="-67.49" font-family="Courier New" font-size="10.00" fill="#ffffff">Session Cache</text>
<text text-anchor="middle" x="556" y="-56.49" font-family="Courier New" font-size="10.00" fill="#ffffff">Redis 7</text>
</g>
<!-- web1&#45;&gt;redis -->
<g id="edge9" class="edge">
<title>web1&#45;&gt;redis</title>
<path fill="none" stroke="#4a90d9" stroke-width="1.2" d="M384.39,-282.64C409.09,-256.48 453,-209.99 453,-209.99 453,-209.99 502.92,-139.96 533.25,-97.4"/>
<polygon fill="#4a90d9" stroke="#4a90d9" stroke-width="1.2" points="536.27,-99.21 539.22,-89.03 530.57,-95.14 536.27,-99.21"/>
<text text-anchor="middle" x="503.5" y="-189.79" font-family="Courier New" font-size="9.00" fill="#90caf9">TCP/6379</text>
</g>
<!-- web2&#45;&gt;api_lambda -->
<g id="edge7" class="edge">
<title>web2&#45;&gt;api_lambda</title>
<path fill="none" stroke="#4a90d9" stroke-width="1.2" d="M491.38,-282.8C466.52,-264.7 427.25,-236.11 399.7,-216.07"/>
<polygon fill="#4a90d9" stroke="#4a90d9" stroke-width="1.2" points="391.56,-210.14 402.29,-212.39 395.66,-213 399.7,-215.94 399.64,-216.02 399.59,-216.1 395.54,-213.16 397,-219.66 391.56,-210.14 391.56,-210.14"/>
</g>
<!-- web2&#45;&gt;redis -->
<g id="edge10" class="edge">
<title>web2&#45;&gt;redis</title>
<path fill="none" stroke="#4a90d9" stroke-width="1.2" d="M530.81,-282.64C554.64,-256.48 597,-209.99 597,-209.99 597,-209.99 597,-165.99 597,-165.99 597,-165.99 581.45,-127.87 569.5,-98.58"/>
<polygon fill="#4a90d9" stroke="#4a90d9" stroke-width="1.2" points="572.63,-96.99 565.61,-89.06 566.15,-99.64 572.63,-96.99"/>
<text text-anchor="middle" x="618.5" y="-189.79" font-family="Courier New" font-size="9.00" fill="#90caf9">TCP/6379</text>
</g>
<!-- postgres -->
<g id="node9" class="node">
<title>postgres</title>
<path fill="#0d2a4a" stroke="#ffffff" d="M415.5,-81.47C415.5,-83.55 394.21,-85.25 368,-85.25 341.79,-85.25 320.5,-83.55 320.5,-81.47 320.5,-81.47 320.5,-47.52 320.5,-47.52 320.5,-45.44 341.79,-43.74 368,-43.74 394.21,-43.74 415.5,-45.44 415.5,-47.52 415.5,-47.52 415.5,-81.47 415.5,-81.47"/>
<path fill="none" stroke="#ffffff" d="M415.5,-81.47C415.5,-79.39 394.21,-77.7 368,-77.7 341.79,-77.7 320.5,-79.39 320.5,-81.47"/>
<text text-anchor="middle" x="368" y="-67.49" font-family="Courier New" font-size="10.00" fill="#ffffff">Primary DB</text>
<text text-anchor="middle" x="368" y="-56.49" font-family="Courier New" font-size="10.00" fill="#ffffff">PostgreSQL 15</text>
</g>
<!-- api_lambda&#45;&gt;postgres -->
<g id="edge8" class="edge">
<title>api_lambda&#45;&gt;postgres</title>
<path fill="none" stroke="#4a90d9" stroke-width="1.2" d="M368,-173.8C368,-153.69 368,-120.02 368,-95.55"/>
<polygon fill="#4a90d9" stroke="#4a90d9" stroke-width="1.2" points="371.5,-95.37 368,-85.37 364.5,-95.37 371.5,-95.37"/>
<text text-anchor="middle" x="389.5" y="-130.79" font-family="Courier New" font-size="9.00" fill="#90caf9">TCP/5432</text>
</g>
</g>
</svg>
