<?xml version="1.0" encoding="UTF-8" standalone="no"?>
<!DOCTYPE svg PUBLIC "-//W3C//DTD SVG 1.1//EN"
 "http://www.w3.org/Graphics/SVG/1.1/DTD/svg11.dtd">
<!-- Generated by graphviz version 2.42.4 (0)
 -->
<!-- Title: APT Intrusion &#45; Cyber Kill Chain Pages: 1 -->
<svg width="1432pt" height="254pt"
 viewBox="0.00 0.00 1431.60 253.60" xmlns="http://www.w3.org/2000/svg" xmlns:xlink="http://www.w3.org/1999/xlink">
<g id="graph0" class="graph" transform="scale(1 1) rotate(0) translate(28.8 224.8)">
<title>APT Intrusion &#45; Cyber Kill Chain</title>
<polygon fill="#f8fafc" stroke="transparent" points="-28.8,28.8 -28.8,-224.8 1402.8,-224.8 1402.8,28.8 -28.8,28.8"/>
<text text-anchor="middle" x="687" y="-179.2" font-family="Helvetica,sans-Serif" font-size="16.00" fill="#334155">APT Intrusion &#45; Cyber Kill Chain</text>
<g id="clust1" class="cluster">
<title>cluster_Reconnaissance</title>
<path fill="#eef2f7" stroke="#cbd5e1" d="M20,-8C20,-8 164,-8 164,-8 170,-8 176,-14 176,-20 176,-20 176,-150 176,-150 176,-156 170,-162 164,-162 164,-162 20,-162 20,-162 14,-162 8,-156 8,-150 8,-150 8,-20 8,-20 8,-14 14,-8 20,-8"/>
<text text-anchor="middle" x="92" y="-147.6" font-family="Helvetica,sans-Serif" font-weight="bold" font-size="13.00" fill="#1e3a5f"> &#160;Reconnaissance &#160;</text>
</g>
<g id="clust2" class="cluster">
<title>cluster_Weaponization</title>
<path fill="#eef2f7" stroke="#cbd5e1" d="M215,-8C215,-8 334,-8 334,-8 340,-8 346,-14 346,-20 346,-20 346,-150 346,-150 346,-156 340,-162 334,-162 334,-162 215,-162 215,-162 209,-162 203,-156 203,-150 203,-150 203,-20 203,-20 203,-14 209,-8 215,-8"/>
<text text-anchor="middle" x="274.5" y="-147.6" font-family="Helvetica,sans-Serif" font-weight="bold" font-size="13.00" fill="#1e3a5f"> &#160;Weaponization &#160;</text>
</g>
<g id="clust3" class="cluster">
<title>cluster_Delivery</title>
<path fill="#eef2f7" stroke="#cbd5e1" d="M385,-8C385,-8 529,-8 529,-8 535,-8 541,-14 541,-20 541,-20 541,-150 541,-150 541,-156 535,-162 529,-162 529,-162 385,-162 385,-162 379,-162 373,-156 373,-150 373,-150 373,-20 373,-20 373,-14 379,-8 385,-8"/>
<text text-anchor="middle" x="457" y="-147.6" font-family="Helvetica,sans-Serif" font-weight="bold" font-size="13.00" fill="#1e3a5f"> &#160;Delivery &#160;</text>
</g>
<g id="clust4" class="cluster">
<title>cluster_Exploitation</title>
<path fill="#eef2f7" stroke="#cbd5e1" d="M580,-8C580,-8 751,-8 751,-8 757,-8 763,-14 763,-20 763,-20 763,-150 763,-150 763,-156 757,-162 751,-162 751,-162 580,-162 580,-162 574,-162 568,-156 568,-150 568,-150 568,-20 568,-20 568,-14 574,-8 580,-8"/>
<text text-anchor="middle" x="665.5" y="-147.6" font-family="Helvetica,sans-Serif" font-weight="bold" font-size="13.00" fill="#1e3a5f"> &#160;Exploitation &#160;</text>
</g>
<g id="clust5" class="cluster">
<title>cluster_Installation</title>
<path fill="#eef2f7" stroke="#cbd5e1" d="M802,-8C802,-8 919,-8 919,-8 925,-8 931,-14 931,-20 931,-20 931,-150 931,-150 931,-156 925,-162 919,-162 919,-162 802,-162 802,-162 796,-162 790,-156 790,-150 790,-150 790,-20 790,-20 790,-14 796,-8 802,-8"/>
<text text-anchor="middle" x="860.5" y="-147.6" font-family="Helvetica,sans-Serif" font-weight="bold" font-size="13.00" fill="#1e3a5f"> &#160;Installation &#160;</text>
</g>
<g id="clust6" class="cluster">
<title>cluster_Command_and_Control</title>
<path fill="#eef2f7" stroke="#cbd5e1" d="M970,-8C970,-8 1143,-8 1143,-8 1149,-8 1155,-14 1155,-20 1155,-20 1155,-150 1155,-150 1155,-156 1149,-162 1143,-162 1143,-162 970,-162 970,-162 964,-162 958,-156 958,-150 958,-150 958,-20 958,-20 958,-14 964,-8 970,-8"/>
<text text-anchor="middle" x="1056.5" y="-147.6" font-family="Helvetica,sans-Serif" font-weight="bold" font-size="13.00" fill="#1e3a5f"> &#160;Command and Control &#160;</text>
</g>
<g id="clust7" class="cluster">
<title>cluster_Actions_on_Objectives</title>
<path fill="#eef2f7" stroke="#cbd5e1" d="M1194,-8C1194,-8 1361,-8 1361,-8 1367,-8 1373,-14 1373,-20 1373,-20 1373,-150 1373,-150 1373,-156 1367,-162 1361,-162 1361,-162 1194,-162 1194,-162 1188,-162 1182,-156 1182,-150 1182,-150 1182,-20 1182,-20 1182,-14 1188,-8 1194,-8"/>
<text text-anchor="middle" x="1277.5" y="-147.6" font-family="Helvetica,sans-Serif" font-weight="bold" font-size="13.00" fill="#1e3a5f"> &#160;Actions on Objectives &#160;</text>
</g>
<!-- T1595 -->
<g id="node1" class="node">
<title>T1595</title>
<path fill="#e0a53f" stroke="#64748b" d="M130.5,-132C130.5,-132 53.5,-132 53.5,-132 47.5,-132 41.5,-126 41.5,-120 41.5,-120 41.5,-96 41.5,-96 41.5,-90 47.5,-84 53.5,-84 53.5,-84 130.5,-84 130.5,-84 136.5,-84 142.5,-90 142.5,-96 142.5,-96 142.5,-120 142.5,-120 142.5,-126 136.5,-132 130.5,-132"/>
<text text-anchor="start" x="75.5" y="-119" font-family="Helvetica,sans-Serif" font-weight="bold" font-size="10.00" fill="#1a2733">T1595</text>
<text text-anchor="start" x="53" y="-105" font-family="Helvetica,sans-Serif" font-size="10.00" fill="#1a2733">Active Scanning</text>
<text text-anchor="start" x="71.5" y="-92.8" font-family="Helvetica,sans-Serif" font-size="9.00" fill="#1a2733">Detected</text>
</g>
<!-- __slot_Weaponization_0 -->
<g id="node3" class="node">
<title>__slot_Weaponization_0</title>
<ellipse fill="#94a3b8" stroke="#94a3b8" stroke-width="0" cx="274" cy="-108" rx="1" ry="1"/>
<text text-anchor="start" x="272" y="-119" font-family="Helvetica,sans-Serif" font-weight="bold" font-size="10.00" fill="#ffffff"> </text>
<text text-anchor="start" x="272" y="-105" font-family="Helvetica,sans-Serif" font-size="10.00" fill="#ffffff"> </text>
<text text-anchor="start" x="272" y="-92.8" font-family="Helvetica,sans-Serif" font-size="9.00" fill="#ffffff"> </text>
</g>
<!-- T1595&#45;&gt;__slot_Weaponization_0 -->
<g id="edge7" class="edge">
<title>T1595&#45;&gt;__slot_Weaponization_0</title>
<path fill="none" stroke="#94a3b8" stroke-width="1.6" d="M142.66,-108C195.94,-108 273,-108 273,-108"/>
</g>
<!-- T1589 -->
<g id="node2" class="node">
<title>T1589</title>
<path fill="#e74c3c" stroke="#64748b" d="M156,-64C156,-64 28,-64 28,-64 22,-64 16,-58 16,-52 16,-52 16,-28 16,-28 16,-22 22,-16 28,-16 28,-16 156,-16 156,-16 162,-16 168,-22 168,-28 168,-28 168,-52 168,-52 168,-58 162,-64 156,-64"/>
<text text-anchor="start" x="75" y="-51" font-family="Helvetica,sans-Serif" font-weight="bold" font-size="10.00" fill="#ffffff">T1589</text>
<text text-anchor="start" x="27" y="-37" font-family="Helvetica,sans-Serif" font-size="10.00" fill="#ffffff">Gather Victim Identity Info</text>
<text text-anchor="start" x="63.5" y="-24.8" font-family="Helvetica,sans-Serif" font-size="9.00" fill="#ffffff">No coverage</text>
</g>
<!-- T1587 -->
<g id="node4" class="node">
<title>T1587</title>
<path fill="#e74c3c" stroke="#64748b" d="M316,-64C316,-64 232,-64 232,-64 226,-64 220,-58 220,-52 220,-52 220,-28 220,-28 220,-22 226,-16 232,-16 232,-16 316,-16 316,-16 322,-16 328,-22 328,-28 328,-28 328,-52 328,-52 328,-58 322,-64 316,-64"/>
<text text-anchor="start" x="257" y="-51" font-family="Helvetica,sans-Serif" font-weight="bold" font-size="10.00" fill="#ffffff">T1587</text>
<text text-anchor="start" x="231" y="-37" font-family="Helvetica,sans-Serif" font-size="10.00" fill="#ffffff">Develop Malware</text>
<text text-anchor="start" x="245.5" y="-24.8" font-family="Helvetica,sans-Serif" font-size="9.00" fill="#ffffff">No coverage</text>
</g>
<!-- T1589&#45;&gt;T1587 -->
<!-- T1566 -->
<g id="node5" class="node">
<title>T1566</title>
<path fill="#27ae60" stroke="#64748b" d="M521,-132C521,-132 393,-132 393,-132 387,-132 381,-126 381,-120 381,-120 381,-96 381,-96 381,-90 387,-84 393,-84 393,-84 521,-84 521,-84 527,-84 533,-90 533,-96 533,-96 533,-120 533,-120 533,-126 527,-132 521,-132"/>
<text text-anchor="start" x="440" y="-119" font-family="Helvetica,sans-Serif" font-weight="bold" font-size="10.00" fill="#ffffff">T1566</text>
<text text-anchor="start" x="392" y="-105" font-family="Helvetica,sans-Serif" font-size="10.00" fill="#ffffff">Spearphishing Attachment</text>
<text text-anchor="start" x="408.5" y="-92.8" font-family="Helvetica,sans-Serif" font-size="9.00" fill="#ffffff">Detected + Mitigated</text>
</g>
<!-- __slot_Weaponization_0&#45;&gt;T1566 -->
<g id="edge8" class="edge">
<title>__slot_Weaponization_0&#45;&gt;T1566</title>
<path fill="none" stroke="#94a3b8" stroke-width="1.6" d="M275,-108C275,-108 325.95,-108 373.78,-108"/>
<polygon fill="#94a3b8" stroke="#94a3b8" stroke-width="1.6" points="380.81,-108 373.81,-111.15 377.31,-108.3 373.81,-108.3 373.81,-108 373.81,-107.7 377.31,-107.7 373.81,-104.85 380.81,-108 380.81,-108"/>
</g>
<!-- __slot_Delivery_1 -->
<!-- T1587&#45;&gt;__slot_Delivery_1 -->
<!-- T1204 -->
<g id="node7" class="node">
<title>T1204</title>
<path fill="#e0a53f" stroke="#64748b" d="M701,-132C701,-132 630,-132 630,-132 624,-132 618,-126 618,-120 618,-120 618,-96 618,-96 618,-90 624,-84 630,-84 630,-84 701,-84 701,-84 707,-84 713,-90 713,-96 713,-96 713,-120 713,-120 713,-126 707,-132 701,-132"/>
<text text-anchor="start" x="649" y="-119" font-family="Helvetica,sans-Serif" font-weight="bold" font-size="10.00" fill="#1a2733">T1204</text>
<text text-anchor="start" x="629.5" y="-105" font-family="Helvetica,sans-Serif" font-size="10.00" fill="#1a2733">User Execution</text>
<text text-anchor="start" x="645" y="-92.8" font-family="Helvetica,sans-Serif" font-size="9.00" fill="#1a2733">Detected</text>
</g>
<!-- T1566&#45;&gt;T1204 -->
<g id="edge9" class="edge">
<title>T1566&#45;&gt;T1204</title>
<path fill="none" stroke="#94a3b8" stroke-width="1.6" d="M533.14,-108C558.84,-108 587.07,-108 610.75,-108"/>
<polygon fill="#94a3b8" stroke="#94a3b8" stroke-width="1.6" points="617.94,-108 610.94,-111.15 614.44,-108.3 610.94,-108.3 610.94,-108 610.94,-107.7 614.44,-107.7 610.94,-104.85 617.94,-108 617.94,-108"/>
</g>
<!-- T1203 -->
<g id="node8" class="node">
<title>T1203</title>
<path fill="#e74c3c" stroke="#64748b" d="M743,-64C743,-64 588,-64 588,-64 582,-64 576,-58 576,-52 576,-52 576,-28 576,-28 576,-22 582,-16 588,-16 588,-16 743,-16 743,-16 749,-16 755,-22 755,-28 755,-28 755,-52 755,-52 755,-58 749,-64 743,-64"/>
<text text-anchor="start" x="649" y="-51" font-family="Helvetica,sans-Serif" font-weight="bold" font-size="10.00" fill="#ffffff">T1203</text>
<text text-anchor="start" x="587.5" y="-37" font-family="Helvetica,sans-Serif" font-size="10.00" fill="#ffffff">Exploitation for Client Execution</text>
<text text-anchor="start" x="637.5" y="-24.8" font-family="Helvetica,sans-Serif" font-size="9.00" fill="#ffffff">No coverage</text>
</g>
<!-- __slot_Delivery_1&#45;&gt;T1203 -->
<!-- T1547 -->
<g id="node9" class="node">
<title>T1547</title>
<path fill="#27ae60" stroke="#64748b" d="M911,-132C911,-132 810,-132 810,-132 804,-132 798,-126 798,-120 798,-120 798,-96 798,-96 798,-90 804,-84 810,-84 810,-84 911,-84 911,-84 917,-84 923,-90 923,-96 923,-96 923,-120 923,-120 923,-126 917,-132 911,-132"/>
<text text-anchor="start" x="844" y="-119" font-family="Helvetica,sans-Serif" font-weight="bold" font-size="10.00" fill="#ffffff">T1547</text>
<text text-anchor="start" x="809.5" y="-105" font-family="Helvetica,sans-Serif" font-size="10.00" fill="#ffffff">Boot/Logon Autostart</text>
<text text-anchor="start" x="812.5" y="-92.8" font-family="Helvetica,sans-Serif" font-size="9.00" fill="#ffffff">Detected + Mitigated</text>
</g>
<!-- T1204&#45;&gt;T1547 -->
<g id="edge10" class="edge">
<title>T1204&#45;&gt;T1547</title>
<path fill="none" stroke="#94a3b8" stroke-width="1.6" d="M713.22,-108C736.47,-108 765.03,-108 790.72,-108"/>
<polygon fill="#94a3b8" stroke="#94a3b8" stroke-width="1.6" points="797.89,-108 790.89,-111.15 794.39,-108.3 790.89,-108.3 790.89,-108 790.89,-107.7 794.39,-107.7 790.89,-104.85 797.89,-108 797.89,-108"/>
</g>
<!-- __slot_Installation_1 -->
<!-- T1203&#45;&gt;__slot_Installation_1 -->
<!-- T1071 -->
<g id="node11" class="node">
<title>T1071</title>
<path fill="#e0a53f" stroke="#64748b" d="M1119,-132C1119,-132 993,-132 993,-132 987,-132 981,-126 981,-120 981,-120 981,-96 981,-96 981,-90 987,-84 993,-84 993,-84 1119,-84 1119,-84 1125,-84 1131,-90 1131,-96 1131,-96 1131,-120 1131,-120 1131,-126 1125,-132 1119,-132"/>
<text text-anchor="start" x="1039" y="-119" font-family="Helvetica,sans-Serif" font-weight="bold" font-size="10.00" fill="#1a2733">T1071</text>
<text text-anchor="start" x="992" y="-105" font-family="Helvetica,sans-Serif" font-size="10.00" fill="#1a2733">Application Layer Protocol</text>
<text text-anchor="start" x="1035" y="-92.8" font-family="Helvetica,sans-Serif" font-size="9.00" fill="#1a2733">Detected</text>
</g>
<!-- T1547&#45;&gt;T1071 -->
<g id="edge11" class="edge">
<title>T1547&#45;&gt;T1071</title>
<path fill="none" stroke="#94a3b8" stroke-width="1.6" d="M923.26,-108C939.32,-108 956.87,-108 973.78,-108"/>
<polygon fill="#94a3b8" stroke="#94a3b8" stroke-width="1.6" points="980.98,-108 973.98,-111.15 977.48,-108.3 973.98,-108.3 973.98,-108 973.98,-107.7 977.48,-107.7 973.98,-104.85 980.98,-108 980.98,-108"/>
</g>
<!-- __slot_Command_and_Control_1 -->
<!-- __slot_Installation_1&#45;&gt;__slot_Command_and_Control_1 -->
<!-- T1041 -->
<g id="node13" class="node">
<title>T1041</title>
<path fill="#e74c3c" stroke="#64748b" d="M1346,-132C1346,-132 1209,-132 1209,-132 1203,-132 1197,-126 1197,-120 1197,-120 1197,-96 1197,-96 1197,-90 1203,-84 1209,-84 1209,-84 1346,-84 1346,-84 1352,-84 1358,-90 1358,-96 1358,-96 1358,-120 1358,-120 1358,-126 1352,-132 1346,-132"/>
<text text-anchor="start" x="1261" y="-119" font-family="Helvetica,sans-Serif" font-weight="bold" font-size="10.00" fill="#ffffff">T1041</text>
<text text-anchor="start" x="1208.5" y="-105" font-family="Helvetica,sans-Serif" font-size="10.00" fill="#ffffff">Exfiltration Over C2 Channel</text>
<text text-anchor="start" x="1249.5" y="-92.8" font-family="Helvetica,sans-Serif" font-size="9.00" fill="#ffffff">No coverage</text>
</g>
<!-- T1071&#45;&gt;T1041 -->
<g id="edge12" class="edge">
<title>T1071&#45;&gt;T1041</title>
<path fill="none" stroke="#94a3b8" stroke-width="1.6" d="M1131.01,-108C1149.85,-108 1170.27,-108 1189.69,-108"/>
<polygon fill="#94a3b8" stroke="#94a3b8" stroke-width="1.6" points="1196.8,-108 1189.8,-111.15 1193.3,-108.3 1189.8,-108.3 1189.8,-108 1189.8,-107.7 1193.3,-107.7 1189.8,-104.85 1196.8,-108 1196.8,-108"/>
</g>
<!-- T1486 -->
<g id="node14" class="node">
<title>T1486</title>
<path fill="#e0a53f" stroke="#64748b" d="M1341,-64C1341,-64 1214,-64 1214,-64 1208,-64 1202,-58 1202,-52 1202,-52 1202,-28 1202,-28 1202,-22 1208,-16 1214,-16 1214,-16 1341,-16 1341,-16 1347,-16 1353,-22 1353,-28 1353,-28 1353,-52 1353,-52 1353,-58 1347,-64 1341,-64"/>
<text text-anchor="start" x="1261" y="-51" font-family="Helvetica,sans-Serif" font-weight="bold" font-size="10.00" fill="#1a2733">T1486</text>
<text text-anchor="start" x="1213.5" y="-37" font-family="Helvetica,sans-Serif" font-size="10.00" fill="#1a2733">Data Encrypted for Impact</text>
<text text-anchor="start" x="1257" y="-24.8" font-family="Helvetica,sans-Serif" font-size="9.00" fill="#1a2733">Detected</text>
</g>
<!-- __slot_Command_and_Control_1&#45;&gt;T1486 -->
</g>
</svg>
