<?xml version="1.0" encoding="UTF-8" standalone="no"?>
<!DOCTYPE svg PUBLIC "-//W3C//DTD SVG 1.1//EN"
 "http://www.w3.org/Graphics/SVG/1.1/DTD/svg11.dtd">
<!-- Generated by graphviz version 2.42.4 (0)
 -->
<!-- Title: IoT System Pages: 1 -->
<svg width="1155pt" height="366pt"
 viewBox="0.00 0.00 1155.00 366.00" xmlns="http://www.w3.org/2000/svg" xmlns:xlink="http://www.w3.org/1999/xlink">
<g id="graph0" class="graph" transform="scale(1 1) rotate(0) translate(4 362)">
<title>IoT System</title>
<polygon fill="white" stroke="transparent" points="-4,4 -4,-362 1151,-362 1151,4 -4,4"/>
<g id="clust1" class="cluster">
<title>cluster_field</title>
<polygon fill="white" stroke="#e74c3c" stroke-width="2" stroke-dasharray="5,2" points="0,-169 0,-298 164,-298 164,-169 0,-169"/>
<text text-anchor="middle" x="82" y="-282.8" font-family="Arial" font-size="14.00">Field Network (Insecure)</text>
</g>
<g id="clust2" class="cluster">
<title>cluster_edge_zone</title>
<polygon fill="white" stroke="#e74c3c" stroke-width="2" stroke-dasharray="5,2" points="264.5,-199 264.5,-274 386.5,-274 386.5,-199 264.5,-199"/>
<text text-anchor="middle" x="325.5" y="-258.8" font-family="Arial" font-size="14.00">Edge Zone</text>
</g>
<g id="clust3" class="cluster">
<title>cluster_cloud_dmz</title>
<polygon fill="white" stroke="#e74c3c" stroke-width="2" stroke-dasharray="5,2" points="498,-91 498,-274 648,-274 648,-91 498,-91"/>
<text text-anchor="middle" x="573" y="-258.8" font-family="Arial" font-size="14.00">Cloud DMZ</text>
</g>
<g id="clust4" class="cluster">
<title>cluster_cloud_internal</title>
<polygon fill="white" stroke="#e74c3c" stroke-width="2" stroke-dasharray="5,2" points="749,-163 749,-346 881,-346 881,-163 749,-163"/>
<text text-anchor="middle" x="815" y="-330.8" font-family="Arial" font-size="14.00">Cloud Internal</text>
</g>
<g id="clust5" class="cluster">
<title>cluster_data_layer</title>
<polygon fill="white" stroke="#e74c3c" stroke-width="2" stroke-dasharray="5,2" points="977,-59 977,-350 1139,-350 1139,-59 977,-59"/>
<text text-anchor="middle" x="1058" y="-334.8" font-family="Arial" font-size="14.00">Data Layer</text>
</g>
<g id="clust6" class="cluster">
<title>cluster_external</title>
<polygon fill="white" stroke="#e74c3c" stroke-width="2" stroke-dasharray="5,2" points="242,-8 242,-191 409,-191 409,-8 242,-8"/>
<text text-anchor="middle" x="325.5" y="-175.8" font-family="Arial" font-size="14.00">External Networks</text>
</g>
<!-- iot_device_1 -->
<g id="node1" class="node">
<title>iot_device_1</title>
<polygon fill="#95a5a6" stroke="black" stroke-dasharray="5,2" points="131.5,-267 31.5,-267 31.5,-231 131.5,-231 131.5,-267"/>
<text text-anchor="middle" x="81.5" y="-245.3" font-family="Arial" font-size="14.00" fill="white">Smart Sensor</text>
</g>
<!-- edge_gateway -->
<g id="node3" class="node">
<title>edge_gateway</title>
<polygon fill="#3498db" stroke="black" points="378.5,-243 272.5,-243 272.5,-207 378.5,-207 378.5,-243"/>
<text text-anchor="middle" x="325.5" y="-221.3" font-family="Arial" font-size="14.00" fill="white">Edge Gateway</text>
</g>
<!-- iot_device_1&#45;&gt;edge_gateway -->
<g id="edge1" class="edge">
<title>iot_device_1&#45;&gt;edge_gateway</title>
<path fill="none" stroke="#34495e" d="M131.76,-244.11C169.47,-240.37 221.73,-235.19 262.32,-231.17"/>
<polygon fill="#34495e" stroke="#34495e" points="262.77,-234.64 272.38,-230.17 262.08,-227.67 262.77,-234.64"/>
<text text-anchor="middle" x="203" y="-242" font-family="Arial" font-size="10.00">CoAP/MQTT</text>
</g>
<!-- iot_device_2 -->
<g id="node2" class="node">
<title>iot_device_2</title>
<polygon fill="#95a5a6" stroke="black" stroke-dasharray="5,2" points="135,-213 28,-213 28,-177 135,-177 135,-213"/>
<text text-anchor="middle" x="81.5" y="-191.3" font-family="Arial" font-size="14.00" fill="white">Smart Actuator</text>
</g>
<!-- iot_device_2&#45;&gt;edge_gateway -->
<g id="edge2" class="edge">
<title>iot_device_2&#45;&gt;edge_gateway</title>
<path fill="none" stroke="#34495e" d="M135.01,-201.51C172.35,-206.14 222.67,-212.38 262.07,-217.26"/>
<polygon fill="#34495e" stroke="#34495e" points="261.74,-220.75 272.09,-218.5 262.6,-213.8 261.74,-220.75"/>
<text text-anchor="middle" x="203" y="-215" font-family="Arial" font-size="10.00">CoAP/MQTT</text>
</g>
<!-- mqtt_broker -->
<g id="node4" class="node">
<title>mqtt_broker</title>
<polygon fill="#3498db" stroke="black" points="623,-243 523,-243 523,-207 623,-207 623,-243"/>
<text text-anchor="middle" x="573" y="-221.3" font-family="Arial" font-size="14.00" fill="white">MQTT Broker</text>
</g>
<!-- edge_gateway&#45;&gt;mqtt_broker -->
<g id="edge3" class="edge">
<title>edge_gateway&#45;&gt;mqtt_broker</title>
<path fill="none" stroke="#34495e" d="M378.56,-225C417.88,-225 471.87,-225 512.82,-225"/>
<polygon fill="#34495e" stroke="#34495e" points="512.94,-228.5 522.94,-225 512.94,-221.5 512.94,-228.5"/>
<text text-anchor="middle" x="453.5" y="-228" font-family="Arial" font-size="10.00">MQTT (TLS)</text>
</g>
<!-- ota_server -->
<g id="node6" class="node">
<title>ota_server</title>
<polygon fill="#3498db" stroke="black" points="640,-189 506,-189 506,-153 640,-153 640,-189"/>
<text text-anchor="middle" x="573" y="-167.3" font-family="Arial" font-size="14.00" fill="white">OTA Update Server</text>
</g>
<!-- edge_gateway&#45;&gt;ota_server -->
<g id="edge15" class="edge">
<title>edge_gateway&#45;&gt;ota_server</title>
<path fill="none" stroke="#34495e" d="M378.56,-213.55C412.67,-206.05 457.83,-196.11 495.94,-187.73"/>
<polygon fill="#34495e" stroke="#34495e" points="496.95,-191.09 505.97,-185.52 495.45,-184.25 496.95,-191.09"/>
<text text-anchor="middle" x="453.5" y="-207" font-family="Arial" font-size="10.00">Check Updates</text>
</g>
<!-- data_processor -->
<g id="node8" class="node">
<title>data_processor</title>
<polygon fill="#3498db" stroke="black" points="870,-261 760,-261 760,-225 870,-225 870,-261"/>
<text text-anchor="middle" x="815" y="-239.3" font-family="Arial" font-size="14.00" fill="white">Data Processor</text>
</g>
<!-- mqtt_broker&#45;&gt;data_processor -->
<g id="edge4" class="edge">
<title>mqtt_broker&#45;&gt;data_processor</title>
<path fill="none" stroke="#34495e" d="M623.15,-228.69C659.73,-231.43 710.01,-235.2 749.77,-238.18"/>
<polygon fill="#34495e" stroke="#34495e" points="749.67,-241.68 759.9,-238.94 750.19,-234.7 749.67,-241.68"/>
<text text-anchor="middle" x="698.5" y="-240" font-family="Arial" font-size="10.00">Subscribe</text>
</g>
<!-- api_server -->
<g id="node5" class="node">
<title>api_server</title>
<polygon fill="#3498db" stroke="black" points="614,-135 532,-135 532,-99 614,-99 614,-135"/>
<text text-anchor="middle" x="573" y="-113.3" font-family="Arial" font-size="14.00" fill="white">API Server</text>
</g>
<!-- device_manager -->
<g id="node7" class="node">
<title>device_manager</title>
<polygon fill="#3498db" stroke="black" points="873,-315 757,-315 757,-279 873,-279 873,-315"/>
<text text-anchor="middle" x="815" y="-293.3" font-family="Arial" font-size="14.00" fill="white">Device Manager</text>
</g>
<!-- api_server&#45;&gt;device_manager -->
<g id="edge11" class="edge">
<title>api_server&#45;&gt;device_manager</title>
<path fill="none" stroke="#34495e" d="M614.21,-121.71C652.93,-128.55 709.79,-145.14 739,-185 761.48,-215.68 726.07,-239.65 749,-270 749.47,-270.62 749.96,-271.23 750.46,-271.82"/>
<polygon fill="#34495e" stroke="#34495e" points="748.12,-274.43 757.79,-278.78 752.94,-269.36 748.12,-274.43"/>
<text text-anchor="middle" x="698.5" y="-188" font-family="Arial" font-size="10.00">gRPC</text>
</g>
<!-- time_series_db -->
<g id="node10" class="node">
<title>time_series_db</title>
<path fill="#2ecc71" stroke="black" d="M1114,-261.73C1114,-263.53 1088.9,-265 1058,-265 1027.1,-265 1002,-263.53 1002,-261.73 1002,-261.73 1002,-232.27 1002,-232.27 1002,-230.47 1027.1,-229 1058,-229 1088.9,-229 1114,-230.47 1114,-232.27 1114,-232.27 1114,-261.73 1114,-261.73"/>
<path fill="none" stroke="black" d="M1114,-261.73C1114,-259.92 1088.9,-258.45 1058,-258.45 1027.1,-258.45 1002,-259.92 1002,-261.73"/>
<text text-anchor="middle" x="1058" y="-243.3" font-family="Arial" font-size="14.00" fill="white">Time Series DB</text>
</g>
<!-- api_server&#45;&gt;time_series_db -->
<g id="edge13" class="edge">
<title>api_server&#45;&gt;time_series_db</title>
<path fill="none" stroke="#34495e" d="M614.32,-118.02C709.45,-120.81 941.8,-130.03 967,-154 988.49,-174.45 957.94,-197.27 977,-220 981.37,-225.21 986.78,-229.41 992.71,-232.81"/>
<polygon fill="#34495e" stroke="#34495e" points="991.19,-235.97 1001.71,-237.23 994.27,-229.68 991.19,-235.97"/>
<text text-anchor="middle" x="815" y="-136" font-family="Arial" font-size="10.00">Read Metrics</text>
</g>
<!-- firmware_storage -->
<g id="node13" class="node">
<title>firmware_storage</title>
<path fill="#2ecc71" stroke="black" d="M1120.5,-99.73C1120.5,-101.53 1092.49,-103 1058,-103 1023.51,-103 995.5,-101.53 995.5,-99.73 995.5,-99.73 995.5,-70.27 995.5,-70.27 995.5,-68.47 1023.51,-67 1058,-67 1092.49,-67 1120.5,-68.47 1120.5,-70.27 1120.5,-70.27 1120.5,-99.73 1120.5,-99.73"/>
<path fill="none" stroke="black" d="M1120.5,-99.73C1120.5,-97.92 1092.49,-96.45 1058,-96.45 1023.51,-96.45 995.5,-97.92 995.5,-99.73"/>
<text text-anchor="middle" x="1058" y="-81.3" font-family="Arial" font-size="14.00" fill="white">Firmware Storage</text>
</g>
<!-- ota_server&#45;&gt;firmware_storage -->
<g id="edge14" class="edge">
<title>ota_server&#45;&gt;firmware_storage</title>
<path fill="none" stroke="#34495e" d="M624.27,-153C632.23,-150.05 640.36,-146.98 648,-144 693.29,-126.33 701.61,-112.83 749,-102 828.38,-83.87 922.1,-81.27 985.14,-82.16"/>
<polygon fill="#34495e" stroke="#34495e" points="985.32,-85.66 995.38,-82.34 985.44,-78.67 985.32,-85.66"/>
<text text-anchor="middle" x="815" y="-105" font-family="Arial" font-size="10.00">Get Firmware</text>
</g>
<!-- device_registry -->
<g id="node11" class="node">
<title>device_registry</title>
<path fill="#2ecc71" stroke="black" d="M1113.5,-315.73C1113.5,-317.53 1088.62,-319 1058,-319 1027.38,-319 1002.5,-317.53 1002.5,-315.73 1002.5,-315.73 1002.5,-286.27 1002.5,-286.27 1002.5,-284.47 1027.38,-283 1058,-283 1088.62,-283 1113.5,-284.47 1113.5,-286.27 1113.5,-286.27 1113.5,-315.73 1113.5,-315.73"/>
<path fill="none" stroke="black" d="M1113.5,-315.73C1113.5,-313.92 1088.62,-312.45 1058,-312.45 1027.38,-312.45 1002.5,-313.92 1002.5,-315.73"/>
<text text-anchor="middle" x="1058" y="-297.3" font-family="Arial" font-size="14.00" fill="white">Device Registry</text>
</g>
<!-- device_manager&#45;&gt;device_registry -->
<g id="edge12" class="edge">
<title>device_manager&#45;&gt;device_registry</title>
<path fill="none" stroke="#34495e" d="M873.11,-297.95C908.87,-298.54 955.02,-299.31 992.15,-299.92"/>
<polygon fill="#34495e" stroke="#34495e" points="992.31,-303.43 1002.37,-300.09 992.43,-296.43 992.31,-303.43"/>
<text text-anchor="middle" x="929" y="-302" font-family="Arial" font-size="10.00">Query</text>
</g>
<!-- data_processor&#45;&gt;time_series_db -->
<g id="edge5" class="edge">
<title>data_processor&#45;&gt;time_series_db</title>
<path fill="none" stroke="#34495e" d="M870.09,-243.9C905.98,-244.49 953.32,-245.28 991.37,-245.91"/>
<polygon fill="#34495e" stroke="#34495e" points="991.79,-249.42 1001.84,-246.08 991.9,-242.42 991.79,-249.42"/>
<text text-anchor="middle" x="929" y="-248" font-family="Arial" font-size="10.00">Write Metrics</text>
</g>
<!-- event_stream -->
<g id="node14" class="node">
<title>event_stream</title>
<path fill="#2ecc71" stroke="black" d="M1131,-153.73C1131,-155.53 1098.28,-157 1058,-157 1017.72,-157 985,-155.53 985,-153.73 985,-153.73 985,-124.27 985,-124.27 985,-122.47 1017.72,-121 1058,-121 1098.28,-121 1131,-122.47 1131,-124.27 1131,-124.27 1131,-153.73 1131,-153.73"/>
<path fill="none" stroke="black" d="M1131,-153.73C1131,-151.92 1098.28,-150.45 1058,-150.45 1017.72,-150.45 985,-151.92 985,-153.73"/>
<text text-anchor="middle" x="1058" y="-135.3" font-family="Arial" font-size="14.00" fill="white">Event Stream (Kafka)</text>
</g>
<!-- data_processor&#45;&gt;event_stream -->
<g id="edge6" class="edge">
<title>data_processor&#45;&gt;event_stream</title>
<path fill="none" stroke="#34495e" d="M870.24,-233.48C901.66,-225.59 940.18,-211.53 967,-187 974.63,-180.02 969.27,-172.86 977,-166 978.92,-164.3 980.95,-162.7 983.07,-161.2"/>
<polygon fill="#34495e" stroke="#34495e" points="984.95,-164.15 991.61,-155.92 981.27,-158.2 984.95,-164.15"/>
<text text-anchor="middle" x="929" y="-230" font-family="Arial" font-size="10.00">Publish Events</text>
</g>
<!-- rule_engine -->
<g id="node9" class="node">
<title>rule_engine</title>
<polygon fill="#3498db" stroke="black" points="860,-207 770,-207 770,-171 860,-171 860,-207"/>
<text text-anchor="middle" x="815" y="-185.3" font-family="Arial" font-size="14.00" fill="white">Rule Engine</text>
</g>
<!-- rule_engine&#45;&gt;mqtt_broker -->
<g id="edge8" class="edge">
<title>rule_engine&#45;&gt;mqtt_broker</title>
<path fill="none" stroke="#34495e" d="M769.77,-195.63C731.4,-201.39 675.54,-209.77 633.3,-216.11"/>
<polygon fill="#34495e" stroke="#34495e" points="632.52,-212.68 623.15,-217.63 633.56,-219.61 632.52,-212.68"/>
<text text-anchor="middle" x="698.5" y="-215" font-family="Arial" font-size="10.00">Command Publish</text>
</g>
<!-- config_store -->
<g id="node12" class="node">
<title>config_store</title>
<path fill="#2ecc71" stroke="black" d="M1104,-207.73C1104,-209.53 1083.38,-211 1058,-211 1032.62,-211 1012,-209.53 1012,-207.73 1012,-207.73 1012,-178.27 1012,-178.27 1012,-176.47 1032.62,-175 1058,-175 1083.38,-175 1104,-176.47 1104,-178.27 1104,-178.27 1104,-207.73 1104,-207.73"/>
<path fill="none" stroke="black" d="M1104,-207.73C1104,-205.92 1083.38,-204.45 1058,-204.45 1032.62,-204.45 1012,-205.92 1012,-207.73"/>
<text text-anchor="middle" x="1058" y="-189.3" font-family="Arial" font-size="14.00" fill="white">Config Store</text>
</g>
<!-- event_stream&#45;&gt;rule_engine -->
<g id="edge7" class="edge">
<title>event_stream&#45;&gt;rule_engine</title>
<path fill="none" stroke="#34495e" d="M984.69,-154C947.99,-161.62 904.14,-170.71 870.35,-177.72"/>
<polygon fill="#34495e" stroke="#34495e" points="869.28,-174.37 860.2,-179.83 870.71,-181.22 869.28,-174.37"/>
<text text-anchor="middle" x="929" y="-175" font-family="Arial" font-size="10.00">Consume Events</text>
</g>
<!-- mobile_app -->
<g id="node15" class="node">
<title>mobile_app</title>
<polygon fill="#95a5a6" stroke="black" stroke-dasharray="5,2" points="367.5,-160 283.5,-160 283.5,-124 367.5,-124 367.5,-160"/>
<text text-anchor="middle" x="325.5" y="-138.3" font-family="Arial" font-size="14.00" fill="white">Mobile App</text>
</g>
<!-- mobile_app&#45;&gt;api_server -->
<g id="edge9" class="edge">
<title>mobile_app&#45;&gt;api_server</title>
<path fill="none" stroke="#34495e" d="M367.59,-137.82C410.1,-133.49 476.53,-126.72 522.05,-122.09"/>
<polygon fill="#34495e" stroke="#34495e" points="522.4,-125.57 532,-121.07 521.69,-118.6 522.4,-125.57"/>
<text text-anchor="middle" x="453.5" y="-135" font-family="Arial" font-size="10.00">HTTPS/REST</text>
</g>
<!-- admin_dashboard -->
<g id="node16" class="node">
<title>admin_dashboard</title>
<polygon fill="#95a5a6" stroke="black" stroke-dasharray="5,2" points="388,-106 263,-106 263,-70 388,-70 388,-106"/>
<text text-anchor="middle" x="325.5" y="-84.3" font-family="Arial" font-size="14.00" fill="white">Admin Dashboard</text>
</g>
<!-- admin_dashboard&#45;&gt;api_server -->
<g id="edge10" class="edge">
<title>admin_dashboard&#45;&gt;api_server</title>
<path fill="none" stroke="#34495e" d="M388.13,-95.28C429.46,-100.16 483.21,-106.51 521.9,-111.08"/>
<polygon fill="#34495e" stroke="#34495e" points="521.56,-114.57 531.9,-112.26 522.38,-107.61 521.56,-114.57"/>
<text text-anchor="middle" x="453.5" y="-109" font-family="Arial" font-size="10.00">HTTPS/REST</text>
</g>
<!-- third_party_integration -->
<g id="node17" class="node">
<title>third_party_integration</title>
<polygon fill="#95a5a6" stroke="black" stroke-dasharray="5,2" points="401,-52 250,-52 250,-16 401,-16 401,-52"/>
<text text-anchor="middle" x="325.5" y="-30.3" font-family="Arial" font-size="14.00" fill="white">Third&#45;Party Integration</text>
</g>
<!-- third_party_integration&#45;&gt;api_server -->
<g id="edge16" class="edge">
<title>third_party_integration&#45;&gt;api_server</title>
<path fill="none" stroke="#34495e" d="M388.59,-52.05C418.76,-61.12 455.46,-72.59 488,-84 499.09,-87.89 510.9,-92.33 522.05,-96.67"/>
<polygon fill="#34495e" stroke="#34495e" points="521.05,-100.04 531.64,-100.44 523.61,-93.53 521.05,-100.04"/>
<text text-anchor="middle" x="453.5" y="-87" font-family="Arial" font-size="10.00">Webhook/API</text>
</g>
</g>
</svg>
