<?xml version="1.0" encoding="UTF-8" standalone="no"?>
<svg xmlns="http://www.w3.org/2000/svg" width="1561.5" height="806" viewBox="-48 -40 1561.5 806" preserveAspectRatio="xMidYMid meet" class="usv-svg usv-dfd" data-usv-engine="svg" data-usv-module="dfd" data-usv-theme="sv_corporate"><defs><marker id="usv-arrow-0" viewBox="0 0 10 10" refX="9" refY="5" markerWidth="7" markerHeight="7" orient="auto-start-reverse"><path d="M 0 1 L 9 5 L 0 9 z" fill="#6b7b8c" /></marker></defs><style type="text/css">
.usv-dfd text { font-family: Calibri, Carlito, Segoe UI, Arial, sans-serif; }
</style><rect x="-48" y="-40" width="1561.5" height="806" rx="0" fill="#ffffff" stroke="none" stroke-width="0" /><g class="usv-cluster" data-cluster-id="internet" data-label="Internet (Untrusted)"><rect x="0" y="393" width="164" height="147" rx="6" fill="#fbeeee" stroke="#b83227" stroke-width="1.6" stroke-dasharray="7 4" /><text x="6" y="407" text-anchor="start" font-size="12" fill="#7f1d1d" font-weight="bold">Internet (Untrusted)</text></g><g class="usv-cluster" data-cluster-id="external_services" data-label="External Services"><rect x="1304" y="8" width="158" height="215" rx="6" fill="#fbeeee" stroke="#b83227" stroke-width="1.6" stroke-dasharray="7 4" /><text x="1310" y="22" text-anchor="start" font-size="12" fill="#7f1d1d" font-weight="bold">External Services</text></g><g class="usv-cluster" data-cluster-id="dmz" data-label="DMZ / Edge"><rect x="296" y="393" width="372" height="147" rx="6" fill="#fbeeee" stroke="#b83227" stroke-width="1.6" stroke-dasharray="7 4" /><text x="302" y="407" text-anchor="start" font-size="12" fill="#7f1d1d" font-weight="bold">DMZ / Edge</text></g><g class="usv-cluster" data-cluster-id="application_tier" data-label="Application Services"><rect x="787" y="223" width="403" height="351" rx="6" fill="#fbeeee" stroke="#b83227" stroke-width="1.6" stroke-dasharray="7 4" /><text x="793" y="237" text-anchor="start" font-size="12" fill="#7f1d1d" font-weight="bold">Application Services</text></g><g class="usv-cluster" data-cluster-id="data_tier" data-label="Data Tier (PCI Zone)"><rect x="1301.5" y="231" width="164" height="487" rx="6" fill="#fbeeee" stroke="#b83227" stroke-width="1.6" stroke-dasharray="7 4" /><text x="1307.5" y="245" text-anchor="start" font-size="12" fill="#7f1d1d" font-weight="bold">Data Tier (PCI Zone)</text></g><g class="usv-edge usv-edge--dataflow" data-from="customer" data-to="web_frontend"><path d="M 142.04 444 C 186.28 444 246.97 444 293.55 444 L 303.56 444" fill="none" stroke="#6b7b8c" stroke-width="1.5" stroke-linecap="round" marker-end="url(#usv-arrow-0)" /></g><g class="usv-edge usv-edge--dataflow" data-from="admin_user" data-to="admin_panel"><path d="M 142.04 512 C 186.28 512 246.97 512 293.55 512 L 303.56 512" fill="none" stroke="#6b7b8c" stroke-width="1.5" stroke-linecap="round" marker-end="url(#usv-arrow-0)" /></g><g class="usv-edge usv-edge--dataflow" data-from="web_frontend" data-to="api_gateway"><path d="M 424.05 444 C 456.2 444 496.15 444 529.76 444 L 539.97 444" fill="none" stroke="#6b7b8c" stroke-width="1.5" stroke-linecap="round" marker-end="url(#usv-arrow-0)" /></g><g class="usv-edge usv-edge--dataflow" data-from="api_gateway" data-to="auth_service"><path d="M 660.36 461.02 C 668.58 462.95 676.97 464.68 685 466 C 719.58 471.66 758.42 474.66 790.71 476.24 L 800.95 476.71" fill="none" stroke="#6b7b8c" stroke-width="1.5" stroke-linecap="round" marker-end="url(#usv-arrow-0)" /></g><g class="usv-edge usv-edge--dataflow" data-from="api_gateway" data-to="product_service"><path d="M 660.1 436.24 C 698.91 431.15 749.84 424.46 790.59 419.11 L 800.71 417.78" fill="none" stroke="#6b7b8c" stroke-width="1.5" stroke-linecap="round" marker-end="url(#usv-arrow-0)" /></g><g class="usv-edge usv-edge--dataflow" data-from="api_gateway" data-to="cart_service"><path d="M 627.5 463.52 C 643.5 474.58 664.67 487.97 685 497 C 718.71 511.97 758.13 523.49 791.01 531.58 L 800.99 533.98" fill="none" stroke="#6b7b8c" stroke-width="1.5" stroke-linecap="round" marker-end="url(#usv-arrow-0)" /></g><g class="usv-edge usv-edge--dataflow" data-from="api_gateway" data-to="order_service"><path d="M 635.53 424.29 C 650.48 416.19 668.33 407.07 685 400 C 719.18 385.5 758.31 372.23 790.9 362.05 L 800.79 359" fill="none" stroke="#6b7b8c" stroke-width="1.5" stroke-linecap="round" marker-end="url(#usv-arrow-0)" /></g><g class="usv-edge usv-edge--dataflow" data-from="order_service" data-to="payment_service"><path d="M 921.1 342 C 959.91 342 1010.8 342 1051.6 342 L 1061.7 342" fill="none" stroke="#6b7b8c" stroke-width="1.5" stroke-linecap="round" marker-end="url(#usv-arrow-0)" /></g><g class="usv-edge usv-edge--dataflow" data-from="payment_service" data-to="payment_gateway"><path d="M 1154.9 322.38 C 1166 315.4 1178.6 307.44 1190 300 C 1240.2 267.18 1248.1 251.27 1301.5 224 C 1305.2 222.1 1309.1 220.27 1313 218.51 L 1322.4 214.55" fill="none" stroke="#6b7b8c" stroke-width="1.5" stroke-linecap="round" marker-end="url(#usv-arrow-0)" /></g><g class="usv-edge usv-edge--dataflow" data-from="order_service" data-to="shipping_api"><path d="M 905.53 322.42 C 913.03 318.17 920.5 313.33 927 308 C 940.68 296.77 937.68 287.41 952 277 C 1059.1 199.16 1210.1 158.97 1301.7 140.48 L 1311.8 138.49" fill="none" stroke="#6b7b8c" stroke-width="1.5" stroke-linecap="round" marker-end="url(#usv-arrow-0)" /></g><g class="usv-edge usv-edge--dataflow" data-from="notification_service" data-to="email_service"><path d="M 887.78 254.27 C 924.6 226.93 995.2 177.57 1062 148 C 1144.9 111.31 1246.6 86.13 1312.8 72.15 L 1322.7 70.08" fill="none" stroke="#6b7b8c" stroke-width="1.5" stroke-linecap="round" marker-end="url(#usv-arrow-0)" /></g><g class="usv-edge usv-edge--dataflow" data-from="auth_service" data-to="user_db"><path d="M 921.14 478.91 C 1017.9 480.4 1209.6 483.35 1312.6 484.93 L 1322.9 485.09" fill="none" stroke="#6b7b8c" stroke-width="1.5" stroke-linecap="round" marker-end="url(#usv-arrow-0)" /></g><g class="usv-edge usv-edge--dataflow" data-from="auth_service" data-to="session_cache"><path d="M 909.27 497.52 C 915.78 501.62 921.96 506.43 927 512 C 946.95 534.02 929.71 554.35 952 574 C 1051.8 661.96 1219.2 651.21 1313 636.22 L 1322.9 634.57" fill="none" stroke="#6b7b8c" stroke-width="1.5" stroke-linecap="round" marker-end="url(#usv-arrow-0)" /></g><g class="usv-edge usv-edge--dataflow" data-from="product_service" data-to="product_db"><path d="M 909.09 390.31 C 915.63 386.23 921.85 381.48 927 376 C 945.67 356.14 930.26 336.44 952 320 C 1056.4 241.02 1218.6 252.14 1311 267.17 L 1321.1 268.87" fill="none" stroke="#6b7b8c" stroke-width="1.5" stroke-linecap="round" marker-end="url(#usv-arrow-0)" /></g><g class="usv-edge usv-edge--dataflow" data-from="product_service" data-to="search_index"><path d="M 908.66 429.58 C 915.33 433.69 921.71 438.49 927 444 C 945.03 462.79 939.4 474.2 952 497 C 995.89 576.42 983.88 622.84 1062 669 C 1138.5 714.19 1243.9 711.21 1312.5 702.54 L 1322.8 701.17" fill="none" stroke="#6b7b8c" stroke-width="1.5" stroke-linecap="round" marker-end="url(#usv-arrow-0)" /></g><g class="usv-edge usv-edge--dataflow" data-from="product_service" data-to="file_storage"><path d="M 921.14 410.91 C 1017.9 412.4 1209.6 415.35 1312.6 416.93 L 1322.9 417.09" fill="none" stroke="#6b7b8c" stroke-width="1.5" stroke-linecap="round" marker-end="url(#usv-arrow-0)" /></g><g class="usv-edge usv-edge--dataflow" data-from="order_service" data-to="order_db"><path d="M 903.61 361.53 C 911.61 365.91 919.76 370.8 927 376 C 994.43 424.37 987.54 468.36 1062 505 C 1141.9 544.3 1245.4 553.73 1312.7 555.2 L 1322.8 555.37" fill="none" stroke="#6b7b8c" stroke-width="1.5" stroke-linecap="round" marker-end="url(#usv-arrow-0)" /></g><g class="usv-edge usv-edge--dataflow" data-from="payment_service" data-to="payment_vault"><path d="M 1182.2 348.34 C 1190.5 349.03 1199 349.62 1207 350 C 1241.8 351.65 1280.5 351.83 1312.6 351.51 L 1322.8 351.39" fill="none" stroke="#6b7b8c" stroke-width="1.5" stroke-linecap="round" marker-end="url(#usv-arrow-0)" /></g><g class="usv-node usv-node--external" data-kind="external" data-label="Customer" data-node-id="customer"><rect x="22" y="424.57" width="120" height="38.85" rx="3" fill="#5c7784" stroke="#16324f" stroke-width="1.3" /><text x="82" y="447.57" text-anchor="middle" font-size="13" fill="#ffffff">Customer</text></g><g class="usv-node usv-node--external" data-kind="external" data-label="Admin User" data-node-id="admin_user"><rect x="22" y="492.57" width="120" height="38.85" rx="3" fill="#5c7784" stroke="#16324f" stroke-width="1.3" /><text x="82" y="515.58" text-anchor="middle" font-size="13" fill="#ffffff">Admin User</text></g><g class="usv-node usv-node--external" data-kind="external" data-label="Payment Gateway" data-node-id="payment_gateway"><rect x="1320.28" y="175.57" width="125.44" height="38.85" rx="3" fill="#5c7784" stroke="#16324f" stroke-width="1.3" /><text x="1383" y="198.57" text-anchor="middle" font-size="13" fill="#ffffff">Payment Gateway</text></g><g class="usv-node usv-node--external" data-kind="external" data-label="Shipping Provider API" data-node-id="shipping_api"><rect x="1311.92" y="107.58" width="142.15" height="38.85" rx="3" fill="#5c7784" stroke="#16324f" stroke-width="1.3" /><text x="1383" y="130.57" text-anchor="middle" font-size="13" fill="#ffffff">Shipping Provider API</text></g><g class="usv-node usv-node--external" data-kind="external" data-label="Email Service" data-node-id="email_service"><rect x="1323" y="39.58" width="120" height="38.85" rx="3" fill="#5c7784" stroke="#16324f" stroke-width="1.3" /><text x="1383" y="62.58" text-anchor="middle" font-size="13" fill="#ffffff">Email Service</text></g><g class="usv-node usv-node--process" data-kind="process" data-label="Web Frontend" data-node-id="web_frontend"><rect x="304" y="424.57" width="120" height="38.85" rx="19.42" fill="#2f7f57" stroke="#16324f" stroke-width="1.3" /><text x="364" y="447.57" text-anchor="middle" font-size="13" fill="#ffffff">Web Frontend</text></g><g class="usv-node usv-node--process" data-kind="process" data-label="API Gateway" data-node-id="api_gateway"><rect x="540" y="424.57" width="120" height="38.85" rx="19.42" fill="#2f7f57" stroke="#16324f" stroke-width="1.3" /><text x="600" y="447.57" text-anchor="middle" font-size="13" fill="#ffffff">API Gateway</text></g><g class="usv-node usv-node--process" data-kind="process" data-label="Auth Service" data-node-id="auth_service"><rect x="801" y="458.57" width="120" height="38.85" rx="19.42" fill="#2f7f57" stroke="#16324f" stroke-width="1.3" /><text x="861" y="481.57" text-anchor="middle" font-size="13" fill="#ffffff">Auth Service</text></g><g class="usv-node usv-node--process" data-kind="process" data-label="Product Service" data-node-id="product_service"><rect x="801" y="390.57" width="120" height="38.85" rx="19.42" fill="#2f7f57" stroke="#16324f" stroke-width="1.3" /><text x="861" y="413.57" text-anchor="middle" font-size="13" fill="#ffffff">Product Service</text></g><g class="usv-node usv-node--process" data-kind="process" data-label="Cart Service" data-node-id="cart_service"><rect x="801" y="526.58" width="120" height="38.85" rx="19.42" fill="#2f7f57" stroke="#16324f" stroke-width="1.3" /><text x="861" y="549.58" text-anchor="middle" font-size="13" fill="#ffffff">Cart Service</text></g><g class="usv-node usv-node--process" data-kind="process" data-label="Order Service" data-node-id="order_service"><rect x="801" y="322.57" width="120" height="38.85" rx="19.42" fill="#2f7f57" stroke="#16324f" stroke-width="1.3" /><text x="861" y="345.57" text-anchor="middle" font-size="13" fill="#ffffff">Order Service</text></g><g class="usv-node usv-node--process" data-kind="process" data-label="Payment Service" data-node-id="payment_service"><rect x="1062" y="322.57" width="120" height="38.85" rx="19.42" fill="#2f7f57" stroke="#16324f" stroke-width="1.3" /><text x="1122" y="345.57" text-anchor="middle" font-size="13" fill="#ffffff">Payment Service</text></g><g class="usv-node usv-node--process" data-kind="process" data-label="Notification Service" data-node-id="notification_service"><rect x="795.2" y="254.57" width="131.61" height="38.85" rx="19.42" fill="#2f7f57" stroke="#16324f" stroke-width="1.3" /><text x="861" y="277.57" text-anchor="middle" font-size="13" fill="#ffffff">Notification Service</text></g><g class="usv-node usv-node--process" data-kind="process" data-label="Admin Panel" data-node-id="admin_panel"><rect x="304" y="492.57" width="120" height="38.85" rx="19.42" fill="#2f7f57" stroke="#16324f" stroke-width="1.3" /><text x="364" y="515.58" text-anchor="middle" font-size="13" fill="#ffffff">Admin Panel</text></g><g class="usv-node usv-node--datastore" data-kind="datastore" data-label="User Database" data-node-id="user_db"><polygon points="1335,466.57 1431,466.57 1443,478.57 1443,493.42 1431,505.42 1335,505.42 1323,493.42 1323,478.57" fill="#2f5f8a" stroke="#16324f" stroke-width="1.3" stroke-linejoin="round" /><text x="1383" y="489.57" text-anchor="middle" font-size="13" fill="#ffffff">User Database</text></g><g class="usv-node usv-node--datastore" data-kind="datastore" data-label="Product Database" data-node-id="product_db"><polygon points="1333.72,262.57 1432.28,262.57 1444.28,274.57 1444.28,289.42 1432.28,301.42 1333.72,301.42 1321.72,289.42 1321.72,274.57" fill="#2f5f8a" stroke="#16324f" stroke-width="1.3" stroke-linejoin="round" /><text x="1383" y="285.57" text-anchor="middle" font-size="13" fill="#ffffff">Product Database</text></g><g class="usv-node usv-node--datastore" data-kind="datastore" data-label="Order Database" data-node-id="order_db"><polygon points="1335,534.58 1431,534.58 1443,546.58 1443,561.43 1431,573.43 1335,573.43 1323,561.43 1323,546.58" fill="#2f5f8a" stroke="#16324f" stroke-width="1.3" stroke-linejoin="round" /><text x="1383" y="557.58" text-anchor="middle" font-size="13" fill="#ffffff">Order Database</text></g><g class="usv-node usv-node--datastore" data-kind="datastore" data-label="Session Cache" data-node-id="session_cache"><polygon points="1335,602.58 1431,602.58 1443,614.58 1443,629.43 1431,641.43 1335,641.43 1323,629.43 1323,614.58" fill="#2f5f8a" stroke="#16324f" stroke-width="1.3" stroke-linejoin="round" /><text x="1383" y="625.58" text-anchor="middle" font-size="13" fill="#ffffff">Session Cache</text></g><g class="usv-node usv-node--datastore" data-kind="datastore" data-label="Payment Vault" data-node-id="payment_vault"><polygon points="1335,330.57 1431,330.57 1443,342.57 1443,357.42 1431,369.42 1335,369.42 1323,357.42 1323,342.57" fill="#2f5f8a" stroke="#16324f" stroke-width="1.3" stroke-linejoin="round" /><text x="1383" y="353.57" text-anchor="middle" font-size="13" fill="#ffffff">Payment Vault</text></g><g class="usv-node usv-node--datastore" data-kind="datastore" data-label="Search Index" data-node-id="search_index"><polygon points="1335,670.58 1431,670.58 1443,682.58 1443,697.43 1431,709.43 1335,709.43 1323,697.43 1323,682.58" fill="#2f5f8a" stroke="#16324f" stroke-width="1.3" stroke-linejoin="round" /><text x="1383" y="693.58" text-anchor="middle" font-size="13" fill="#ffffff">Search Index</text></g><g class="usv-node usv-node--datastore" data-kind="datastore" data-label="File Storage" data-node-id="file_storage"><polygon points="1335,398.57 1431,398.57 1443,410.57 1443,425.42 1431,437.42 1335,437.42 1323,425.42 1323,410.57" fill="#2f5f8a" stroke="#16324f" stroke-width="1.3" stroke-linejoin="round" /><text x="1383" y="421.57" text-anchor="middle" font-size="13" fill="#ffffff">File Storage</text></g><text x="-24" y="-13.6" text-anchor="start" font-size="15" font-weight="600" fill="#16324f" opacity="0.65" letter-spacing="0.4">E-Commerce Platform</text><g class="usv-edge-label"><text x="230" y="440.1" text-anchor="middle" font-size="10" font-weight="600" letter-spacing="0.3" fill="#ffffff" stroke="#ffffff" stroke-width="3.2" stroke-linejoin="round">HTTPS Browse/Shop</text><text x="230" y="440.1" text-anchor="middle" font-size="10" font-weight="600" letter-spacing="0.3" fill="#4a5b6b">HTTPS Browse/Shop</text></g><g class="usv-edge-label"><text x="230" y="508.1" text-anchor="middle" font-size="10" font-weight="600" letter-spacing="0.3" fill="#ffffff" stroke="#ffffff" stroke-width="3.2" stroke-linejoin="round">HTTPS Admin Access</text><text x="230" y="508.1" text-anchor="middle" font-size="10" font-weight="600" letter-spacing="0.3" fill="#4a5b6b">HTTPS Admin Access</text></g><g class="usv-edge-label"><text x="482" y="440.1" text-anchor="middle" font-size="10" font-weight="600" letter-spacing="0.3" fill="#ffffff" stroke="#ffffff" stroke-width="3.2" stroke-linejoin="round">API Requests</text><text x="482" y="440.1" text-anchor="middle" font-size="10" font-weight="600" letter-spacing="0.3" fill="#4a5b6b">API Requests</text></g><g class="usv-edge-label"><text x="727.5" y="462.1" text-anchor="middle" font-size="10" font-weight="600" letter-spacing="0.3" fill="#ffffff" stroke="#ffffff" stroke-width="3.2" stroke-linejoin="round">Auth Validation</text><text x="727.5" y="462.1" text-anchor="middle" font-size="10" font-weight="600" letter-spacing="0.3" fill="#4a5b6b">Auth Validation</text></g><g class="usv-edge-label"><text x="727.5" y="418.1" text-anchor="middle" font-size="10" font-weight="600" letter-spacing="0.3" fill="#ffffff" stroke="#ffffff" stroke-width="3.2" stroke-linejoin="round">Product Queries</text><text x="727.5" y="418.1" text-anchor="middle" font-size="10" font-weight="600" letter-spacing="0.3" fill="#4a5b6b">Product Queries</text></g><g class="usv-edge-label"><text x="727.5" y="493.1" text-anchor="middle" font-size="10" font-weight="600" letter-spacing="0.3" fill="#ffffff" stroke="#ffffff" stroke-width="3.2" stroke-linejoin="round">Cart Operations</text><text x="727.5" y="493.1" text-anchor="middle" font-size="10" font-weight="600" letter-spacing="0.3" fill="#4a5b6b">Cart Operations</text></g><g class="usv-edge-label"><text x="727.5" y="367.1" text-anchor="middle" font-size="10" font-weight="600" letter-spacing="0.3" fill="#ffffff" stroke="#ffffff" stroke-width="3.2" stroke-linejoin="round">Order Operations</text><text x="727.5" y="367.1" text-anchor="middle" font-size="10" font-weight="600" letter-spacing="0.3" fill="#4a5b6b">Order Operations</text></g><g class="usv-edge-label"><text x="994.5" y="338.1" text-anchor="middle" font-size="10" font-weight="600" letter-spacing="0.3" fill="#ffffff" stroke="#ffffff" stroke-width="3.2" stroke-linejoin="round">Payment Request</text><text x="994.5" y="338.1" text-anchor="middle" font-size="10" font-weight="600" letter-spacing="0.3" fill="#4a5b6b">Payment Request</text></g><g class="usv-edge-label"><text x="1246" y="230.1" text-anchor="middle" font-size="10" font-weight="600" letter-spacing="0.3" fill="#ffffff" stroke="#ffffff" stroke-width="3.2" stroke-linejoin="round">Card Processing</text><text x="1246" y="230.1" text-anchor="middle" font-size="10" font-weight="600" letter-spacing="0.3" fill="#4a5b6b">Card Processing</text></g><g class="usv-edge-label"><text x="1122" y="166.1" text-anchor="middle" font-size="10" font-weight="600" letter-spacing="0.3" fill="#ffffff" stroke="#ffffff" stroke-width="3.2" stroke-linejoin="round">Shipping Rates</text><text x="1122" y="166.1" text-anchor="middle" font-size="10" font-weight="600" letter-spacing="0.3" fill="#4a5b6b">Shipping Rates</text></g><g class="usv-edge-label"><text x="1122" y="100.1" text-anchor="middle" font-size="10" font-weight="600" letter-spacing="0.3" fill="#ffffff" stroke="#ffffff" stroke-width="3.2" stroke-linejoin="round">Send Email</text><text x="1122" y="100.1" text-anchor="middle" font-size="10" font-weight="600" letter-spacing="0.3" fill="#4a5b6b">Send Email</text></g><g class="usv-edge-label"><text x="1122" y="478.1" text-anchor="middle" font-size="10" font-weight="600" letter-spacing="0.3" fill="#ffffff" stroke="#ffffff" stroke-width="3.2" stroke-linejoin="round">User Queries</text><text x="1122" y="478.1" text-anchor="middle" font-size="10" font-weight="600" letter-spacing="0.3" fill="#4a5b6b">User Queries</text></g><g class="usv-edge-label"><text x="1122" y="628.1" text-anchor="middle" font-size="10" font-weight="600" letter-spacing="0.3" fill="#ffffff" stroke="#ffffff" stroke-width="3.2" stroke-linejoin="round">Session Storage</text><text x="1122" y="628.1" text-anchor="middle" font-size="10" font-weight="600" letter-spacing="0.3" fill="#4a5b6b">Session Storage</text></g><g class="usv-edge-label"><text x="1122" y="253.1" text-anchor="middle" font-size="10" font-weight="600" letter-spacing="0.3" fill="#ffffff" stroke="#ffffff" stroke-width="3.2" stroke-linejoin="round">Product Queries</text><text x="1122" y="253.1" text-anchor="middle" font-size="10" font-weight="600" letter-spacing="0.3" fill="#4a5b6b">Product Queries</text></g><g class="usv-edge-label"><text x="1122" y="665.1" text-anchor="middle" font-size="10" font-weight="600" letter-spacing="0.3" fill="#ffffff" stroke="#ffffff" stroke-width="3.2" stroke-linejoin="round">Search Index</text><text x="1122" y="665.1" text-anchor="middle" font-size="10" font-weight="600" letter-spacing="0.3" fill="#4a5b6b">Search Index</text></g><g class="usv-edge-label"><text x="1122" y="410.1" text-anchor="middle" font-size="10" font-weight="600" letter-spacing="0.3" fill="#ffffff" stroke="#ffffff" stroke-width="3.2" stroke-linejoin="round">Image Storage</text><text x="1122" y="410.1" text-anchor="middle" font-size="10" font-weight="600" letter-spacing="0.3" fill="#4a5b6b">Image Storage</text></g><g class="usv-edge-label"><text x="1122" y="501.1" text-anchor="middle" font-size="10" font-weight="600" letter-spacing="0.3" fill="#ffffff" stroke="#ffffff" stroke-width="3.2" stroke-linejoin="round">Order Queries</text><text x="1122" y="501.1" text-anchor="middle" font-size="10" font-weight="600" letter-spacing="0.3" fill="#4a5b6b">Order Queries</text></g><g class="usv-edge-label"><text x="1246" y="346.1" text-anchor="middle" font-size="10" font-weight="600" letter-spacing="0.3" fill="#ffffff" stroke="#ffffff" stroke-width="3.2" stroke-linejoin="round">Token Storage</text><text x="1246" y="346.1" text-anchor="middle" font-size="10" font-weight="600" letter-spacing="0.3" fill="#4a5b6b">Token Storage</text></g></svg>