<?xml version="1.0" encoding="UTF-8" standalone="no"?>
<svg xmlns="http://www.w3.org/2000/svg" width="1647" height="1836" viewBox="-36 -36 1647 1836" preserveAspectRatio="xMidYMid meet" class="usv-svg usv-dfd" data-usv-engine="svg" data-usv-module="dfd" data-usv-theme="sv_default"><defs><filter id="usv-shadow-0" x="-20%" y="-20%" width="140%" height="140%"><feDropShadow dx="0" dy="1.2" stdDeviation="2.2" flood-color="#0f172a" flood-opacity="0.28" /></filter><marker id="usv-arrow-1" viewBox="0 0 10 10" refX="9" refY="5" markerWidth="7" markerHeight="7" orient="auto-start-reverse"><path d="M 0 1 L 9 5 L 0 9 z" fill="#64748b" /></marker></defs><style type="text/css">
.usv-dfd text { font-family: Helvetica Neue, Helvetica, Arial, sans-serif; }
.usv-dfd .usv-node:hover rect, .usv-dfd .usv-node:hover polygon { stroke-width: 2.2; }
</style><rect x="-36" y="-36" width="1647" height="1836" rx="0" fill="#f8fafc" stroke="none" stroke-width="0" /><g class="usv-cluster" data-cluster-id="internet" data-label="Internet (Untrusted)"><rect x="8" y="428" width="185" height="221" rx="10" fill="#fef2f2" stroke="#e74c3c" stroke-width="1.6" stroke-dasharray="7 4" /><text x="18" y="442" text-anchor="start" font-size="12" fill="#b91c1c" font-weight="bold">Internet (Untrusted)</text></g><g class="usv-cluster" data-cluster-id="external_idp" data-label="Customer Identity Providers"><rect x="1345" y="956" width="221" height="81" rx="10" fill="#fef2f2" stroke="#e74c3c" stroke-width="1.6" stroke-dasharray="7 4" /><text x="1355" y="970" text-anchor="start" font-size="12" fill="#b91c1c" font-weight="bold">Customer Identity Providers</text></g><g class="usv-cluster" data-cluster-id="trusted_external" data-label="Trusted Third-Party Services"><rect x="1344" y="8" width="223" height="221" rx="10" fill="#fef2f2" stroke="#e74c3c" stroke-width="1.6" stroke-dasharray="7 4" /><text x="1354" y="22" text-anchor="start" font-size="12" fill="#b91c1c" font-weight="bold">Trusted Third-Party Services</text></g><g class="usv-cluster" data-cluster-id="platform_admin_zone" data-label="Platform Administration"><rect x="348" y="426" width="190" height="81" rx="10" fill="#fef2f2" stroke="#e74c3c" stroke-width="1.6" stroke-dasharray="7 4" /><text x="358" y="440" text-anchor="start" font-size="12" fill="#b91c1c" font-weight="bold">Platform Administration</text></g><g class="usv-cluster" data-cluster-id="edge_zone" data-label="Edge / DMZ"><rect x="367" y="515" width="454" height="83" rx="10" fill="#fef2f2" stroke="#e74c3c" stroke-width="1.6" stroke-dasharray="7 4" /><text x="377" y="529" text-anchor="start" font-size="12" fill="#b91c1c" font-weight="bold">Edge / DMZ</text></g><g class="usv-cluster" data-cluster-id="application_zone" data-label="Application Services"><rect x="973" y="237" width="561.5" height="711" rx="10" fill="#fef2f2" stroke="#e74c3c" stroke-width="1.6" stroke-dasharray="7 4" /><text x="983" y="251" text-anchor="start" font-size="12" fill="#b91c1c" font-weight="bold">Application Services</text></g><g class="usv-cluster" data-cluster-id="data_zone" data-label="Data Zone (Tenant Isolated)"><rect x="1348" y="1045" width="215" height="711" rx="10" fill="#fef2f2" stroke="#e74c3c" stroke-width="1.6" stroke-dasharray="7 4" /><text x="1358" y="1059" text-anchor="start" font-size="12" fill="#b91c1c" font-weight="bold">Data Zone (Tenant Isolated)</text></g><g class="usv-edge usv-edge--dataflow" data-from="tenant_user" data-to="web_app"><path d="M 158.88 494.7 C 215.46 509.1 302.31 531.3 364.9 547.3 L 374.73 549.8" fill="none" stroke="#64748b" stroke-width="1.6" stroke-linecap="round" marker-end="url(#usv-arrow-1)" /></g><g class="usv-edge usv-edge--dataflow" data-from="tenant_admin" data-to="web_app"><path d="M 160.81 610.8 C 217.39 602 302.94 588.6 364.81 579 L 374.91 577.4" fill="none" stroke="#64748b" stroke-width="1.6" stroke-linecap="round" marker-end="url(#usv-arrow-1)" /></g><g class="usv-edge usv-edge--dataflow" data-from="platform_admin" data-to="api_gateway"><path d="M 508.23 496.9 C 560.57 512.2 634.23 533.8 687.24 549.4 L 696.89 552.2" fill="none" stroke="#64748b" stroke-width="1.6" stroke-linecap="round" marker-end="url(#usv-arrow-1)" /></g><g class="usv-edge usv-edge--dataflow" data-from="web_app" data-to="api_gateway"><path d="M 511.27 567.4 C 563.18 567.8 634.69 568.2 686.63 568.6 L 696.75 568.6" fill="none" stroke="#64748b" stroke-width="1.6" stroke-linecap="round" marker-end="url(#usv-arrow-1)" /></g><g class="usv-edge usv-edge--dataflow" data-from="integration_api" data-to="api_gateway"><path d="M 169.52 570.6 C 177.87 574.6 185.93 579.4 193 585 C 203.54 593.3 198.29 603.4 210 610 C 367.12 698.3 591.27 632.7 695.96 593.2 L 705.41 589.5" fill="none" stroke="#64748b" stroke-width="1.6" stroke-linecap="round" marker-end="url(#usv-arrow-1)" /></g><g class="usv-edge usv-edge--dataflow" data-from="api_gateway" data-to="auth_service"><path d="M 813.27 553.9 C 822.84 551.5 832.69 549.1 842 547 C 897.68 534.2 961.22 521.2 1007.9 512 L 1017.9 510" fill="none" stroke="#64748b" stroke-width="1.6" stroke-linecap="round" marker-end="url(#usv-arrow-1)" /></g><g class="usv-edge usv-edge--dataflow" data-from="auth_service" data-to="tenant_idp"><path d="M 1134.3 509 C 1148.3 514.2 1161.9 522.1 1171 534 C 1209.6 584.8 1167.7 762.8 1196 820 C 1235.8 900.57 1328.7 954.5 1391.5 983.22 L 1400.9 987.44" fill="none" stroke="#64748b" stroke-width="1.6" stroke-linecap="round" marker-end="url(#usv-arrow-1)" /></g><g class="usv-edge usv-edge--dataflow" data-from="api_gateway" data-to="tenant_service"><path d="M 766.81 589.8 C 781.64 617.4 810.13 666.6 842 703 C 892.27 760.4 906.65 776.3 973 814 C 982.35 819.31 992.63 824 1003 828.08 L 1012.4 831.66" fill="none" stroke="#64748b" stroke-width="1.6" stroke-linecap="round" marker-end="url(#usv-arrow-1)" /></g><g class="usv-edge usv-edge--dataflow" data-from="api_gateway" data-to="user_service"><path d="M 757.39 589.8 C 761.63 637.5 778.34 756.1 842 826 C 885.17 873.43 955.78 897.07 1008 908.59 L 1017.8 910.67" fill="none" stroke="#64748b" stroke-width="1.6" stroke-linecap="round" marker-end="url(#usv-arrow-1)" /></g><g class="usv-edge usv-edge--dataflow" data-from="api_gateway" data-to="core_app_service"><path d="M 777.4 589.6 C 793.9 604.6 817.91 624.3 842 637 C 882.24 658.2 929.72 674.3 971.28 685.8 L 981.16 688.5" fill="none" stroke="#64748b" stroke-width="1.6" stroke-linecap="round" marker-end="url(#usv-arrow-1)" /></g><g class="usv-edge usv-edge--dataflow" data-from="api_gateway" data-to="file_service"><path d="M 813.27 584.1 C 822.84 586.5 832.69 588.9 842 591 C 897.68 603.8 961.22 616.8 1007.9 626 L 1017.9 628" fill="none" stroke="#64748b" stroke-width="1.6" stroke-linecap="round" marker-end="url(#usv-arrow-1)" /></g><g class="usv-edge usv-edge--dataflow" data-from="api_gateway" data-to="analytics_service"><path d="M 777.81 548.4 C 794.34 533.7 818.2 514.5 842 502 C 890.29 476.7 948.86 458.4 995.2 446.4 L 1004.9 444" fill="none" stroke="#64748b" stroke-width="1.6" stroke-linecap="round" marker-end="url(#usv-arrow-1)" /></g><g class="usv-edge usv-edge--dataflow" data-from="core_app_service" data-to="webhook_service"><path d="M 1136.3 729.6 C 1203.8 753 1313.7 791.24 1384.9 816 L 1394.7 819.4" fill="none" stroke="#64748b" stroke-width="1.6" stroke-linecap="round" marker-end="url(#usv-arrow-1)" /></g><g class="usv-edge usv-edge--dataflow" data-from="webhook_service" data-to="integration_api"><path d="M 1453 819.34 C 1447.9 725.1 1422 337.6 1336 261 C 1263.4 196.4 997.24 224 900 224 C 442 224 442 224 442 224 C 286.13 224 302.36 361.4 210 487 C 201.37 498.7 204.18 505.7 193 515 C 188.84 518.5 184.29 521.6 179.53 524.5 L 170.74 529.3" fill="none" stroke="#64748b" stroke-width="1.6" stroke-linecap="round" marker-end="url(#usv-arrow-1)" /></g><g class="usv-edge usv-edge--dataflow" data-from="billing_service" data-to="payment_processor"><path d="M 1137.3 278.4 C 1195 265.4 1281.3 238 1336 184 C 1342.5 177.6 1337.2 171.2 1344 165 C 1351.1 158.5 1359.5 153.2 1368.4 148.9 L 1377.7 144.7" fill="none" stroke="#64748b" stroke-width="1.6" stroke-linecap="round" marker-end="url(#usv-arrow-1)" /></g><g class="usv-edge usv-edge--dataflow" data-from="notification_service" data-to="email_provider"><path d="M 1154.7 357.5 C 1213.4 352 1291.1 334.5 1336 283 C 1351.7 265.1 1328.2 247.8 1344 230 C 1354.2 218.5 1368.3 211.3 1383 206.7 L 1392.7 204.1" fill="none" stroke="#64748b" stroke-width="1.6" stroke-linecap="round" marker-end="url(#usv-arrow-1)" /></g><g class="usv-edge usv-edge--dataflow" data-from="web_app" data-to="cdn"><path d="M 496.41 546.3 C 511.58 538.2 527 527.5 538 514 C 545.37 505 538.78 498.2 546 489 C 767.35 208.2 1216.7 102 1386.7 70.8 L 1396.8 69" fill="none" stroke="#64748b" stroke-width="1.6" stroke-linecap="round" marker-end="url(#usv-arrow-1)" /></g><g class="usv-edge usv-edge--dataflow" data-from="tenant_service" data-to="tenant_db"><path d="M 1139.6 860.65 C 1151.8 865.81 1163.3 873.26 1171 884 C 1219.6 951.58 1138.9 1572.4 1196 1633 C 1240.3 1680.02 1316.1 1681.84 1374.1 1674.37 L 1384.4 1672.93" fill="none" stroke="#64748b" stroke-width="1.6" stroke-linecap="round" marker-end="url(#usv-arrow-1)" /></g><g class="usv-edge usv-edge--dataflow" data-from="user_service" data-to="user_db"><path d="M 1076.9 939.61 C 1076.8 1052.19 1082.4 1591.59 1196 1700 C 1244.5 1746.27 1323.8 1747.87 1381.7 1741.1 L 1391.9 1739.79" fill="none" stroke="#64748b" stroke-width="1.6" stroke-linecap="round" marker-end="url(#usv-arrow-1)" /></g><g class="usv-edge usv-edge--dataflow" data-from="auth_service" data-to="session_cache"><path d="M 1134.2 508.6 C 1148.4 513.8 1162.1 521.7 1171 534 C 1211.4 589.7 1154.6 1098.02 1196 1153 C 1239.1 1210.17 1321.9 1229.07 1382.1 1234.98 L 1392.4 1235.88" fill="none" stroke="#64748b" stroke-width="1.6" stroke-linecap="round" marker-end="url(#usv-arrow-1)" /></g><g class="usv-edge usv-edge--dataflow" data-from="core_app_service" data-to="app_data_db"><path d="M 1156.2 729.6 C 1161.8 733.6 1166.9 738.3 1171 744 C 1221.8 814.68 1140.8 1459.71 1196 1527 C 1196.7 1527.84 1286.6 1548.62 1360.1 1565.49 L 1369.8 1567.74" fill="none" stroke="#64748b" stroke-width="1.6" stroke-linecap="round" marker-end="url(#usv-arrow-1)" /></g><g class="usv-edge usv-edge--dataflow" data-from="file_service" data-to="file_storage"><path d="M 1134.2 648.6 C 1148.4 653.8 1162.1 661.7 1171 674 C 1213.6 732.8 1148.7 1271.88 1196 1327 C 1202.3 1334.3 1312.1 1353.66 1386.5 1366.04 L 1396.7 1367.74" fill="none" stroke="#64748b" stroke-width="1.6" stroke-linecap="round" marker-end="url(#usv-arrow-1)" /></g><g class="usv-edge usv-edge--dataflow" data-from="analytics_service" data-to="analytics_db"><path d="M 1147.1 444.3 C 1156.4 449.1 1164.9 455.6 1171 464 C 1208.5 515.5 1164.2 981.76 1196 1037 C 1235 1104.76 1273.3 1098.75 1344 1132 C 1352.5 1135.99 1361.5 1139.68 1370.7 1143.06 L 1380.2 1146.47" fill="none" stroke="#64748b" stroke-width="1.6" stroke-linecap="round" marker-end="url(#usv-arrow-1)" /></g><g class="usv-edge usv-edge--dataflow" data-from="core_app_service" data-to="job_queue"><path d="M 1156.1 729.6 C 1161.8 733.6 1166.9 738.4 1171 744 C 1215.6 805.75 1146.6 1370.99 1196 1429 C 1237.1 1477.33 1288.7 1414.72 1336 1457 C 1344.7 1464.77 1335.7 1473.76 1344 1482 C 1355.7 1493.67 1371.2 1501.45 1387 1506.64 L 1396.8 1509.55" fill="none" stroke="#64748b" stroke-width="1.6" stroke-linecap="round" marker-end="url(#usv-arrow-1)" /></g><g class="usv-edge usv-edge--dataflow" data-from="job_queue" data-to="background_worker"><path d="M 1396.8 1511.52 C 1324.9 1504.04 1209.1 1489.88 1196 1475 C 1147.3 1419.92 1214.1 873.56 1171 814 C 1168.7 810.85 1166.1 807.99 1163.3 805.38 L 1155.3 799.06" fill="none" stroke="#64748b" stroke-width="1.6" stroke-linecap="round" marker-end="url(#usv-arrow-1)" /></g><g class="usv-edge usv-edge--dataflow" data-from="background_worker" data-to="app_data_db"><path d="M 1155.3 799.04 C 1161.3 803.13 1166.7 808.06 1171 814 C 1220.6 882.95 1136 1517.88 1196 1578 C 1218.5 1600.55 1295.6 1600.83 1359.6 1596.62 L 1369.8 1595.91" fill="none" stroke="#64748b" stroke-width="1.6" stroke-linecap="round" marker-end="url(#usv-arrow-1)" /></g><g class="usv-edge usv-edge--dataflow" data-from="api_gateway" data-to="audit_service"><path d="M 813.03 569 C 867.47 569 949.52 569 1007.3 569 L 1017.4 569" fill="none" stroke="#64748b" stroke-width="1.6" stroke-linecap="round" marker-end="url(#usv-arrow-1)" /></g><g class="usv-edge usv-edge--dataflow" data-from="audit_service" data-to="audit_log_db"><path d="M 1134.7 578.8 C 1148.7 583.9 1162.2 591.9 1171 604 C 1213.1 662.2 1149.9 1194.88 1196 1250 C 1217.6 1275.87 1299.4 1290.82 1365.2 1298.86 L 1375.2 1300.05" fill="none" stroke="#64748b" stroke-width="1.6" stroke-linecap="round" marker-end="url(#usv-arrow-1)" /></g><g class="usv-edge usv-edge--dataflow" data-from="core_app_service" data-to="feature_flags"><path d="M 1156.1 729.7 C 1161.8 733.6 1166.9 738.4 1171 744 C 1212.4 801.19 1150.2 1325.29 1196 1379 C 1237.2 1427.27 1277 1383.58 1336 1407 C 1339.9 1408.55 1340.2 1410.24 1344 1412 C 1357.4 1418.22 1372.3 1423.77 1386.6 1428.51 L 1396.4 1431.67" fill="none" stroke="#64748b" stroke-width="1.6" stroke-linecap="round" marker-end="url(#usv-arrow-1)" /></g><g class="usv-edge usv-edge--dataflow" data-from="webhook_service" data-to="secrets_vault"><path d="M 1396.4 860.58 C 1322.5 889.94 1210 947.82 1255.5 1015.5 C 1284.7 1058.9 1341.4 1079.21 1387 1088.7 L 1396.8 1090.61" fill="none" stroke="#64748b" stroke-width="1.6" stroke-linecap="round" marker-end="url(#usv-arrow-1)" /></g><g class="usv-node usv-node--external" data-kind="external" data-label="Tenant User" data-node-id="tenant_user"><rect x="42.5" y="459.57" width="116" height="40.85" rx="10" fill="#5c7784" stroke="#1e293b" stroke-width="1" filter="url(#usv-shadow-0)" /><text x="100.5" y="483.57" text-anchor="middle" font-size="13" fill="#ffffff">Tenant User</text></g><g class="usv-node usv-node--external" data-kind="external" data-label="Tenant Admin" data-node-id="tenant_admin"><rect x="40.61" y="599.58" width="119.77" height="40.85" rx="10" fill="#5c7784" stroke="#1e293b" stroke-width="1" filter="url(#usv-shadow-0)" /><text x="100.5" y="623.58" text-anchor="middle" font-size="13" fill="#ffffff">Tenant Admin</text></g><g class="usv-node usv-node--external" data-kind="external" data-label="Platform Admin" data-node-id="platform_admin"><rect x="377.99" y="457.57" width="130.01" height="40.85" rx="10" fill="#5c7784" stroke="#1e293b" stroke-width="1" filter="url(#usv-shadow-0)" /><text x="443" y="481.57" text-anchor="middle" font-size="13" fill="#ffffff">Platform Admin</text></g><g class="usv-node usv-node--external" data-kind="external" data-label="Tenant IdP" data-node-id="tenant_idp"><rect x="1397" y="987.58" width="116" height="40.85" rx="10" fill="#5c7784" stroke="#1e293b" stroke-width="1" filter="url(#usv-shadow-0)" /><text x="1455" y="1011.58" text-anchor="middle" font-size="13" fill="#ffffff">Tenant IdP</text></g><g class="usv-node usv-node--external" data-kind="external" data-label="Customer Integration" data-node-id="integration_api"><rect x="15.96" y="529.58" width="169.08" height="40.85" rx="10" fill="#5c7784" stroke="#1e293b" stroke-width="1" filter="url(#usv-shadow-0)" /><text x="100.5" y="553.58" text-anchor="middle" font-size="13" fill="#ffffff">Customer Integration</text></g><g class="usv-node usv-node--external" data-kind="external" data-label="Payment Processor" data-node-id="payment_processor"><rect x="1377.81" y="109.58" width="154.38" height="40.85" rx="10" fill="#5c7784" stroke="#1e293b" stroke-width="1" filter="url(#usv-shadow-0)" /><text x="1455" y="133.57" text-anchor="middle" font-size="13" fill="#ffffff">Payment Processor</text></g><g class="usv-node usv-node--external" data-kind="external" data-label="Email Provider" data-node-id="email_provider"><rect x="1392.78" y="179.57" width="124.44" height="40.85" rx="10" fill="#5c7784" stroke="#1e293b" stroke-width="1" filter="url(#usv-shadow-0)" /><text x="1455" y="203.57" text-anchor="middle" font-size="13" fill="#ffffff">Email Provider</text></g><g class="usv-node usv-node--external" data-kind="external" data-label="CDN" data-node-id="cdn"><rect x="1397" y="39.58" width="116" height="40.85" rx="10" fill="#5c7784" stroke="#1e293b" stroke-width="1" filter="url(#usv-shadow-0)" /><text x="1455" y="63.58" text-anchor="middle" font-size="13" fill="#ffffff">CDN</text></g><g class="usv-node usv-node--process" data-kind="process" data-label="Web Application" data-node-id="web_app"><rect x="375.21" y="546.58" width="135.57" height="40.85" rx="20.42" fill="#2f8f4e" stroke="#1e293b" stroke-width="1" filter="url(#usv-shadow-0)" /><text x="443" y="570.58" text-anchor="middle" font-size="13" fill="#ffffff">Web Application</text></g><g class="usv-node usv-node--process" data-kind="process" data-label="API Gateway" data-node-id="api_gateway"><rect x="697" y="548.58" width="116" height="40.85" rx="20.42" fill="#2f8f4e" stroke="#1e293b" stroke-width="1" filter="url(#usv-shadow-0)" /><text x="755" y="572.58" text-anchor="middle" font-size="13" fill="#ffffff">API Gateway</text></g><g class="usv-node usv-node--process" data-kind="process" data-label="Auth Service" data-node-id="auth_service"><rect x="1018" y="478.57" width="116" height="40.85" rx="20.42" fill="#2f8f4e" stroke="#1e293b" stroke-width="1" filter="url(#usv-shadow-0)" /><text x="1076" y="502.57" text-anchor="middle" font-size="13" fill="#ffffff">Auth Service</text></g><g class="usv-node usv-node--process" data-kind="process" data-label="Tenant Service" data-node-id="tenant_service"><rect x="1012.6" y="828.58" width="126.8" height="40.85" rx="20.42" fill="#2f8f4e" stroke="#1e293b" stroke-width="1" filter="url(#usv-shadow-0)" /><text x="1076" y="852.58" text-anchor="middle" font-size="13" fill="#ffffff">Tenant Service</text></g><g class="usv-node usv-node--process" data-kind="process" data-label="User Service" data-node-id="user_service"><rect x="1018" y="898.58" width="116" height="40.85" rx="20.42" fill="#2f8f4e" stroke="#1e293b" stroke-width="1" filter="url(#usv-shadow-0)" /><text x="1076" y="922.58" text-anchor="middle" font-size="13" fill="#ffffff">User Service</text></g><g class="usv-node usv-node--process" data-kind="process" data-label="Core Application Service" data-node-id="core_app_service"><rect x="981.2" y="688.58" width="189.61" height="40.85" rx="20.42" fill="#2f8f4e" stroke="#1e293b" stroke-width="1" filter="url(#usv-shadow-0)" /><text x="1076" y="712.58" text-anchor="middle" font-size="13" fill="#ffffff">Core Application Service</text></g><g class="usv-node usv-node--process" data-kind="process" data-label="File Service" data-node-id="file_service"><rect x="1018" y="618.58" width="116" height="40.85" rx="20.42" fill="#2f8f4e" stroke="#1e293b" stroke-width="1" filter="url(#usv-shadow-0)" /><text x="1076" y="642.58" text-anchor="middle" font-size="13" fill="#ffffff">File Service</text></g><g class="usv-node usv-node--process" data-kind="process" data-label="Notification Service" data-node-id="notification_service"><rect x="997.6" y="338.57" width="156.8" height="40.85" rx="20.42" fill="#2f8f4e" stroke="#1e293b" stroke-width="1" filter="url(#usv-shadow-0)" /><text x="1076" y="362.57" text-anchor="middle" font-size="13" fill="#ffffff">Notification Service</text></g><g class="usv-node usv-node--process" data-kind="process" data-label="Billing Service" data-node-id="billing_service"><rect x="1014.97" y="268.57" width="122.07" height="40.85" rx="20.42" fill="#2f8f4e" stroke="#1e293b" stroke-width="1" filter="url(#usv-shadow-0)" /><text x="1076" y="292.57" text-anchor="middle" font-size="13" fill="#ffffff">Billing Service</text></g><g class="usv-node usv-node--process" data-kind="process" data-label="Analytics Service" data-node-id="analytics_service"><rect x="1004.79" y="408.57" width="142.42" height="40.85" rx="20.42" fill="#2f8f4e" stroke="#1e293b" stroke-width="1" filter="url(#usv-shadow-0)" /><text x="1076" y="432.57" text-anchor="middle" font-size="13" fill="#ffffff">Analytics Service</text></g><g class="usv-node usv-node--process" data-kind="process" data-label="Webhook Service" data-node-id="webhook_service"><rect x="1383.47" y="819.58" width="143.07" height="40.85" rx="20.42" fill="#2f8f4e" stroke="#1e293b" stroke-width="1" filter="url(#usv-shadow-0)" /><text x="1455" y="843.58" text-anchor="middle" font-size="13" fill="#ffffff">Webhook Service</text></g><g class="usv-node usv-node--process" data-kind="process" data-label="Background Worker" data-node-id="background_worker"><rect x="996.9" y="758.58" width="158.19" height="40.85" rx="20.42" fill="#2f8f4e" stroke="#1e293b" stroke-width="1" filter="url(#usv-shadow-0)" /><text x="1076" y="782.58" text-anchor="middle" font-size="13" fill="#ffffff">Background Worker</text></g><g class="usv-node usv-node--process" data-kind="process" data-label="Audit Service" data-node-id="audit_service"><rect x="1017.26" y="548.58" width="117.48" height="40.85" rx="20.42" fill="#2f8f4e" stroke="#1e293b" stroke-width="1" filter="url(#usv-shadow-0)" /><text x="1076" y="572.58" text-anchor="middle" font-size="13" fill="#ffffff">Audit Service</text></g><g class="usv-node usv-node--datastore" data-kind="datastore" data-label="Tenant Database" data-node-id="tenant_db"><polygon points="1396.61,1636.58 1513.39,1636.58 1525.39,1648.58 1525.39,1665.42 1513.39,1677.42 1396.61,1677.42 1384.61,1665.42 1384.61,1648.58" fill="#2f5f8a" stroke="#1e293b" stroke-width="1" stroke-linejoin="round" filter="url(#usv-shadow-0)" /><text x="1455" y="1660.58" text-anchor="middle" font-size="13" fill="#ffffff">Tenant Database</text></g><g class="usv-node usv-node--datastore" data-kind="datastore" data-label="User Database" data-node-id="user_db"><polygon points="1404.01,1706.58 1505.99,1706.58 1517.99,1718.58 1517.99,1735.42 1505.99,1747.42 1404.01,1747.42 1392.01,1735.42 1392.01,1718.58" fill="#2f5f8a" stroke="#1e293b" stroke-width="1" stroke-linejoin="round" filter="url(#usv-shadow-0)" /><text x="1455" y="1730.58" text-anchor="middle" font-size="13" fill="#ffffff">User Database</text></g><g class="usv-node usv-node--datastore" data-kind="datastore" data-label="Application Database" data-node-id="app_data_db"><polygon points="1382,1566.58 1528,1566.58 1540,1578.58 1540,1595.42 1528,1607.42 1382,1607.42 1370,1595.42 1370,1578.58" fill="#2f5f8a" stroke="#1e293b" stroke-width="1" stroke-linejoin="round" filter="url(#usv-shadow-0)" /><text x="1455" y="1590.58" text-anchor="middle" font-size="13" fill="#ffffff">Application Database</text></g><g class="usv-node usv-node--datastore" data-kind="datastore" data-label="Session Cache" data-node-id="session_cache"><polygon points="1404.69,1216.58 1505.31,1216.58 1517.31,1228.58 1517.31,1245.42 1505.31,1257.42 1404.69,1257.42 1392.69,1245.42 1392.69,1228.58" fill="#2f5f8a" stroke="#1e293b" stroke-width="1" stroke-linejoin="round" filter="url(#usv-shadow-0)" /><text x="1455" y="1240.58" text-anchor="middle" font-size="13" fill="#ffffff">Session Cache</text></g><g class="usv-node usv-node--datastore" data-kind="datastore" data-label="Feature Flags" data-node-id="feature_flags"><polygon points="1408.29,1426.58 1501.71,1426.58 1513.71,1438.58 1513.71,1455.42 1501.71,1467.42 1408.29,1467.42 1396.29,1455.42 1396.29,1438.58" fill="#2f5f8a" stroke="#1e293b" stroke-width="1" stroke-linejoin="round" filter="url(#usv-shadow-0)" /><text x="1455" y="1450.58" text-anchor="middle" font-size="13" fill="#ffffff">Feature Flags</text></g><g class="usv-node usv-node--datastore" data-kind="datastore" data-label="File Storage" data-node-id="file_storage"><polygon points="1409,1356.58 1501,1356.58 1513,1368.58 1513,1385.42 1501,1397.42 1409,1397.42 1397,1385.42 1397,1368.58" fill="#2f5f8a" stroke="#1e293b" stroke-width="1" stroke-linejoin="round" filter="url(#usv-shadow-0)" /><text x="1455" y="1380.58" text-anchor="middle" font-size="13" fill="#ffffff">File Storage</text></g><g class="usv-node usv-node--datastore" data-kind="datastore" data-label="Analytics Database" data-node-id="analytics_db"><polygon points="1388.8,1146.58 1521.2,1146.58 1533.2,1158.58 1533.2,1175.42 1521.2,1187.42 1388.8,1187.42 1376.8,1175.42 1376.8,1158.58" fill="#2f5f8a" stroke="#1e293b" stroke-width="1" stroke-linejoin="round" filter="url(#usv-shadow-0)" /><text x="1455" y="1170.58" text-anchor="middle" font-size="13" fill="#ffffff">Analytics Database</text></g><g class="usv-node usv-node--datastore" data-kind="datastore" data-label="Job Queue" data-node-id="job_queue"><polygon points="1409,1496.58 1501,1496.58 1513,1508.58 1513,1525.42 1501,1537.42 1409,1537.42 1397,1525.42 1397,1508.58" fill="#2f5f8a" stroke="#1e293b" stroke-width="1" stroke-linejoin="round" filter="url(#usv-shadow-0)" /><text x="1455" y="1520.58" text-anchor="middle" font-size="13" fill="#ffffff">Job Queue</text></g><g class="usv-node usv-node--datastore" data-kind="datastore" data-label="Audit Log Database" data-node-id="audit_log_db"><polygon points="1387.59,1286.58 1522.41,1286.58 1534.41,1298.58 1534.41,1315.42 1522.41,1327.42 1387.59,1327.42 1375.59,1315.42 1375.59,1298.58" fill="#2f5f8a" stroke="#1e293b" stroke-width="1" stroke-linejoin="round" filter="url(#usv-shadow-0)" /><text x="1455" y="1310.58" text-anchor="middle" font-size="13" fill="#ffffff">Audit Log Database</text></g><g class="usv-node usv-node--datastore" data-kind="datastore" data-label="Secrets Vault" data-node-id="secrets_vault"><polygon points="1408.96,1076.58 1501.04,1076.58 1513.04,1088.58 1513.04,1105.42 1501.04,1117.42 1408.96,1117.42 1396.96,1105.42 1396.96,1088.58" fill="#2f5f8a" stroke="#1e293b" stroke-width="1" stroke-linejoin="round" filter="url(#usv-shadow-0)" /><text x="1455" y="1100.58" text-anchor="middle" font-size="13" fill="#ffffff">Secrets Vault</text></g><text x="-14" y="-11.8" text-anchor="start" font-size="15" font-weight="600" fill="#111827" opacity="0.65" letter-spacing="0.4">SaaS Multi-Tenant Platform</text><g class="usv-edge-label"><text x="275" y="505.1" text-anchor="middle" font-size="10" font-weight="600" letter-spacing="0.3" fill="#f8fafc" stroke="#f8fafc" stroke-width="3.2" stroke-linejoin="round">HTTPS Web Access</text><text x="275" y="505.1" text-anchor="middle" font-size="10" font-weight="600" letter-spacing="0.3" fill="#64748b">HTTPS Web Access</text></g><g class="usv-edge-label"><text x="275" y="581.1" text-anchor="middle" font-size="10" font-weight="600" letter-spacing="0.3" fill="#f8fafc" stroke="#f8fafc" stroke-width="3.2" stroke-linejoin="round">HTTPS Admin Access</text><text x="275" y="581.1" text-anchor="middle" font-size="10" font-weight="600" letter-spacing="0.3" fill="#64748b">HTTPS Admin Access</text></g><g class="usv-edge-label"><text x="607" y="507.1" text-anchor="middle" font-size="10" font-weight="600" letter-spacing="0.3" fill="#f8fafc" stroke="#f8fafc" stroke-width="3.2" stroke-linejoin="round">Platform Admin API</text><text x="607" y="507.1" text-anchor="middle" font-size="10" font-weight="600" letter-spacing="0.3" fill="#64748b">Platform Admin API</text></g><g class="usv-edge-label"><text x="607" y="564.1" text-anchor="middle" font-size="10" font-weight="600" letter-spacing="0.3" fill="#f8fafc" stroke="#f8fafc" stroke-width="3.2" stroke-linejoin="round">API Calls</text><text x="607" y="564.1" text-anchor="middle" font-size="10" font-weight="600" letter-spacing="0.3" fill="#64748b">API Calls</text></g><g class="usv-edge-label"><text x="443" y="637.1" text-anchor="middle" font-size="10" font-weight="600" letter-spacing="0.3" fill="#f8fafc" stroke="#f8fafc" stroke-width="3.2" stroke-linejoin="round">Integration API</text><text x="443" y="637.1" text-anchor="middle" font-size="10" font-weight="600" letter-spacing="0.3" fill="#64748b">Integration API</text></g><g class="usv-edge-label"><text x="899" y="520.1" text-anchor="middle" font-size="10" font-weight="600" letter-spacing="0.3" fill="#f8fafc" stroke="#f8fafc" stroke-width="3.2" stroke-linejoin="round">Token Validation</text><text x="899" y="520.1" text-anchor="middle" font-size="10" font-weight="600" letter-spacing="0.3" fill="#64748b">Token Validation</text></g><g class="usv-edge-label"><text x="1266" y="816.1" text-anchor="middle" font-size="10" font-weight="600" letter-spacing="0.3" fill="#f8fafc" stroke="#f8fafc" stroke-width="3.2" stroke-linejoin="round">SAML/OIDC Federation</text><text x="1266" y="816.1" text-anchor="middle" font-size="10" font-weight="600" letter-spacing="0.3" fill="#64748b">SAML/OIDC Federation</text></g><g class="usv-edge-label"><text x="899" y="699.1" text-anchor="middle" font-size="10" font-weight="600" letter-spacing="0.3" fill="#f8fafc" stroke="#f8fafc" stroke-width="3.2" stroke-linejoin="round">Tenant Resolution</text><text x="899" y="699.1" text-anchor="middle" font-size="10" font-weight="600" letter-spacing="0.3" fill="#64748b">Tenant Resolution</text></g><g class="usv-edge-label"><text x="899" y="822.1" text-anchor="middle" font-size="10" font-weight="600" letter-spacing="0.3" fill="#f8fafc" stroke="#f8fafc" stroke-width="3.2" stroke-linejoin="round">User Queries</text><text x="899" y="822.1" text-anchor="middle" font-size="10" font-weight="600" letter-spacing="0.3" fill="#64748b">User Queries</text></g><g class="usv-edge-label"><text x="899" y="633.1" text-anchor="middle" font-size="10" font-weight="600" letter-spacing="0.3" fill="#f8fafc" stroke="#f8fafc" stroke-width="3.2" stroke-linejoin="round">Business Logic</text><text x="899" y="633.1" text-anchor="middle" font-size="10" font-weight="600" letter-spacing="0.3" fill="#64748b">Business Logic</text></g><g class="usv-edge-label"><text x="899" y="587.1" text-anchor="middle" font-size="10" font-weight="600" letter-spacing="0.3" fill="#f8fafc" stroke="#f8fafc" stroke-width="3.2" stroke-linejoin="round">File Operations</text><text x="899" y="587.1" text-anchor="middle" font-size="10" font-weight="600" letter-spacing="0.3" fill="#64748b">File Operations</text></g><g class="usv-edge-label"><text x="899" y="455.1" text-anchor="middle" font-size="10" font-weight="600" letter-spacing="0.3" fill="#f8fafc" stroke="#f8fafc" stroke-width="3.2" stroke-linejoin="round">Analytics Queries</text><text x="899" y="455.1" text-anchor="middle" font-size="10" font-weight="600" letter-spacing="0.3" fill="#64748b">Analytics Queries</text></g><g class="usv-edge-label"><text x="1266" y="748.1" text-anchor="middle" font-size="10" font-weight="600" letter-spacing="0.3" fill="#f8fafc" stroke="#f8fafc" stroke-width="3.2" stroke-linejoin="round">Webhook Trigger</text><text x="1266" y="748.1" text-anchor="middle" font-size="10" font-weight="600" letter-spacing="0.3" fill="#64748b">Webhook Trigger</text></g><g class="usv-edge-label"><text x="755" y="220.1" text-anchor="middle" font-size="10" font-weight="600" letter-spacing="0.3" fill="#f8fafc" stroke="#f8fafc" stroke-width="3.2" stroke-linejoin="round">Outbound Webhook</text><text x="755" y="220.1" text-anchor="middle" font-size="10" font-weight="600" letter-spacing="0.3" fill="#64748b">Outbound Webhook</text></g><g class="usv-edge-label"><text x="1266" y="180.1" text-anchor="middle" font-size="10" font-weight="600" letter-spacing="0.3" fill="#f8fafc" stroke="#f8fafc" stroke-width="3.2" stroke-linejoin="round">Payment Processing</text><text x="1266" y="180.1" text-anchor="middle" font-size="10" font-weight="600" letter-spacing="0.3" fill="#64748b">Payment Processing</text></g><g class="usv-edge-label"><text x="1266" y="279.1" text-anchor="middle" font-size="10" font-weight="600" letter-spacing="0.3" fill="#f8fafc" stroke="#f8fafc" stroke-width="3.2" stroke-linejoin="round">Email Delivery</text><text x="1266" y="279.1" text-anchor="middle" font-size="10" font-weight="600" letter-spacing="0.3" fill="#64748b">Email Delivery</text></g><g class="usv-edge-label"><text x="899" y="199.1" text-anchor="middle" font-size="10" font-weight="600" letter-spacing="0.3" fill="#f8fafc" stroke="#f8fafc" stroke-width="3.2" stroke-linejoin="round">Static Assets</text><text x="899" y="199.1" text-anchor="middle" font-size="10" font-weight="600" letter-spacing="0.3" fill="#64748b">Static Assets</text></g><g class="usv-edge-label"><text x="1266" y="1629.1" text-anchor="middle" font-size="10" font-weight="600" letter-spacing="0.3" fill="#f8fafc" stroke="#f8fafc" stroke-width="3.2" stroke-linejoin="round">Tenant Queries</text><text x="1266" y="1629.1" text-anchor="middle" font-size="10" font-weight="600" letter-spacing="0.3" fill="#64748b">Tenant Queries</text></g><g class="usv-edge-label"><text x="1266" y="1696.1" text-anchor="middle" font-size="10" font-weight="600" letter-spacing="0.3" fill="#f8fafc" stroke="#f8fafc" stroke-width="3.2" stroke-linejoin="round">User Queries</text><text x="1266" y="1696.1" text-anchor="middle" font-size="10" font-weight="600" letter-spacing="0.3" fill="#64748b">User Queries</text></g><g class="usv-edge-label"><text x="1266" y="1149.1" text-anchor="middle" font-size="10" font-weight="600" letter-spacing="0.3" fill="#f8fafc" stroke="#f8fafc" stroke-width="3.2" stroke-linejoin="round">Session Storage</text><text x="1266" y="1149.1" text-anchor="middle" font-size="10" font-weight="600" letter-spacing="0.3" fill="#64748b">Session Storage</text></g><g class="usv-edge-label"><text x="1266" y="1523.1" text-anchor="middle" font-size="10" font-weight="600" letter-spacing="0.3" fill="#f8fafc" stroke="#f8fafc" stroke-width="3.2" stroke-linejoin="round">App Data Queries</text><text x="1266" y="1523.1" text-anchor="middle" font-size="10" font-weight="600" letter-spacing="0.3" fill="#64748b">App Data Queries</text></g><g class="usv-edge-label"><text x="1266" y="1323.1" text-anchor="middle" font-size="10" font-weight="600" letter-spacing="0.3" fill="#f8fafc" stroke="#f8fafc" stroke-width="3.2" stroke-linejoin="round">File Storage</text><text x="1266" y="1323.1" text-anchor="middle" font-size="10" font-weight="600" letter-spacing="0.3" fill="#64748b">File Storage</text></g><g class="usv-edge-label"><text x="1266" y="1033.1" text-anchor="middle" font-size="10" font-weight="600" letter-spacing="0.3" fill="#f8fafc" stroke="#f8fafc" stroke-width="3.2" stroke-linejoin="round">Analytics Queries</text><text x="1266" y="1033.1" text-anchor="middle" font-size="10" font-weight="600" letter-spacing="0.3" fill="#64748b">Analytics Queries</text></g><g class="usv-edge-label"><text x="1266" y="1425.1" text-anchor="middle" font-size="10" font-weight="600" letter-spacing="0.3" fill="#f8fafc" stroke="#f8fafc" stroke-width="3.2" stroke-linejoin="round">Queue Jobs</text><text x="1266" y="1425.1" text-anchor="middle" font-size="10" font-weight="600" letter-spacing="0.3" fill="#64748b">Queue Jobs</text></g><g class="usv-edge-label"><text x="1266" y="1471.1" text-anchor="middle" font-size="10" font-weight="600" letter-spacing="0.3" fill="#f8fafc" stroke="#f8fafc" stroke-width="3.2" stroke-linejoin="round">Job Processing</text><text x="1266" y="1471.1" text-anchor="middle" font-size="10" font-weight="600" letter-spacing="0.3" fill="#64748b">Job Processing</text></g><g class="usv-edge-label"><text x="1266" y="1574.1" text-anchor="middle" font-size="10" font-weight="600" letter-spacing="0.3" fill="#f8fafc" stroke="#f8fafc" stroke-width="3.2" stroke-linejoin="round">Batch Updates</text><text x="1266" y="1574.1" text-anchor="middle" font-size="10" font-weight="600" letter-spacing="0.3" fill="#64748b">Batch Updates</text></g><g class="usv-edge-label"><text x="899" y="565.1" text-anchor="middle" font-size="10" font-weight="600" letter-spacing="0.3" fill="#f8fafc" stroke="#f8fafc" stroke-width="3.2" stroke-linejoin="round">Audit Events</text><text x="899" y="565.1" text-anchor="middle" font-size="10" font-weight="600" letter-spacing="0.3" fill="#64748b">Audit Events</text></g><g class="usv-edge-label"><text x="1266" y="1246.1" text-anchor="middle" font-size="10" font-weight="600" letter-spacing="0.3" fill="#f8fafc" stroke="#f8fafc" stroke-width="3.2" stroke-linejoin="round">Audit Write</text><text x="1266" y="1246.1" text-anchor="middle" font-size="10" font-weight="600" letter-spacing="0.3" fill="#64748b">Audit Write</text></g><g class="usv-edge-label"><text x="1266" y="1375.1" text-anchor="middle" font-size="10" font-weight="600" letter-spacing="0.3" fill="#f8fafc" stroke="#f8fafc" stroke-width="3.2" stroke-linejoin="round">Feature Check</text><text x="1266" y="1375.1" text-anchor="middle" font-size="10" font-weight="600" letter-spacing="0.3" fill="#64748b">Feature Check</text></g><g class="usv-edge-label"><text x="1266" y="1011.6" text-anchor="middle" font-size="10" font-weight="600" letter-spacing="0.3" fill="#f8fafc" stroke="#f8fafc" stroke-width="3.2" stroke-linejoin="round">Signing Keys</text><text x="1266" y="1011.6" text-anchor="middle" font-size="10" font-weight="600" letter-spacing="0.3" fill="#64748b">Signing Keys</text></g></svg>