<?xml version="1.0" encoding="UTF-8" standalone="no"?>
<!DOCTYPE svg PUBLIC "-//W3C//DTD SVG 1.1//EN"
 "http://www.w3.org/Graphics/SVG/1.1/DTD/svg11.dtd">
<!-- Generated by graphviz version 2.42.4 (0)
 -->
<!-- Title: Healthcare EHR System Pages: 1 -->
<svg width="1851pt" height="554pt"
 viewBox="0.00 0.00 1851.00 554.00" xmlns="http://www.w3.org/2000/svg" xmlns:xlink="http://www.w3.org/1999/xlink">
<g id="graph0" class="graph" transform="scale(1 1) rotate(0) translate(4 550)">
<title>Healthcare EHR System</title>
<polygon fill="white" stroke="transparent" points="-4,4 -4,-550 1847,-550 1847,4 -4,4"/>
<text text-anchor="middle" x="921.5" y="-530.8" font-family="Arial" font-size="14.00">Healthcare EHR System</text>
<g id="clust1" class="cluster">
<title>cluster_patient</title>
<path fill="#ffcccc" stroke="#cc0000" stroke-width="2" d="M273.5,-245C273.5,-245 359.5,-245 359.5,-245 365.5,-245 371.5,-251 371.5,-257 371.5,-257 371.5,-443 371.5,-443 371.5,-449 365.5,-455 359.5,-455 359.5,-455 273.5,-455 273.5,-455 267.5,-455 261.5,-449 261.5,-443 261.5,-443 261.5,-257 261.5,-257 261.5,-251 267.5,-245 273.5,-245"/>
<text text-anchor="middle" x="316.5" y="-440.6" font-family="Arial Bold" font-size="13.00" fill="#660000">Patient&#45;Facing</text>
<text text-anchor="middle" x="316.5" y="-426.6" font-family="Arial Bold" font-size="13.00" fill="#660000">(Trust Level 0)</text>
</g>
<g id="clust2" class="cluster">
<title>cluster_clinical</title>
<path fill="#ffe0b2" stroke="#e65100" stroke-width="2" d="M724,-8C724,-8 843,-8 843,-8 849,-8 855,-14 855,-20 855,-20 855,-285 855,-285 855,-291 849,-297 843,-297 843,-297 724,-297 724,-297 718,-297 712,-291 712,-285 712,-285 712,-20 712,-20 712,-14 718,-8 724,-8"/>
<text text-anchor="middle" x="783.5" y="-282.6" font-family="Arial Bold" font-size="13.00" fill="#663300">Clinical Systems</text>
<text text-anchor="middle" x="783.5" y="-268.6" font-family="Arial Bold" font-size="13.00" fill="#663300">(Trust Level 1)</text>
</g>
<g id="clust3" class="cluster">
<title>cluster_backend</title>
<path fill="#fff9c4" stroke="#f9a825" stroke-width="2" d="M1017,-166C1017,-166 1371,-166 1371,-166 1377,-166 1383,-172 1383,-178 1383,-178 1383,-285 1383,-285 1383,-291 1377,-297 1371,-297 1371,-297 1017,-297 1017,-297 1011,-297 1005,-291 1005,-285 1005,-285 1005,-178 1005,-178 1005,-172 1011,-166 1017,-166"/>
<text text-anchor="middle" x="1194" y="-282.6" font-family="Arial Bold" font-size="13.00" fill="#665500">Backend Services</text>
<text text-anchor="middle" x="1194" y="-268.6" font-family="Arial Bold" font-size="13.00" fill="#665500">(Trust Level 2)</text>
</g>
<g id="clust4" class="cluster">
<title>cluster_compliance</title>
<path fill="#c8e6c9" stroke="#2e7d32" stroke-width="2" d="M1276,-305C1276,-305 1389,-305 1389,-305 1395,-305 1401,-311 1401,-317 1401,-317 1401,-503 1401,-503 1401,-509 1395,-515 1389,-515 1389,-515 1276,-515 1276,-515 1270,-515 1264,-509 1264,-503 1264,-503 1264,-317 1264,-317 1264,-311 1270,-305 1276,-305"/>
<text text-anchor="middle" x="1332.5" y="-500.6" font-family="Arial Bold" font-size="13.00" fill="#1b5e20">Compliance / Audit</text>
<text text-anchor="middle" x="1332.5" y="-486.6" font-family="Arial Bold" font-size="13.00" fill="#1b5e20">(Trust Level 3)</text>
</g>
<g id="clust5" class="cluster">
<title>cluster_crypto</title>
<path fill="#bbdefb" stroke="#1565c0" stroke-width="2" d="M1484.5,-384C1484.5,-384 1823,-384 1823,-384 1829,-384 1835,-390 1835,-396 1835,-396 1835,-503 1835,-503 1835,-509 1829,-515 1823,-515 1823,-515 1484.5,-515 1484.5,-515 1478.5,-515 1472.5,-509 1472.5,-503 1472.5,-503 1472.5,-396 1472.5,-396 1472.5,-390 1478.5,-384 1484.5,-384"/>
<text text-anchor="middle" x="1653.75" y="-500.6" font-family="Arial Bold" font-size="13.00" fill="#0d47a1">Cryptographic Core</text>
<text text-anchor="middle" x="1653.75" y="-486.6" font-family="Arial Bold" font-size="13.00" fill="#0d47a1">(Trust Level 4)</text>
</g>
<!-- _anchor_patient -->
<!-- _anchor_clinical -->
<!-- _anchor_patient&#45;&gt;_anchor_clinical -->
<!-- patient_portal -->
<g id="node2" class="node">
<title>patient_portal</title>
<path fill="#cc0000" stroke="black" stroke-width="1.5" d="M345.5,-411C345.5,-411 287.5,-411 287.5,-411 281.5,-411 275.5,-405 275.5,-399 275.5,-399 275.5,-387 275.5,-387 275.5,-381 281.5,-375 287.5,-375 287.5,-375 345.5,-375 345.5,-375 351.5,-375 357.5,-381 357.5,-387 357.5,-387 357.5,-399 357.5,-399 357.5,-405 351.5,-411 345.5,-411"/>
<text text-anchor="middle" x="316.5" y="-390.5" font-family="Arial" font-size="10.00" fill="#ffffff">Patient Portal</text>
</g>
<!-- fhir_api -->
<g id="node9" class="node">
<title>fhir_api</title>
<path fill="#f9a825" stroke="black" stroke-width="1.5" d="M1108,-210C1108,-210 1025,-210 1025,-210 1019,-210 1013,-204 1013,-198 1013,-198 1013,-186 1013,-186 1013,-180 1019,-174 1025,-174 1025,-174 1108,-174 1108,-174 1114,-174 1120,-180 1120,-186 1120,-186 1120,-198 1120,-198 1120,-204 1114,-210 1108,-210"/>
<text text-anchor="middle" x="1066.5" y="-189.5" font-family="Arial" font-size="10.00" fill="#1f2937">FHIR API Gateway</text>
</g>
<!-- patient_portal&#45;&gt;fhir_api -->
<g id="edge5" class="edge">
<title>patient_portal&#45;&gt;fhir_api</title>
<path fill="none" stroke="#cc0000" stroke-width="3" d="M357.78,-395.12C448.37,-398.8 674.36,-401.91 855,-354 909.76,-339.47 929.24,-338.35 970,-299 994.17,-275.67 982.5,-256.94 1005,-232 1009.86,-226.61 1015.6,-221.62 1021.58,-217.12"/>
<polygon fill="#cc0000" stroke="#cc0000" stroke-width="3" points="1024.31,-220.34 1031.75,-210.03 1019.5,-213.45 1024.31,-220.34"/>
<text text-anchor="middle" x="783.5" y="-393.8" font-family="Arial Bold" font-size="9.00" fill="#cc0000"> !! INVERSION !!</text>
<text text-anchor="middle" x="783.5" y="-383.8" font-family="Arial Bold" font-size="9.00" fill="#cc0000">Patient Query</text>
</g>
<!-- audit_logger -->
<g id="node12" class="node">
<title>audit_logger</title>
<path fill="#2e7d32" stroke="black" stroke-width="1.5" d="M1375,-428C1375,-428 1290,-428 1290,-428 1284,-428 1278,-422 1278,-416 1278,-416 1278,-404 1278,-404 1278,-398 1284,-392 1290,-392 1290,-392 1375,-392 1375,-392 1381,-392 1387,-398 1387,-404 1387,-404 1387,-416 1387,-416 1387,-422 1381,-428 1375,-428"/>
<text text-anchor="middle" x="1332.5" y="-407.5" font-family="Arial" font-size="10.00" fill="#ffffff">HIPAA Audit Logger</text>
</g>
<!-- patient_portal&#45;&gt;audit_logger -->
<g id="edge16" class="edge">
<title>patient_portal&#45;&gt;audit_logger</title>
<path fill="none" stroke="#cc0000" stroke-width="3" d="M357.52,-396.37C423.72,-401.78 560.23,-412.3 676,-417 892.29,-425.79 946.54,-422.44 1163,-424 1192.33,-424.21 1199.73,-425.99 1229,-424 1240.96,-423.19 1253.65,-421.85 1265.88,-420.31"/>
<polygon fill="#cc0000" stroke="#cc0000" stroke-width="3" points="1266.57,-424.45 1277.91,-418.72 1265.46,-416.13 1266.57,-424.45"/>
<text text-anchor="middle" x="930" y="-435.8" font-family="Arial Bold" font-size="9.00" fill="#cc0000"> !!! INVERSION !!!</text>
<text text-anchor="middle" x="930" y="-425.8" font-family="Arial Bold" font-size="9.00" fill="#cc0000">Direct Audit Query</text>
</g>
<!-- mobile_health -->
<g id="node3" class="node">
<title>mobile_health</title>
<path fill="#cc0000" stroke="black" stroke-width="1.5" d="M344,-332C344,-332 289,-332 289,-332 283,-332 277,-326 277,-320 277,-320 277,-308 277,-308 277,-302 283,-296 289,-296 289,-296 344,-296 344,-296 350,-296 356,-302 356,-308 356,-308 356,-320 356,-320 356,-326 350,-332 344,-332"/>
<text text-anchor="middle" x="316.5" y="-311.5" font-family="Arial" font-size="10.00" fill="#ffffff">mHealth App</text>
</g>
<!-- mobile_health&#45;&gt;fhir_api -->
<g id="edge6" class="edge">
<title>mobile_health&#45;&gt;fhir_api</title>
<path fill="none" stroke="#cc0000" stroke-width="3" d="M356.1,-318.91C445.56,-329.04 673.26,-347.6 855,-301 889.45,-292.17 973.32,-245.59 1024.18,-216.25"/>
<polygon fill="#cc0000" stroke="#cc0000" stroke-width="3" points="1026.53,-219.74 1034.81,-210.09 1022.32,-212.47 1026.53,-219.74"/>
<text text-anchor="middle" x="783.5" y="-336.8" font-family="Arial Bold" font-size="9.00" fill="#cc0000"> !! INVERSION !!</text>
<text text-anchor="middle" x="783.5" y="-326.8" font-family="Arial Bold" font-size="9.00" fill="#cc0000">Health Data</text>
</g>
<!-- _anchor_backend -->
<!-- _anchor_clinical&#45;&gt;_anchor_backend -->
<!-- ehr_client -->
<g id="node5" class="node">
<title>ehr_client</title>
<path fill="#e65100" stroke="black" stroke-width="1.5" d="M821,-131C821,-131 746,-131 746,-131 740,-131 734,-125 734,-119 734,-119 734,-107 734,-107 734,-101 740,-95 746,-95 746,-95 821,-95 821,-95 827,-95 833,-101 833,-107 833,-107 833,-119 833,-119 833,-125 827,-131 821,-131"/>
<text text-anchor="middle" x="783.5" y="-110.5" font-family="Arial" font-size="10.00" fill="#1f2937">EHR Workstation</text>
</g>
<!-- ehr_client&#45;&gt;fhir_api -->
<g id="edge7" class="edge">
<title>ehr_client&#45;&gt;fhir_api</title>
<path fill="none" stroke="#cc0000" stroke-width="3" d="M833.01,-112.82C871.18,-114.02 925.22,-118.7 970,-134 992.04,-141.53 1014.42,-154.76 1031.96,-166.68"/>
<polygon fill="#cc0000" stroke="#cc0000" stroke-width="3" points="1029.98,-170.42 1042.22,-173.87 1034.81,-163.54 1029.98,-170.42"/>
<text text-anchor="middle" x="930" y="-146.8" font-family="Arial Bold" font-size="9.00" fill="#cc0000"> ! INVERSION !</text>
<text text-anchor="middle" x="930" y="-136.8" font-family="Arial Bold" font-size="9.00" fill="#cc0000">Clinical Records</text>
</g>
<!-- lab_system -->
<g id="node6" class="node">
<title>lab_system</title>
<path fill="#e65100" stroke="black" stroke-width="1.5" d="M835,-52C835,-52 732,-52 732,-52 726,-52 720,-46 720,-40 720,-40 720,-28 720,-28 720,-22 726,-16 732,-16 732,-16 835,-16 835,-16 841,-16 847,-22 847,-28 847,-28 847,-40 847,-40 847,-46 841,-52 835,-52"/>
<text text-anchor="middle" x="783.5" y="-31.5" font-family="Arial" font-size="10.00" fill="#1f2937">Lab Information System</text>
</g>
<!-- lab_system&#45;&gt;fhir_api -->
<g id="edge8" class="edge">
<title>lab_system&#45;&gt;fhir_api</title>
<path fill="none" stroke="#cc0000" stroke-width="3" d="M847.29,-43.47C884.97,-51.23 932.67,-64.82 970,-88 1001.57,-107.6 1029.23,-140.45 1046.55,-163.98"/>
<polygon fill="#cc0000" stroke="#cc0000" stroke-width="3" points="1043.14,-166.43 1053.54,-173.75 1049.97,-161.55 1043.14,-166.43"/>
<text text-anchor="middle" x="930" y="-100.8" font-family="Arial Bold" font-size="9.00" fill="#cc0000"> ! INVERSION !</text>
<text text-anchor="middle" x="930" y="-90.8" font-family="Arial Bold" font-size="9.00" fill="#cc0000">Lab Results</text>
</g>
<!-- pharmacy -->
<g id="node7" class="node">
<title>pharmacy</title>
<path fill="#e65100" stroke="black" stroke-width="1.5" d="M823.5,-210C823.5,-210 743.5,-210 743.5,-210 737.5,-210 731.5,-204 731.5,-198 731.5,-198 731.5,-186 731.5,-186 731.5,-180 737.5,-174 743.5,-174 743.5,-174 823.5,-174 823.5,-174 829.5,-174 835.5,-180 835.5,-186 835.5,-186 835.5,-198 835.5,-198 835.5,-204 829.5,-210 823.5,-210"/>
<text text-anchor="middle" x="783.5" y="-189.5" font-family="Arial" font-size="10.00" fill="#1f2937">Pharmacy System</text>
</g>
<!-- _anchor_compliance -->
<!-- _anchor_backend&#45;&gt;_anchor_compliance -->
<!-- fhir_api&#45;&gt;pharmacy -->
<g id="edge10" class="edge">
<title>fhir_api&#45;&gt;pharmacy</title>
<path fill="none" stroke="#3498db" stroke-width="1.5" d="M1012.94,-175.67C999.11,-172.08 984.11,-168.82 970,-167 934.74,-162.46 925.32,-162.87 890,-167 875.42,-168.7 859.93,-171.69 845.44,-175.02"/>
<polygon fill="#3498db" stroke="#3498db" stroke-width="1.5" points="835.59,-177.37 844.27,-170.67 840.39,-175.97 845.26,-174.81 845.31,-175.05 845.37,-175.29 840.51,-176.45 846.36,-179.43 835.59,-177.37 835.59,-177.37"/>
<text text-anchor="middle" x="930" y="-169.8" font-family="Arial" font-size="9.00" fill="#3498db"> Prescriptions</text>
</g>
<!-- phi_database -->
<g id="node10" class="node">
<title>phi_database</title>
<path fill="#f9a825" stroke="black" stroke-width="1.5" d="M1363,-244C1363,-244 1302,-244 1302,-244 1296,-244 1290,-238 1290,-232 1290,-232 1290,-220 1290,-220 1290,-214 1296,-208 1302,-208 1302,-208 1363,-208 1363,-208 1369,-208 1375,-214 1375,-220 1375,-220 1375,-232 1375,-232 1375,-238 1369,-244 1363,-244"/>
<text text-anchor="middle" x="1332.5" y="-223.5" font-family="Arial" font-size="10.00" fill="#1f2937">PHI Database</text>
</g>
<!-- fhir_api&#45;&gt;phi_database -->
<g id="edge9" class="edge">
<title>fhir_api&#45;&gt;phi_database</title>
<path fill="none" stroke="#3498db" stroke-width="1.5" d="M1120.29,-198.8C1166.59,-204.76 1233.53,-213.38 1279.58,-219.31"/>
<polygon fill="#3498db" stroke="#3498db" stroke-width="1.5" points="1289.65,-220.61 1279.16,-223.8 1284.66,-220.22 1279.7,-219.58 1279.73,-219.33 1279.76,-219.08 1284.72,-219.72 1280.31,-214.87 1289.65,-220.61 1289.65,-220.61"/>
<text text-anchor="middle" x="1196" y="-214.8" font-family="Arial" font-size="9.00" fill="#3498db"> Store PHI</text>
</g>
<!-- fhir_api&#45;&gt;audit_logger -->
<g id="edge15" class="edge">
<title>fhir_api&#45;&gt;audit_logger</title>
<path fill="none" stroke="#cc0000" stroke-width="3" d="M1097.49,-210.09C1105.69,-216.2 1113.97,-223.63 1120,-232 1154.59,-280.01 1120.55,-316.78 1163,-358 1190.41,-384.61 1231.13,-397.64 1265.68,-403.99"/>
<polygon fill="#cc0000" stroke="#cc0000" stroke-width="3" points="1265.08,-408.15 1277.61,-405.98 1266.46,-399.87 1265.08,-408.15"/>
<text text-anchor="middle" x="1196" y="-406.8" font-family="Arial Bold" font-size="9.00" fill="#cc0000"> ! INVERSION !</text>
<text text-anchor="middle" x="1196" y="-396.8" font-family="Arial Bold" font-size="9.00" fill="#cc0000">Access Events</text>
</g>
<!-- _anchor_crypto -->
<!-- _anchor_compliance&#45;&gt;_anchor_crypto -->
<!-- audit_logger&#45;&gt;fhir_api -->
<g id="edge12" class="edge">
<title>audit_logger&#45;&gt;fhir_api</title>
<path fill="none" stroke="#8e44ad" stroke-width="2" d="M1298.85,-391.98C1287.66,-385.58 1275.15,-378.18 1264,-371 1247.93,-360.65 1244.56,-357.1 1229,-346 1199.68,-325.09 1187.84,-325.07 1163,-299 1138.59,-273.38 1143.99,-258.01 1120,-232 1114.46,-226 1107.94,-220.24 1101.41,-215.05"/>
<ellipse fill="#8e44ad" stroke="#8e44ad" stroke-width="2" cx="1098.09" cy="-212.5" rx="4" ry="4"/>
<text text-anchor="middle" x="1196" y="-348.8" font-family="Arial" font-size="9.00" fill="#8e44ad"> Logging Policy</text>
</g>
<!-- consent_mgr -->
<g id="node13" class="node">
<title>consent_mgr</title>
<path fill="#2e7d32" stroke="black" stroke-width="1.5" d="M1370.5,-349C1370.5,-349 1294.5,-349 1294.5,-349 1288.5,-349 1282.5,-343 1282.5,-337 1282.5,-337 1282.5,-325 1282.5,-325 1282.5,-319 1288.5,-313 1294.5,-313 1294.5,-313 1370.5,-313 1370.5,-313 1376.5,-313 1382.5,-319 1382.5,-325 1382.5,-325 1382.5,-337 1382.5,-337 1382.5,-343 1376.5,-349 1370.5,-349"/>
<text text-anchor="middle" x="1332.5" y="-328.5" font-family="Arial" font-size="10.00" fill="#ffffff">Consent Manager</text>
</g>
<!-- consent_mgr&#45;&gt;fhir_api -->
<g id="edge11" class="edge">
<title>consent_mgr&#45;&gt;fhir_api</title>
<path fill="none" stroke="#8e44ad" stroke-width="2" d="M1282.37,-314.83C1276.11,-312.39 1269.85,-309.76 1264,-307 1247.6,-299.26 1244.62,-295.23 1229,-286 1187.07,-261.22 1138.77,-233.17 1105.99,-214.21"/>
<ellipse fill="#8e44ad" stroke="#8e44ad" stroke-width="2" cx="1102.3" cy="-212.08" rx="4" ry="4"/>
<text text-anchor="middle" x="1196" y="-288.8" font-family="Arial" font-size="9.00" fill="#8e44ad"> Access Policy</text>
</g>
<!-- encryption_svc -->
<g id="node15" class="node">
<title>encryption_svc</title>
<path fill="#1565c0" stroke="black" stroke-width="1.5" d="M1815,-440C1815,-440 1714,-440 1714,-440 1708,-440 1702,-434 1702,-428 1702,-428 1702,-416 1702,-416 1702,-410 1708,-404 1714,-404 1714,-404 1815,-404 1815,-404 1821,-404 1827,-410 1827,-416 1827,-416 1827,-428 1827,-428 1827,-434 1821,-440 1815,-440"/>
<text text-anchor="middle" x="1764.5" y="-419.5" font-family="Arial" font-size="10.00" fill="#ffffff">PHI Encryption Service</text>
</g>
<!-- encryption_svc&#45;&gt;phi_database -->
<g id="edge13" class="edge">
<title>encryption_svc&#45;&gt;phi_database</title>
<path fill="none" stroke="#27ae60" stroke-width="2" stroke-dasharray="1,5" d="M1723.91,-403.96C1645.59,-368.26 1470.97,-288.66 1384.31,-249.16"/>
<polygon fill="#27ae60" stroke="#27ae60" stroke-width="2" points="1384.1,-249.07 1376.98,-250.22 1373.18,-244.09 1380.3,-242.94 1384.1,-249.07"/>
<text text-anchor="middle" x="1513.5" y="-325.8" font-family="Arial" font-size="9.00" fill="#27ae60"> Encrypt/Decrypt</text>
</g>
<!-- key_store -->
<g id="node16" class="node">
<title>key_store</title>
<path fill="#1565c0" stroke="black" stroke-width="1.5" d="M1534.5,-428C1534.5,-428 1492.5,-428 1492.5,-428 1486.5,-428 1480.5,-422 1480.5,-416 1480.5,-416 1480.5,-404 1480.5,-404 1480.5,-398 1486.5,-392 1492.5,-392 1492.5,-392 1534.5,-392 1534.5,-392 1540.5,-392 1546.5,-398 1546.5,-404 1546.5,-404 1546.5,-416 1546.5,-416 1546.5,-422 1540.5,-428 1534.5,-428"/>
<text text-anchor="middle" x="1513.5" y="-407.5" font-family="Arial" font-size="10.00" fill="#ffffff">Key Store</text>
</g>
<!-- key_store&#45;&gt;encryption_svc -->
<g id="edge14" class="edge">
<title>key_store&#45;&gt;encryption_svc</title>
<path fill="none" stroke="#27ae60" stroke-width="2" stroke-dasharray="1,5" d="M1546.54,-411.54C1582.55,-413.28 1642.2,-416.15 1689.84,-418.45"/>
<polygon fill="#27ae60" stroke="#27ae60" stroke-width="2" points="1690.01,-418.46 1696.19,-414.75 1701.99,-419.04 1695.81,-422.74 1690.01,-418.46"/>
<text text-anchor="middle" x="1624.5" y="-418.8" font-family="Arial" font-size="9.00" fill="#27ae60"> Encryption Keys</text>
</g>
<!-- _legend -->
<g id="node17" class="node">
<title>_legend</title>
<path fill="#f8f8f8" stroke="transparent" d="M12,-463.5C12,-463.5 621,-463.5 621,-463.5 627,-463.5 633,-469.5 633,-475.5 633,-475.5 633,-498.5 633,-498.5 633,-504.5 627,-510.5 621,-510.5 621,-510.5 12,-510.5 12,-510.5 6,-510.5 0,-504.5 0,-498.5 0,-498.5 0,-475.5 0,-475.5 0,-469.5 6,-463.5 12,-463.5"/>
<text text-anchor="start" x="301" y="-496.8" font-family="Arial" font-weight="bold" font-size="9.00" fill="#333333">Legend</text>
<text text-anchor="start" x="7.5" y="-473.8" font-family="Arial" font-size="14.00"> </text>
<text text-anchor="start" x="19.5" y="-473.8" font-family="Arial" font-size="14.00" fill="#3498db">———— ▶</text>
<text text-anchor="start" x="99.5" y="-475.6" font-family="Arial" font-size="8.00" fill="#333333">Data Flow</text>
<text text-anchor="start" x="144.5" y="-473.8" font-family="Arial" font-size="14.00"> </text>
<text text-anchor="start" x="156.5" y="-473.8" font-family="Arial" font-size="14.00" fill="#e67e22">&#45; &#45; &#45; &#45; ▶</text>
<text text-anchor="start" x="208.5" y="-475.6" font-family="Arial" font-size="8.00" fill="#333333">Feedback</text>
<text text-anchor="start" x="252.5" y="-473.8" font-family="Arial" font-size="14.00"> </text>
<text text-anchor="start" x="264.5" y="-473.8" font-family="Arial" font-size="14.00" fill="#27ae60">• • • • ▶</text>
<text text-anchor="start" x="319.5" y="-475.6" font-family="Arial" font-size="8.00" fill="#333333">Resource</text>
<text text-anchor="start" x="362.5" y="-473.8" font-family="Arial" font-size="14.00"> </text>
<text text-anchor="start" x="374.5" y="-473.8" font-family="Arial" font-size="14.00" fill="#8e44ad">———— ▶</text>
<text text-anchor="start" x="454.5" y="-475.6" font-family="Arial" font-size="8.00" fill="#333333">Control</text>
<text text-anchor="start" x="489.5" y="-473.8" font-family="Arial" font-size="14.00"> </text>
<text text-anchor="start" x="501.5" y="-474.8" font-family="Arial" font-weight="bold" font-size="14.00" fill="#cc0000">———— ▶</text>
<text text-anchor="start" x="581.5" y="-476.6" font-family="Arial" font-weight="bold" font-size="8.00" fill="#cc0000">INVERSION</text>
<path fill="none" stroke="#cccccc" d="M12,-463.5C12,-463.5 621,-463.5 621,-463.5 627,-463.5 633,-469.5 633,-475.5 633,-475.5 633,-498.5 633,-498.5 633,-504.5 627,-510.5 621,-510.5 621,-510.5 12,-510.5 12,-510.5 6,-510.5 0,-504.5 0,-498.5 0,-498.5 0,-475.5 0,-475.5 0,-469.5 6,-463.5 12,-463.5"/>
</g>
</g>
</svg>
